SourceHebrewSans_0.ufo
<glyph name="exclam.S" format="2">
	<unicode hex="0021"/>
	<advance width="248"/>
	<outline>
		<contour>
			<point x="112" y="172" type="line"/>
			<point x="136" y="172" type="line"/>
			<point x="140" y="484" type="line"/>
			<point x="140" y="576" type="line"/>
			<point x="108" y="576" type="line"/>
			<point x="108" y="484" type="line"/>
		</contour>
		<contour>
			<point x="124" y="-12" type="curve" smooth="yes"/>
			<point x="142" y="-12"/>
			<point x="160" y="2"/>
			<point x="160" y="26" type="curve" smooth="yes"/>
			<point x="160" y="52"/>
			<point x="142" y="66"/>
			<point x="124" y="66" type="curve" smooth="yes"/>
			<point x="106" y="66"/>
			<point x="88" y="52"/>
			<point x="88" y="26" type="curve" smooth="yes"/>
			<point x="88" y="2"/>
			<point x="106" y="-12"/>
		</contour>
	</outline>
</glyph>
<glyph name="numbersign.S" format="2">
	<unicode hex="0023"/>
	<advance width="472"/>
	<outline>
		<contour>
			<point x="96" y="-12" type="line"/>
			<point x="124" y="-12" type="line"/>
			<point x="148" y="166" type="line"/>
			<point x="304" y="166" type="line"/>
			<point x="280" y="-12" type="line"/>
			<point x="308" y="-12" type="line"/>
			<point x="332" y="166" type="line"/>
			<point x="422" y="166" type="line"/>
			<point x="422" y="194" type="line"/>
			<point x="336" y="194" type="line"/>
			<point x="358" y="372" type="line"/>
			<point x="442" y="372" type="line"/>
			<point x="442" y="400" type="line"/>
			<point x="360" y="400" type="line"/>
			<point x="380" y="558" type="line"/>
			<point x="352" y="558" type="line"/>
			<point x="332" y="400" type="line"/>
			<point x="176" y="400" type="line"/>
			<point x="196" y="558" type="line"/>
			<point x="168" y="558" type="line"/>
			<point x="148" y="400" type="line"/>
			<point x="56" y="400" type="line"/>
			<point x="56" y="372" type="line"/>
			<point x="146" y="372" type="line"/>
			<point x="124" y="194" type="line"/>
			<point x="36" y="194" type="line"/>
			<point x="36" y="166" type="line"/>
			<point x="120" y="166" type="line"/>
		</contour>
		<contour>
			<point x="152" y="194" type="line"/>
			<point x="174" y="372" type="line"/>
			<point x="330" y="372" type="line"/>
			<point x="308" y="194" type="line"/>
		</contour>
	</outline>
</glyph>
<glyph name="dollar.S" format="2">
	<unicode hex="0024"/>
	<advance width="472"/>
	<outline>
		<contour>
			<point x="244" y="-12" type="curve" smooth="yes"/>
			<point x="336" y="-12"/>
			<point x="412" y="44"/>
			<point x="412" y="138" type="curve" smooth="yes"/>
			<point x="412" y="306"/>
			<point x="114" y="286"/>
			<point x="114" y="418" type="curve" smooth="yes"/>
			<point x="114" y="478"/>
			<point x="166" y="526"/>
			<point x="242" y="526" type="curve" smooth="yes"/>
			<point x="304" y="526"/>
			<point x="340" y="504"/>
			<point x="370" y="466" type="curve"/>
			<point x="394" y="486" type="line"/>
			<point x="362" y="528"/>
			<point x="316" y="558"/>
			<point x="244" y="558" type="curve" smooth="yes"/>
			<point x="156" y="558"/>
			<point x="88" y="498"/>
			<point x="88" y="416" type="curve" smooth="yes"/>
			<point x="88" y="260"/>
			<point x="386" y="280"/>
			<point x="386" y="136" type="curve" smooth="yes"/>
			<point x="386" y="68"/>
			<point x="336" y="20"/>
			<point x="244" y="20" type="curve" smooth="yes"/>
			<point x="174" y="20"/>
			<point x="120" y="50"/>
			<point x="84" y="90" type="curve"/>
			<point x="62" y="68" type="line"/>
			<point x="98" y="22"/>
			<point x="166" y="-12"/>
		</contour>
		<contour>
			<point x="228" y="-110" type="line"/>
			<point x="258" y="-110" type="line"/>
			<point x="258" y="-8" type="line"/>
			<point x="228" y="-8" type="line"/>
		</contour>
		<contour>
			<point x="228" y="540" type="line"/>
			<point x="258" y="540" type="line"/>
			<point x="258" y="656" type="line"/>
			<point x="228" y="656" type="line"/>
		</contour>
	</outline>
</glyph>
<glyph name="ampersand.S" format="2">
	<unicode hex="0026"/>
	<advance width="560"/>
	<outline>
		<contour>
			<point x="536" y="-12" type="curve"/>
			<point x="548" y="16" type="line"/>
			<point x="506" y="32"/>
			<point x="458" y="62"/>
			<point x="408" y="106" type="curve" smooth="yes"/>
			<point x="292" y="207"/>
			<point x="138" y="342"/>
			<point x="138" y="456" type="curve" smooth="yes"/>
			<point x="138" y="518"/>
			<point x="182" y="568"/>
			<point x="260" y="568" type="curve" smooth="yes"/>
			<point x="308" y="568"/>
			<point x="340" y="560"/>
			<point x="386" y="522" type="curve"/>
			<point x="404" y="544" type="line"/>
			<point x="356" y="584"/>
			<point x="322" y="598"/>
			<point x="258" y="598" type="curve" smooth="yes"/>
			<point x="170" y="598"/>
			<point x="108" y="538"/>
			<point x="108" y="454" type="curve" smooth="yes"/>
			<point x="108" y="332"/>
			<point x="266" y="192"/>
			<point x="390" y="82" type="curve" smooth="yes"/>
			<point x="444" y="34"/>
			<point x="494" y="4"/>
		</contour>
		<contour>
			<point x="222" y="-12" type="curve" smooth="yes"/>
			<point x="300" y="-12"/>
			<point x="360" y="28"/>
			<point x="408" y="84" type="curve" smooth="yes"/>
			<point x="462" y="148"/>
			<point x="506" y="232"/>
			<point x="536" y="322" type="curve"/>
			<point x="506" y="322" type="line"/>
			<point x="478" y="236"/>
			<point x="438" y="162"/>
			<point x="386" y="102" type="curve" smooth="yes"/>
			<point x="344" y="53"/>
			<point x="286" y="18"/>
			<point x="224" y="18" type="curve" smooth="yes"/>
			<point x="140" y="18"/>
			<point x="68" y="73"/>
			<point x="68" y="158" type="curve" smooth="yes"/>
			<point x="68" y="228"/>
			<point x="122" y="279"/>
			<point x="183" y="325" type="curve"/>
			<point x="173" y="350" type="line"/>
			<point x="104" y="297"/>
			<point x="38" y="241"/>
			<point x="38" y="156" type="curve" smooth="yes"/>
			<point x="38" y="52"/>
			<point x="123" y="-12"/>
		</contour>
	</outline>
</glyph>
<glyph name="quotesingle" format="2">
	<unicode hex="0027"/>
	<advance width="208"/>
	<outline>
		<contour>
			<point x="90" y="494" type="line"/>
			<point x="116" y="494" type="line"/>
			<point x="122" y="634" type="line"/>
			<point x="122" y="694" type="line"/>
			<point x="84" y="694" type="line"/>
			<point x="84" y="634" type="line"/>
		</contour>
	</outline>
</glyph>
<glyph name="slash" format="2">
	<unicode hex="002F"/>
	<advance width="360"/>
	<outline>
		<contour>
			<point x="8" y="-160" type="line"/>
			<point x="38" y="-160" type="line"/>
			<point x="358" y="710" type="line"/>
			<point x="328" y="710" type="line"/>
		</contour>
	</outline>
</glyph>
<glyph name="zero.S" format="2">
	<unicode hex="0030"/>
	<advance width="472"/>
	<outline>
		<contour>
			<point x="236" y="-12" type="curve" smooth="yes"/>
			<point x="353" y="-12"/>
			<point x="418" y="93"/>
			<point x="418" y="276" type="curve" smooth="yes"/>
			<point x="418" y="458"/>
			<point x="353" y="558"/>
			<point x="236" y="558" type="curve" smooth="yes"/>
			<point x="119" y="558"/>
			<point x="54" y="458"/>
			<point x="54" y="276" type="curve" smooth="yes"/>
			<point x="54" y="93"/>
			<point x="119" y="-12"/>
		</contour>
		<contour>
			<point x="236" y="18" type="curve" smooth="yes"/>
			<point x="142" y="18"/>
			<point x="82" y="111"/>
			<point x="82" y="276" type="curve" smooth="yes"/>
			<point x="82" y="439"/>
			<point x="142" y="528"/>
			<point x="236" y="528" type="curve" smooth="yes"/>
			<point x="330" y="528"/>
			<point x="390" y="439"/>
			<point x="390" y="276" type="curve" smooth="yes"/>
			<point x="390" y="111"/>
			<point x="330" y="18"/>
		</contour>
	</outline>
</glyph>
<glyph name="two.S" format="2">
	<unicode hex="0032"/>
	<advance width="472"/>
	<outline>
		<contour>
			<point x="52" y="0" type="line"/>
			<point x="416" y="0" type="line"/>
			<point x="416" y="30" type="line"/>
			<point x="206" y="30" type="line" smooth="yes"/>
			<point x="170" y="30"/>
			<point x="134" y="28"/>
			<point x="98" y="26" type="curve"/>
			<point x="227" y="148"/>
			<point x="380" y="288"/>
			<point x="380" y="404" type="curve" smooth="yes"/>
			<point x="380" y="496"/>
			<point x="323" y="558"/>
			<point x="224" y="558" type="curve" smooth="yes"/>
			<point x="152" y="558"/>
			<point x="106" y="536"/>
			<point x="52" y="490" type="curve"/>
			<point x="74" y="466" type="line"/>
			<point x="128" y="512"/>
			<point x="166" y="526"/>
			<point x="222" y="526" type="curve" smooth="yes"/>
			<point x="313" y="526"/>
			<point x="352" y="473"/>
			<point x="352" y="404" type="curve" smooth="yes"/>
			<point x="352" y="299"/>
			<point x="211" y="164"/>
			<point x="52" y="20" type="curve"/>
		</contour>
	</outline>
</glyph>
<glyph name="three.S" format="2">
	<unicode hex="0033"/>
	<advance width="472"/>
	<outline>
		<contour>
			<point x="222" y="-52" type="curve" smooth="yes"/>
			<point x="336" y="-52"/>
			<point x="414" y="10"/>
			<point x="414" y="120" type="curve" smooth="yes"/>
			<point x="414" y="214"/>
			<point x="348" y="252"/>
			<point x="268" y="266" type="curve"/>
			<point x="268" y="270" type="line"/>
			<point x="340" y="292"/>
			<point x="390" y="338"/>
			<point x="390" y="422" type="curve" smooth="yes"/>
			<point x="390" y="514"/>
			<point x="318" y="558"/>
			<point x="226" y="558" type="curve" smooth="yes"/>
			<point x="154" y="558"/>
			<point x="114" y="542"/>
			<point x="60" y="498" type="curve"/>
			<point x="78" y="474" type="line"/>
			<point x="132" y="518"/>
			<point x="170" y="528"/>
			<point x="224" y="528" type="curve" smooth="yes"/>
			<point x="306" y="528"/>
			<point x="360" y="490"/>
			<point x="360" y="420" type="curve" smooth="yes"/>
			<point x="360" y="344"/>
			<point x="310" y="280"/>
			<point x="158" y="280" type="curve"/>
			<point x="158" y="250" type="line"/>
			<point x="320" y="250"/>
			<point x="384" y="202"/>
			<point x="384" y="118" type="curve" smooth="yes"/>
			<point x="384" y="30"/>
			<point x="322" y="-22"/>
			<point x="222" y="-22" type="curve" smooth="yes"/>
			<point x="166" y="-22"/>
			<point x="104" y="-12"/>
			<point x="54" y="32" type="curve"/>
			<point x="36" y="8" type="line"/>
			<point x="88" y="-36"/>
			<point x="148" y="-52"/>
		</contour>
	</outline>
</glyph>
<glyph name="four.S" format="2">
	<unicode hex="0034"/>
	<advance width="472"/>
	<outline>
		<contour>
			<point x="314" y="-40" type="line"/>
			<point x="342" y="-40" type="line"/>
			<point x="342" y="546" type="line"/>
			<point x="322" y="546" type="line"/>
			<point x="16" y="138" type="line"/>
			<point x="16" y="122" type="line"/>
			<point x="440" y="122" type="line"/>
			<point x="440" y="150" type="line"/>
			<point x="58" y="150" type="line"/>
			<point x="260" y="416" type="line"/>
			<point x="280" y="444"/>
			<point x="298" y="470"/>
			<point x="314" y="494" type="curve"/>
			<point x="318" y="494" type="line"/>
			<point x="316" y="466"/>
			<point x="314" y="416"/>
			<point x="314" y="388" type="curve" smooth="yes"/>
		</contour>
	</outline>
</glyph>
<glyph name="five.S" format="2">
	<unicode hex="0035"/>
	<advance width="472"/>
	<outline>
		<contour>
			<point x="234" y="-52" type="curve" smooth="yes"/>
			<point x="333" y="-52"/>
			<point x="420" y="20"/>
			<point x="420" y="146" type="curve" smooth="yes"/>
			<point x="420" y="270"/>
			<point x="340" y="326"/>
			<point x="238" y="326" type="curve" smooth="yes"/>
			<point x="192" y="326"/>
			<point x="152" y="316"/>
			<point x="114" y="292" type="curve"/>
			<point x="136" y="518" type="line"/>
			<point x="388" y="518" type="line"/>
			<point x="388" y="546" type="line"/>
			<point x="112" y="546" type="line"/>
			<point x="88" y="270" type="line"/>
			<point x="112" y="254" type="line"/>
			<point x="148" y="282"/>
			<point x="188" y="296"/>
			<point x="236" y="296" type="curve" smooth="yes"/>
			<point x="332" y="296"/>
			<point x="390" y="238"/>
			<point x="390" y="144" type="curve" smooth="yes"/>
			<point x="390" y="40"/>
			<point x="316" y="-22"/>
			<point x="234" y="-22" type="curve" smooth="yes"/>
			<point x="172" y="-22"/>
			<point x="122" y="-10"/>
			<point x="70" y="34" type="curve"/>
			<point x="50" y="12" type="line"/>
			<point x="100" y="-32"/>
			<point x="158" y="-52"/>
		</contour>
	</outline>
</glyph>
<glyph name="six.S" format="2">
	<unicode hex="0036"/>
	<advance width="472"/>
	<outline>
		<contour>
			<point x="258" y="-12" type="curve" smooth="yes"/>
			<point x="354" y="-12"/>
			<point x="428" y="72"/>
			<point x="428" y="186" type="curve" smooth="yes"/>
			<point x="428" y="316"/>
			<point x="364" y="384"/>
			<point x="252" y="384" type="curve" smooth="yes"/>
			<point x="186" y="384"/>
			<point x="124" y="348"/>
			<point x="76" y="288" type="curve"/>
			<point x="76" y="248" type="line"/>
			<point x="134" y="328"/>
			<point x="200" y="356"/>
			<point x="250" y="356" type="curve" smooth="yes"/>
			<point x="356" y="356"/>
			<point x="400" y="282"/>
			<point x="400" y="186" type="curve" smooth="yes"/>
			<point x="400" y="88"/>
			<point x="340" y="20"/>
			<point x="260" y="20" type="curve" smooth="yes"/>
			<point x="136" y="20"/>
			<point x="82" y="132"/>
			<point x="82" y="288" type="curve" smooth="yes"/>
			<point x="82" y="503"/>
			<point x="162" y="576"/>
			<point x="272" y="576" type="curve" smooth="yes"/>
			<point x="324" y="576"/>
			<point x="362" y="558"/>
			<point x="400" y="526" type="curve"/>
			<point x="420" y="550" type="line"/>
			<point x="380" y="586"/>
			<point x="334" y="608"/>
			<point x="272" y="608" type="curve" smooth="yes"/>
			<point x="146" y="608"/>
			<point x="54" y="529"/>
			<point x="54" y="288" type="curve" smooth="yes"/>
			<point x="54" y="104"/>
			<point x="122" y="-12"/>
		</contour>
	</outline>
</glyph>
<glyph name="eight.S" format="2">
	<unicode hex="0038"/>
	<advance width="472"/>
	<outline>
		<contour>
			<point x="240" y="-12" type="curve" smooth="yes"/>
			<point x="352" y="-12"/>
			<point x="426" y="54"/>
			<point x="426" y="136" type="curve" smooth="yes"/>
			<point x="426" y="227"/>
			<point x="368" y="258"/>
			<point x="316" y="290" type="curve"/>
			<point x="316" y="294" type="line"/>
			<point x="352" y="324"/>
			<point x="410" y="388"/>
			<point x="410" y="460" type="curve" smooth="yes"/>
			<point x="410" y="544"/>
			<point x="348" y="608"/>
			<point x="240" y="608" type="curve" smooth="yes"/>
			<point x="150" y="608"/>
			<point x="78" y="552"/>
			<point x="78" y="471" type="curve" smooth="yes"/>
			<point x="78" y="398"/>
			<point x="125" y="356"/>
			<point x="172" y="326" type="curve"/>
			<point x="172" y="322" type="line"/>
			<point x="113" y="291"/>
			<point x="44" y="239"/>
			<point x="44" y="144" type="curve" smooth="yes"/>
			<point x="44" y="55"/>
			<point x="126" y="-12"/>
		</contour>
		<contour>
			<point x="288" y="304" type="curve"/>
			<point x="192" y="340"/>
			<point x="106" y="376"/>
			<point x="106" y="472" type="curve" smooth="yes"/>
			<point x="106" y="532"/>
			<point x="162" y="576"/>
			<point x="240" y="576" type="curve" smooth="yes"/>
			<point x="331" y="576"/>
			<point x="382" y="523"/>
			<point x="382" y="460" type="curve" smooth="yes"/>
			<point x="382" y="402"/>
			<point x="348" y="352"/>
		</contour>
		<contour>
			<point x="240" y="20" type="curve" smooth="yes"/>
			<point x="142" y="20"/>
			<point x="72" y="75"/>
			<point x="72" y="144" type="curve" smooth="yes"/>
			<point x="72" y="225"/>
			<point x="125" y="270"/>
			<point x="194" y="308" type="curve"/>
			<point x="295" y="267"/>
			<point x="398" y="246"/>
			<point x="398" y="136" type="curve" smooth="yes"/>
			<point x="398" y="73"/>
			<point x="336" y="20"/>
		</contour>
	</outline>
</glyph>
<glyph name="nine.S" format="2">
	<unicode hex="0039"/>
	<advance width="472"/>
	<outline>
		<contour>
			<point x="200" y="-72" type="curve" smooth="yes"/>
			<point x="326" y="-72"/>
			<point x="418" y="10"/>
			<point x="418" y="258" type="curve" smooth="yes"/>
			<point x="418" y="442"/>
			<point x="350" y="558"/>
			<point x="214" y="558" type="curve" smooth="yes"/>
			<point x="118" y="558"/>
			<point x="44" y="474"/>
			<point x="44" y="360" type="curve" smooth="yes"/>
			<point x="44" y="230"/>
			<point x="108" y="162"/>
			<point x="220" y="162" type="curve" smooth="yes"/>
			<point x="286" y="162"/>
			<point x="348" y="198"/>
			<point x="396" y="258" type="curve"/>
			<point x="396" y="298" type="line"/>
			<point x="338" y="218"/>
			<point x="272" y="190"/>
			<point x="222" y="190" type="curve" smooth="yes"/>
			<point x="116" y="190"/>
			<point x="72" y="264"/>
			<point x="72" y="360" type="curve" smooth="yes"/>
			<point x="72" y="458"/>
			<point x="132" y="526"/>
			<point x="212" y="526" type="curve" smooth="yes"/>
			<point x="336" y="526"/>
			<point x="390" y="414"/>
			<point x="390" y="258" type="curve" smooth="yes"/>
			<point x="390" y="35"/>
			<point x="310" y="-40"/>
			<point x="200" y="-40" type="curve" smooth="yes"/>
			<point x="148" y="-40"/>
			<point x="110" y="-22"/>
			<point x="72" y="10" type="curve"/>
			<point x="52" y="-14" type="line"/>
			<point x="92" y="-50"/>
			<point x="138" y="-72"/>
		</contour>
	</outline>
</glyph>
<glyph name="question.S" format="2">
	<unicode hex="003F"/>
	<advance width="394"/>
	<outline>
		<contour>
			<point x="164" y="172" type="curve"/>
			<point x="192" y="172" type="line"/>
			<point x="192" y="248"/>
			<point x="330" y="318"/>
			<point x="330" y="440" type="curve" smooth="yes"/>
			<point x="330" y="532"/>
			<point x="275" y="588"/>
			<point x="194" y="588" type="curve" smooth="yes"/>
			<point x="129" y="588"/>
			<point x="91" y="577"/>
			<point x="40" y="544" type="curve"/>
			<point x="52" y="520" type="line"/>
			<point x="102" y="553"/>
			<point x="141" y="560"/>
			<point x="192" y="560" type="curve" smooth="yes"/>
			<point x="262" y="560"/>
			<point x="302" y="511"/>
			<point x="302" y="440" type="curve" smooth="yes"/>
			<point x="302" y="326"/>
			<point x="164" y="262"/>
		</contour>
		<contour>
			<point x="182" y="-12" type="curve" smooth="yes"/>
			<point x="200" y="-12"/>
			<point x="218" y="2"/>
			<point x="218" y="26" type="curve" smooth="yes"/>
			<point x="218" y="52"/>
			<point x="200" y="66"/>
			<point x="182" y="66" type="curve" smooth="yes"/>
			<point x="164" y="66"/>
			<point x="146" y="52"/>
			<point x="146" y="26" type="curve" smooth="yes"/>
			<point x="146" y="2"/>
			<point x="164" y="-12"/>
		</contour>
	</outline>
</glyph>
<glyph name="at.S" format="2">
	<unicode hex="0040"/>
	<advance width="724"/>
	<outline>
		<contour>
			<point x="336" y="-52" type="curve" smooth="yes"/>
			<point x="390" y="-52"/>
			<point x="452" y="-38"/>
			<point x="496" y="-8" type="curve"/>
			<point x="480" y="16" type="line"/>
			<point x="442" y="-10"/>
			<point x="388" y="-20"/>
			<point x="338" y="-20" type="curve" smooth="yes"/>
			<point x="179" y="-20"/>
			<point x="80" y="66"/>
			<point x="80" y="230" type="curve" smooth="yes"/>
			<point x="80" y="432"/>
			<point x="234" y="562"/>
			<point x="402" y="562" type="curve" smooth="yes"/>
			<point x="550" y="562"/>
			<point x="644" y="478"/>
			<point x="644" y="334" type="curve" smooth="yes"/>
			<point x="644" y="198"/>
			<point x="578" y="124"/>
			<point x="524" y="124" type="curve" smooth="yes"/>
			<point x="464" y="124"/>
			<point x="450" y="164"/>
			<point x="472" y="266" type="curve" smooth="yes"/>
			<point x="508" y="432" type="line"/>
			<point x="482" y="432" type="line"/>
			<point x="472" y="392" type="line"/>
			<point x="470" y="392" type="line"/>
			<point x="452" y="424"/>
			<point x="423" y="440"/>
			<point x="390" y="440" type="curve" smooth="yes"/>
			<point x="284" y="440"/>
			<point x="212" y="334"/>
			<point x="212" y="226" type="curve" smooth="yes"/>
			<point x="212" y="144"/>
			<point x="262" y="102"/>
			<point x="316" y="102" type="curve" smooth="yes"/>
			<point x="366" y="102"/>
			<point x="402" y="134"/>
			<point x="436" y="172" type="curve"/>
			<point x="438" y="172" type="line"/>
			<point x="440" y="124"/>
			<point x="472" y="96"/>
			<point x="520" y="96" type="curve" smooth="yes"/>
			<point x="592" y="96"/>
			<point x="672" y="182"/>
			<point x="672" y="336" type="curve" smooth="yes"/>
			<point x="672" y="496"/>
			<point x="564" y="594"/>
			<point x="408" y="594" type="curve" smooth="yes"/>
			<point x="218" y="594"/>
			<point x="52" y="448"/>
			<point x="52" y="228" type="curve" smooth="yes"/>
			<point x="52" y="49"/>
			<point x="166" y="-52"/>
		</contour>
		<contour>
			<point x="320" y="134" type="curve" smooth="yes"/>
			<point x="276" y="134"/>
			<point x="240" y="165"/>
			<point x="240" y="232" type="curve" smooth="yes"/>
			<point x="240" y="312"/>
			<point x="297" y="408"/>
			<point x="388" y="408" type="curve" smooth="yes"/>
			<point x="420" y="408"/>
			<point x="439" y="398"/>
			<point x="464" y="360" type="curve"/>
			<point x="432" y="200" type="line"/>
			<point x="391" y="154"/>
			<point x="352" y="134"/>
		</contour>
	</outline>
</glyph>
<glyph name="E" format="2">
	<unicode hex="0045"/>
	<advance width="510"/>
	<outline>
		<contour>
			<point x="100" y="0" type="line"/>
			<point x="464" y="0" type="line"/>
			<point x="464" y="28" type="line"/>
			<point x="132" y="28" type="line"/>
			<point x="132" y="338" type="line"/>
			<point x="402" y="338" type="line"/>
			<point x="402" y="366" type="line"/>
			<point x="132" y="366" type="line"/>
			<point x="132" y="632" type="line"/>
			<point x="454" y="632" type="line"/>
			<point x="454" y="660" type="line"/>
			<point x="100" y="660" type="line"/>
		</contour>
	</outline>
	<anchor name="aboveUC" x="282" y="680"/>
	<anchor name="belowLC" x="290" y="-20"/>
	<anchor name="ogonekUC" x="384" y="0"/>
	<anchor name="baseLC" x="255" y="0"/>
</glyph>
<glyph name="F" format="2">
	<unicode hex="0046"/>
	<advance width="470"/>
	<outline>
		<contour>
			<point x="100" y="0" type="line"/>
			<point x="132" y="0" type="line"/>
			<point x="132" y="326" type="line"/>
			<point x="402" y="326" type="line"/>
			<point x="402" y="354" type="line"/>
			<point x="132" y="354" type="line"/>
			<point x="132" y="632" type="line"/>
			<point x="452" y="632" type="line"/>
			<point x="452" y="660" type="line"/>
			<point x="100" y="660" type="line"/>
		</contour>
	</outline>
	<anchor name="aboveUC" x="284" y="680"/>
	<anchor name="belowLC" x="116" y="-20"/>
	<anchor name="baseLC" x="235" y="0"/>
</glyph>
<glyph name="K" format="2">
	<unicode hex="004B"/>
	<advance width="550"/>
	<outline>
		<contour>
			<point x="100" y="0" type="line"/>
			<point x="132" y="0" type="line"/>
			<point x="132" y="234" type="line"/>
			<point x="274" y="394" type="line"/>
			<point x="500" y="0" type="line"/>
			<point x="538" y="0" type="line"/>
			<point x="298" y="418" type="line"/>
			<point x="510" y="660" type="line"/>
			<point x="470" y="660" type="line"/>
			<point x="134" y="280" type="line"/>
			<point x="132" y="280" type="line"/>
			<point x="132" y="660" type="line"/>
			<point x="100" y="660" type="line"/>
		</contour>
	</outline>
	<anchor name="aboveUC" x="304" y="680"/>
	<anchor name="belowLC" x="324" y="-20"/>
</glyph>
<glyph name="L" format="2">
	<unicode hex="004C"/>
	<advance width="460"/>
	<outline>
		<contour>
			<point x="100" y="0" type="line"/>
			<point x="442" y="0" type="line"/>
			<point x="442" y="28" type="line"/>
			<point x="132" y="28" type="line"/>
			<point x="132" y="660" type="line"/>
			<point x="100" y="660" type="line"/>
		</contour>
	</outline>
	<anchor name="aboveUC" x="116" y="680"/>
	<anchor name="belowLC" x="288" y="-20"/>
	<anchor name="center" x="230" y="0"/>
	<anchor name="baseLC" x="230" y="0"/>
</glyph>
<glyph name="Z" format="2">
	<unicode hex="005A"/>
	<advance width="538"/>
	<outline>
		<contour>
			<point x="52" y="0" type="line"/>
			<point x="488" y="0" type="line"/>
			<point x="488" y="28" type="line"/>
			<point x="92" y="28" type="line"/>
			<point x="484" y="642" type="line"/>
			<point x="484" y="660" type="line"/>
			<point x="86" y="660" type="line"/>
			<point x="86" y="632" type="line"/>
			<point x="444" y="632" type="line"/>
			<point x="52" y="18" type="line"/>
		</contour>
	</outline>
	<anchor name="aboveUC" x="278" y="680"/>
	<anchor name="belowLC" x="282" y="-20"/>
	<anchor name="baseLC" x="269" y="0"/>
</glyph>
<glyph name="bracketleft" format="2">
	<unicode hex="005B"/>
	<advance width="270"/>
	<outline>
		<contour>
			<point x="100" y="-152" type="line"/>
			<point x="252" y="-152" type="line"/>
			<point x="252" y="-130" type="line"/>
			<point x="124" y="-130" type="line"/>
			<point x="124" y="686" type="line"/>
			<point x="252" y="686" type="line"/>
			<point x="252" y="708" type="line"/>
			<point x="100" y="708" type="line"/>
		</contour>
	</outline>
</glyph>
<glyph name="j" format="2">
	<unicode hex="006A"/>
	<advance width="222"/>
	<outline>
		<contour>
			<point x="28" y="-234" type="curve" smooth="yes"/>
			<point x="94" y="-234"/>
			<point x="126" y="-194"/>
			<point x="126" y="-102" type="curve" smooth="yes"/>
			<point x="126" y="478" type="line"/>
			<point x="96" y="478" type="line"/>
			<point x="96" y="-98" type="line" smooth="yes"/>
			<point x="96" y="-160"/>
			<point x="86" y="-206"/>
			<point x="30" y="-206" type="curve" smooth="yes"/>
			<point x="12" y="-206"/>
			<point x="-10" y="-200"/>
			<point x="-22" y="-196" type="curve"/>
			<point x="-30" y="-220" type="line"/>
			<point x="-16" y="-228"/>
			<point x="10" y="-234"/>
		</contour>
		<component base="dotaccentcmb" xOffset="110"/>
	</outline>
	<anchor name="aboveLC" x="110" y="682"/>
	<anchor name="belowLC" x="50" y="-222"/>
</glyph>
<glyph name="sterling.S" format="2">
	<unicode hex="00A3"/>
	<advance width="472"/>
	<outline>
		<contour>
			<point x="58" y="0" type="line"/>
			<point x="418" y="0" type="line"/>
			<point x="418" y="30" type="line"/>
			<point x="120" y="30" type="line"/>
			<point x="120" y="34" type="line"/>
			<point x="163" y="77"/>
			<point x="192" y="121"/>
			<point x="192" y="198" type="curve" smooth="yes"/>
			<point x="192" y="280"/>
			<point x="142" y="334"/>
			<point x="142" y="404" type="curve" smooth="yes"/>
			<point x="142" y="471"/>
			<point x="187" y="526"/>
			<point x="274" y="526" type="curve" smooth="yes"/>
			<point x="330" y="526"/>
			<point x="366" y="504"/>
			<point x="394" y="466" type="curve"/>
			<point x="416" y="486" type="line"/>
			<point x="388" y="528"/>
			<point x="342" y="558"/>
			<point x="276" y="558" type="curve" smooth="yes"/>
			<point x="176" y="558"/>
			<point x="116" y="498"/>
			<point x="116" y="402" type="curve" smooth="yes"/>
			<point x="116" y="332"/>
			<point x="166" y="270"/>
			<point x="166" y="198" type="curve" smooth="yes"/>
			<point x="166" y="128"/>
			<point x="133" y="61"/>
			<point x="58" y="18" type="curve"/>
		</contour>
		<contour>
			<point x="54" y="256" type="line"/>
			<point x="346" y="256" type="line"/>
			<point x="346" y="286" type="line"/>
			<point x="120" y="286" type="line"/>
			<point x="54" y="284" type="line"/>
		</contour>
	</outline>
</glyph>
<glyph name="yen.S" format="2">
	<unicode hex="00A5"/>
	<advance width="472"/>
	<outline>
		<contour>
			<point x="222" y="0" type="line"/>
			<point x="250" y="0" type="line"/>
			<point x="250" y="158" type="line"/>
			<point x="420" y="158" type="line"/>
			<point x="420" y="188" type="line"/>
			<point x="250" y="188" type="line"/>
			<point x="250" y="268" type="line"/>
			<point x="420" y="268" type="line"/>
			<point x="420" y="298" type="line"/>
			<point x="262" y="298" type="line"/>
			<point x="440" y="546" type="line"/>
			<point x="404" y="546" type="line"/>
			<point x="304" y="398" type="line" smooth="yes"/>
			<point x="279" y="361"/>
			<point x="266" y="344"/>
			<point x="238" y="298" type="curve"/>
			<point x="234" y="298" type="line"/>
			<point x="206" y="344"/>
			<point x="192" y="362"/>
			<point x="168" y="398" type="curve" smooth="yes"/>
			<point x="68" y="546" type="line"/>
			<point x="32" y="546" type="line"/>
			<point x="208" y="298" type="line"/>
			<point x="52" y="298" type="line"/>
			<point x="52" y="268" type="line"/>
			<point x="222" y="268" type="line"/>
			<point x="222" y="188" type="line"/>
			<point x="52" y="188" type="line"/>
			<point x="52" y="158" type="line"/>
			<point x="222" y="158" type="line"/>
		</contour>
	</outline>
</glyph>
<glyph name="logicalnot" format="2">
	<unicode hex="00AC"/>
	<advance width="472"/>
	<outline>
		<contour>
			<point x="406" y="112" type="line"/>
			<point x="438" y="112" type="line"/>
			<point x="438" y="344" type="line"/>
			<point x="34" y="344" type="line"/>
			<point x="34" y="316" type="line"/>
			<point x="406" y="316" type="line"/>
		</contour>
	</outline>
</glyph>
<glyph name="paragraph.S" format="2">
	<unicode hex="00B6"/>
	<advance width="498"/>
	<outline>
		<contour>
			<point x="370" y="-120" type="line"/>
			<point x="402" y="-120" type="line"/>
			<point x="402" y="546" type="line"/>
			<point x="370" y="546" type="line"/>
		</contour>
		<contour>
			<point x="290" y="136" type="curve" smooth="yes"/>
			<point x="316" y="136" type="line"/>
			<point x="316" y="546" type="line"/>
			<point x="272" y="546" type="line" smooth="yes"/>
			<point x="136" y="546"/>
			<point x="42" y="488"/>
			<point x="42" y="340" type="curve" smooth="yes"/>
			<point x="42" y="192"/>
			<point x="142" y="136"/>
		</contour>
	</outline>
</glyph>
<glyph name="periodcentered" format="2">
	<unicode hex="00B7"/>
	<advance width="208"/>
	<outline>
		<contour>
			<point x="104" y="284" type="curve" smooth="yes"/>
			<point x="122" y="284"/>
			<point x="140" y="298"/>
			<point x="140" y="322" type="curve" smooth="yes"/>
			<point x="140" y="348"/>
			<point x="122" y="362"/>
			<point x="104" y="362" type="curve" smooth="yes"/>
			<point x="86" y="362"/>
			<point x="68" y="348"/>
			<point x="68" y="322" type="curve" smooth="yes"/>
			<point x="68" y="298"/>
			<point x="86" y="284"/>
		</contour>
	</outline>
</glyph>
<glyph name="Eth" format="2">
	<unicode hex="00D0"/>
	<advance width="620"/>
	<outline>
		<contour>
			<point x="38" y="336" type="line"/>
			<point x="320" y="336" type="line"/>
			<point x="320" y="364" type="line"/>
			<point x="122" y="364" type="line"/>
			<point x="38" y="362" type="line"/>
		</contour>
		<component base="D" xOffset="20"/>
	</outline>
	<anchor name="aboveUC" x="310" y="680"/>
	<anchor name="belowLC" x="310" y="-20"/>
</glyph>
<glyph name="multiply" format="2">
	<unicode hex="00D7"/>
	<advance width="472"/>
	<outline>
		<contour>
			<point x="72" y="138" type="line"/>
			<point x="236" y="310" type="line"/>
			<point x="400" y="138" type="line"/>
			<point x="420" y="160" type="line"/>
			<point x="256" y="330" type="line"/>
			<point x="420" y="500" type="line"/>
			<point x="400" y="522" type="line"/>
			<point x="236" y="350" type="line"/>
			<point x="72" y="522" type="line"/>
			<point x="52" y="500" type="line"/>
			<point x="216" y="330" type="line"/>
			<point x="52" y="160" type="line"/>
		</contour>
	</outline>
</glyph>
<glyph name="Lslash" format="2">
	<unicode hex="0141"/>
	<advance width="460"/>
	<outline>
		<contour>
			<point x="22" y="220" type="line"/>
			<point x="110" y="267" type="line"/>
			<point x="122" y="271" type="line"/>
			<point x="340" y="384" type="line"/>
			<point x="326" y="408" type="line"/>
			<point x="122" y="301" type="line"/>
			<point x="110" y="297" type="line"/>
			<point x="8" y="244" type="line"/>
		</contour>
		<component base="L" xOffset="4"/>
	</outline>
	<anchor name="aboveUC" x="230" y="680"/>
	<anchor name="belowLC" x="230" y="-20"/>
</glyph>
<glyph name="ismall" format="2">
	<unicode hex="026A"/>
	<advance width="298"/>
	<outline>
		<contour>
			<point x="42" y="0" type="line"/>
			<point x="256" y="0" type="line"/>
			<point x="256" y="28" type="line"/>
			<point x="164" y="28" type="line"/>
			<point x="164" y="450" type="line"/>
			<point x="256" y="450" type="line"/>
			<point x="256" y="478" type="line"/>
			<point x="42" y="478" type="line"/>
			<point x="42" y="450" type="line"/>
			<point x="134" y="450" type="line"/>
			<point x="134" y="28" type="line"/>
			<point x="42" y="28" type="line"/>
		</contour>
	</outline>
	<anchor name="aboveLC" x="150" y="500"/>
	<anchor name="belowLC" x="150" y="-20"/>
	<anchor name="ogonekUC" x="124" y="0"/>
</glyph>
<glyph name="primemod" format="2">
	<unicode hex="02B9"/>
	<advance width="208"/>
	<outline>
		<contour>
			<point x="102" y="538" type="line"/>
			<point x="126" y="670" type="line"/>
			<point x="134" y="732" type="line"/>
			<point x="106" y="734" type="line"/>
			<point x="82" y="540" type="line"/>
		</contour>
	</outline>
</glyph>
<glyph name="ringhalfrightmod" format="2">
	<unicode hex="02BE"/>
	<advance width="158"/>
	<outline>
		<contour>
			<point x="34" y="548" type="line"/>
			<point x="98" y="546"/>
			<point x="140" y="581"/>
			<point x="140" y="640" type="curve" smooth="yes"/>
			<point x="140" y="699"/>
			<point x="98" y="734"/>
			<point x="34" y="732" type="curve"/>
			<point x="34" y="712" type="line"/>
			<point x="89" y="712"/>
			<point x="112" y="683"/>
			<point x="112" y="640" type="curve" smooth="yes"/>
			<point x="112" y="597"/>
			<point x="89" y="568"/>
			<point x="34" y="568" type="curve"/>
		</contour>
	</outline>
</glyph>
<glyph name="ringhalfleftmod" format="2">
	<unicode hex="02BF"/>
	<advance width="158"/>
	<outline>
		<contour>
			<point x="124" y="548" type="curve"/>
			<point x="124" y="568" type="line"/>
			<point x="69" y="568"/>
			<point x="46" y="597"/>
			<point x="46" y="640" type="curve" smooth="yes"/>
			<point x="46" y="683"/>
			<point x="69" y="712"/>
			<point x="124" y="712" type="curve"/>
			<point x="124" y="732" type="line"/>
			<point x="60" y="734"/>
			<point x="18" y="699"/>
			<point x="18" y="640" type="curve" smooth="yes"/>
			<point x="18" y="581"/>
			<point x="60" y="546"/>
		</contour>
	</outline>
</glyph>
<glyph name="colontriangularmod" format="2">
	<unicode hex="02D0"/>
	<advance width="208"/>
	<outline>
		<contour>
			<point x="56" y="0" type="line"/>
			<point x="152" y="0" type="line"/>
			<point x="108" y="96" type="line"/>
			<point x="100" y="96" type="line"/>
		</contour>
		<contour>
			<point x="100" y="348" type="line"/>
			<point x="108" y="348" type="line"/>
			<point x="152" y="442" type="line"/>
			<point x="56" y="442" type="line"/>
		</contour>
	</outline>
</glyph>
<glyph name="macroncmb" format="2">
	<unicode hex="0304"/>
	<outline>
		<contour>
			<point x="-120" y="608" type="line"/>
			<point x="120" y="608" type="line"/>
			<point x="120" y="636" type="line"/>
			<point x="-120" y="636" type="line"/>
		</contour>
	</outline>
	<anchor name="_aboveLC" x="0" y="500"/>
	<anchor name="aboveLC" x="0" y="500"/>
</glyph>
<glyph name="caroncmb" format="2">
	<unicode hex="030C"/>
	<outline>
		<contour>
			<point x="-14" y="572" type="line"/>
			<point x="14" y="572" type="line"/>
			<point x="132" y="718" type="line"/>
			<point x="114" y="734" type="line"/>
			<point x="2" y="604" type="line"/>
			<point x="-2" y="604" type="line"/>
			<point x="-114" y="734" type="line"/>
			<point x="-132" y="718" type="line"/>
		</contour>
	</outline>
	<anchor name="_aboveLC" x="0" y="500"/>
</glyph>
<glyph name="downtackbelowcmb" format="2">
	<unicode hex="031E"/>
	<outline>
		<contour>
			<point x="-14" y="-242" type="line"/>
			<point x="14" y="-242" type="line"/>
			<point x="14" y="-136" type="line"/>
			<point x="86" y="-136" type="line"/>
			<point x="86" y="-108" type="line"/>
			<point x="-86" y="-108" type="line"/>
			<point x="-86" y="-136" type="line"/>
			<point x="-14" y="-136" type="line"/>
		</contour>
	</outline>
	<anchor name="_belowLC" x="0" y="-22"/>
</glyph>
<glyph name="heSheva" format="2">
	<unicode hex="05B0"/>
	<outline>
		<contour>
			<point x="0" y="-155" type="curve" smooth="yes"/>
			<point x="20" y="-155"/>
			<point x="35" y="-140"/>
			<point x="35" y="-120" type="curve" smooth="yes"/>
			<point x="35" y="-100"/>
			<point x="20" y="-85"/>
			<point x="0" y="-85" type="curve" smooth="yes"/>
			<point x="-20" y="-85"/>
			<point x="-35" y="-100"/>
			<point x="-35" y="-120" type="curve" smooth="yes"/>
			<point x="-35" y="-140"/>
			<point x="-20" y="-155"/>
		</contour>
		<contour>
			<point x="0" y="-276" type="curve" smooth="yes"/>
			<point x="20" y="-276"/>
			<point x="35" y="-261"/>
			<point x="35" y="-241" type="curve" smooth="yes"/>
			<point x="35" y="-221"/>
			<point x="20" y="-206"/>
			<point x="0" y="-206" type="curve" smooth="yes"/>
			<point x="-20" y="-206"/>
			<point x="-35" y="-221"/>
			<point x="-35" y="-241" type="curve" smooth="yes"/>
			<point x="-35" y="-261"/>
			<point x="-20" y="-276"/>
		</contour>
	</outline>
	<anchor name="_belowPrimaryHE" x="0" y="-30"/>
	<anchor name="_belowLeftHE" x="-25" y="-30"/>
	<anchor name="_belowRightHE" x="25" y="-30"/>
	<anchor name="belowPrimaryHE" x="-100" y="-30"/>
	<anchor name="_belowSecondaryHE" x="0" y="-30"/>
</glyph>
<glyph name="heHiriq" format="2">
	<unicode hex="05B4"/>
	<outline>
		<contour>
			<point x="0" y="-155" type="curve" smooth="yes"/>
			<point x="20" y="-155"/>
			<point x="35" y="-140"/>
			<point x="35" y="-120" type="curve" smooth="yes"/>
			<point x="35" y="-100"/>
			<point x="20" y="-85"/>
			<point x="0" y="-85" type="curve" smooth="yes"/>
			<point x="-20" y="-85"/>
			<point x="-35" y="-100"/>
			<point x="-35" y="-120" type="curve" smooth="yes"/>
			<point x="-35" y="-140"/>
			<point x="-20" y="-155"/>
		</contour>
	</outline>
	<anchor name="_belowPrimaryHE" x="0" y="-30"/>
	<anchor name="_belowLeftHE" x="-25" y="-30"/>
	<anchor name="_belowRightHE" x="25" y="-30"/>
	<anchor name="belowPrimaryHE" x="-100" y="-30"/>
	<anchor name="_belowSecondaryHE" x="0" y="-30"/>
	<guideline x="0" y="-133" angle="0" identifier="4QcKMXi29o"/>
</glyph>
<glyph name="heTsere" format="2">
	<unicode hex="05B5"/>
	<outline>
		<contour>
			<point x="-66" y="-188" type="curve" smooth="yes"/>
			<point x="-48" y="-188"/>
			<point x="-34" y="-174"/>
			<point x="-34" y="-156" type="curve" smooth="yes"/>
			<point x="-34" y="-138"/>
			<point x="-48" y="-124"/>
			<point x="-66" y="-124" type="curve" smooth="yes"/>
			<point x="-84" y="-124"/>
			<point x="-98" y="-138"/>
			<point x="-98" y="-156" type="curve" smooth="yes"/>
			<point x="-98" y="-174"/>
			<point x="-84" y="-188"/>
		</contour>
		<contour>
			<point x="66" y="-188" type="curve" smooth="yes"/>
			<point x="84" y="-188"/>
			<point x="98" y="-174"/>
			<point x="98" y="-156" type="curve" smooth="yes"/>
			<point x="98" y="-138"/>
			<point x="84" y="-124"/>
			<point x="66" y="-124" type="curve" smooth="yes"/>
			<point x="48" y="-124"/>
			<point x="34" y="-138"/>
			<point x="34" y="-156" type="curve" smooth="yes"/>
			<point x="34" y="-174"/>
			<point x="48" y="-188"/>
		</contour>
	</outline>
	<anchor name="_belowPrimaryHE" x="0" y="-30"/>
	<anchor name="_belowLeftHE" x="-85" y="-30"/>
	<anchor name="_belowRightHE" x="85" y="-30"/>
	<anchor name="belowPrimaryHE" x="-160" y="-30"/>
	<anchor name="_belowSecondaryHE" x="0" y="-30"/>
</glyph>
<glyph name="heHolam" format="2">
	<unicode hex="05B9"/>
	<outline>
		<contour>
			<point x="0" y="637" type="curve" smooth="yes"/>
			<point x="20" y="637"/>
			<point x="35" y="652"/>
			<point x="35" y="672" type="curve" smooth="yes"/>
			<point x="35" y="692"/>
			<point x="20" y="707"/>
			<point x="0" y="707" type="curve" smooth="yes"/>
			<point x="-20" y="707"/>
			<point x="-35" y="692"/>
			<point x="-35" y="672" type="curve" smooth="yes"/>
			<point x="-35" y="652"/>
			<point x="-20" y="637"/>
		</contour>
	</outline>
	<anchor name="_aboveLeftHE" x="0" y="590"/>
</glyph>
<glyph name="heMeteg" format="2">
	<unicode hex="05BD"/>
	<outline>
		<contour>
			<point x="-14" y="-312" type="line"/>
			<point x="14" y="-312" type="line"/>
			<point x="14" y="-108" type="line"/>
			<point x="-14" y="-108" type="line"/>
		</contour>
	</outline>
	<anchor name="_belowPrimaryHE" x="0" y="-30"/>
	<anchor name="_belowLeftHE" x="-20" y="-30"/>
	<anchor name="_belowRightHE" x="20" y="-30"/>
	<anchor name="_belowSecondaryHE" x="0" y="-30"/>
</glyph>
<glyph name="hePaseq" format="2">
	<unicode hex="05C0"/>
	<advance width="230"/>
	<outline>
		<contour>
			<point x="100" y="-106" type="line"/>
			<point x="130" y="-106" type="line"/>
			<point x="130" y="666" type="line"/>
			<point x="100" y="666" type="line"/>
		</contour>
	</outline>
</glyph>
<glyph name="heQamatsQatan" format="2">
	<unicode hex="05C7"/>
	<outline>
		<contour>
			<point x="-14" y="-312" type="line"/>
			<point x="14" y="-312" type="line"/>
			<point x="14" y="-136" type="line"/>
			<point x="96" y="-136" type="line"/>
			<point x="96" y="-108" type="line"/>
			<point x="-96" y="-108" type="line"/>
			<point x="-96" y="-136" type="line"/>
			<point x="-14" y="-136" type="line"/>
		</contour>
	</outline>
	<anchor name="_belowPrimaryHE" x="0" y="-30"/>
	<anchor name="_belowLeftHE" x="-95" y="-30"/>
	<anchor name="_belowRightHE" x="95" y="-30"/>
	<anchor name="belowPrimaryHE" x="-140" y="-30"/>
	<anchor name="_belowSecondaryHE" x="0" y="-30"/>
	<guideline x="0" y="46" angle="0" identifier="0QQY0Nsl6b"/>
</glyph>
<glyph name="heAlef" format="2">
	<unicode hex="05D0"/>
	<advance width="554"/>
	<outline>
		<contour>
			<point x="370" y="158" type="line"/>
			<point x="432" y="258"/>
			<point x="490" y="356"/>
			<point x="490" y="428" type="curve" smooth="yes"/>
			<point x="490" y="496"/>
			<point x="466" y="526"/>
			<point x="390" y="526" type="curve" smooth="yes"/>
			<point x="346" y="526" type="line"/>
			<point x="346" y="498" type="line"/>
			<point x="372" y="498" type="line" smooth="yes"/>
			<point x="444" y="498"/>
			<point x="458" y="476"/>
			<point x="458" y="430" type="curve" smooth="yes"/>
			<point x="458" y="364"/>
			<point x="414" y="272"/>
			<point x="350" y="176" type="curve"/>
		</contour>
		<contour>
			<point x="100" y="0" type="curve"/>
			<point x="130" y="0" type="line"/>
			<point x="128" y="22"/>
			<point x="126" y="43"/>
			<point x="126" y="62" type="curve" smooth="yes"/>
			<point x="126" y="214"/>
			<point x="158" y="302"/>
			<point x="204" y="396" type="curve"/>
			<point x="182" y="414" type="line"/>
			<point x="132" y="316"/>
			<point x="98" y="224"/>
			<point x="98" y="64" type="curve" smooth="yes"/>
			<point x="98" y="43"/>
			<point x="98" y="22"/>
		</contour>
		<contour>
			<point x="488" y="-2" type="curve"/>
			<point x="524" y="0" type="line"/>
			<point x="372" y="176"/>
			<point x="224" y="368"/>
			<point x="118" y="528" type="curve"/>
			<point x="82" y="526" type="line"/>
			<point x="200" y="354"/>
			<point x="348" y="158"/>
		</contour>
	</outline>
	<anchor name="aboveHE" x="310" y="590"/>
	<anchor name="belowPrimaryHE" x="320" y="-30"/>
	<anchor name="aboveLeftHE" x="40" y="590"/>
	<anchor name="centerHE" x="250" y="120"/>
</glyph>
<glyph name="heBet" format="2">
	<unicode hex="05D1"/>
	<advance width="492"/>
	<outline>
		<contour>
			<point x="54" y="0" type="line"/>
			<point x="448" y="0" type="line"/>
			<point x="448" y="28" type="line"/>
			<point x="54" y="28" type="line"/>
		</contour>
		<contour>
			<point x="382" y="0" type="line"/>
			<point x="386" y="105"/>
			<point x="392" y="183"/>
			<point x="392" y="290" type="curve" smooth="yes"/>
			<point x="392" y="463"/>
			<point x="324" y="526"/>
			<point x="194" y="526" type="curve" smooth="yes"/>
			<point x="74" y="526" type="line"/>
			<point x="74" y="498" type="line"/>
			<point x="188" y="498" type="line" smooth="yes"/>
			<point x="304" y="498"/>
			<point x="362" y="448"/>
			<point x="362" y="286" type="curve" smooth="yes"/>
			<point x="362" y="190"/>
			<point x="359" y="123"/>
			<point x="354" y="30" type="curve"/>
		</contour>
	</outline>
	<anchor name="aboveHE" x="220" y="590"/>
	<anchor name="belowPrimaryHE" x="250" y="-30"/>
	<anchor name="centerHE" x="210" y="280"/>
	<anchor name="aboveLeftHE" x="30" y="590"/>
</glyph>
<glyph name="heGimel" format="2">
	<unicode hex="05D2"/>
	<advance width="370"/>
	<outline>
		<contour>
			<point x="262" y="0" type="line"/>
			<point x="292" y="0" type="line"/>
			<point x="256" y="400" type="line" smooth="yes"/>
			<point x="249" y="482"/>
			<point x="212" y="526"/>
			<point x="136" y="526" type="curve" smooth="yes"/>
			<point x="74" y="526" type="line"/>
			<point x="74" y="498" type="line"/>
			<point x="124" y="498" type="line" smooth="yes"/>
			<point x="194" y="498"/>
			<point x="224" y="470"/>
			<point x="230" y="392" type="curve" smooth="yes"/>
		</contour>
		<contour>
			<point x="54" y="-8" type="line"/>
			<point x="160" y="-2"/>
			<point x="249" y="95"/>
			<point x="258" y="176" type="curve"/>
			<point x="248" y="198" type="line"/>
			<point x="232" y="105"/>
			<point x="145" y="28"/>
			<point x="54" y="20" type="curve"/>
		</contour>
	</outline>
	<anchor name="aboveHE" x="160" y="590"/>
	<anchor name="belowPrimaryHE" x="170" y="-30"/>
	<anchor name="centerHE" x="140" y="300"/>
	<anchor name="aboveLeftHE" x="30" y="590"/>
	<anchor name="belowPrimaryHECXT" x="200" y="-30"/>
</glyph>
<glyph name="heDalet" format="2">
	<unicode hex="05D3"/>
	<advance width="430"/>
	<outline>
		<contour>
			<point x="4" y="498" type="line"/>
			<point x="396" y="498" type="line"/>
			<point x="396" y="526" type="line"/>
			<point x="4" y="526" type="line"/>
		</contour>
		<contour>
			<point x="272" y="0" type="line"/>
			<point x="302" y="0" type="line"/>
			<point x="302" y="498" type="line"/>
			<point x="278" y="498" type="line"/>
			<point x="272" y="472"/>
			<point x="272" y="444"/>
			<point x="272" y="408" type="curve" smooth="yes"/>
		</contour>
	</outline>
	<anchor name="aboveHE" x="210" y="590"/>
	<anchor name="belowSecondaryHE" x="320" y="-30"/>
	<anchor name="centerHE" x="160" y="260"/>
	<anchor name="aboveLeftHE" x="0" y="590"/>
</glyph>
<glyph name="heHe" format="2">
	<unicode hex="05D4"/>
	<advance width="590"/>
	<outline>
		<contour>
			<point x="114" y="0" type="line"/>
			<point x="144" y="0" type="line"/>
			<point x="144" y="338" type="line"/>
			<point x="120" y="338" type="line"/>
			<point x="114" y="312"/>
			<point x="114" y="284"/>
			<point x="114" y="248" type="curve" smooth="yes"/>
		</contour>
		<contour>
			<point x="460" y="0" type="line"/>
			<point x="490" y="0" type="line"/>
			<point x="490" y="340" type="line" smooth="yes"/>
			<point x="490" y="474"/>
			<point x="424" y="526"/>
			<point x="324" y="526" type="curve" smooth="yes"/>
			<point x="94" y="526" type="line"/>
			<point x="94" y="498" type="line"/>
			<point x="316" y="498" type="line" smooth="yes"/>
			<point x="404" y="498"/>
			<point x="460" y="460"/>
			<point x="460" y="336" type="curve" smooth="yes"/>
		</contour>
	</outline>
	<anchor name="aboveHE" x="300" y="590"/>
	<anchor name="belowPrimaryHE" x="310" y="-30"/>
	<anchor name="centerHE" x="310" y="260"/>
	<anchor name="aboveLeftHE" x="20" y="590"/>
</glyph>
<glyph name="heVav" format="2">
	<unicode hex="05D5"/>
	<advance width="274"/>
	<outline>
		<contour>
			<point x="146" y="0" type="line"/>
			<point x="174" y="0" type="line"/>
			<point x="174" y="390" type="line" smooth="yes"/>
			<point x="174" y="514"/>
			<point x="130" y="546"/>
			<point x="38" y="546" type="curve" smooth="yes"/>
			<point x="4" y="546" type="line"/>
			<point x="4" y="516" type="line"/>
			<point x="32" y="516" type="line" smooth="yes"/>
			<point x="110" y="516"/>
			<point x="146" y="495"/>
			<point x="146" y="384" type="curve" smooth="yes"/>
		</contour>
	</outline>
	<anchor name="aboveHE" x="90" y="590"/>
	<anchor name="belowSecondaryHE" x="160" y="-30"/>
	<anchor name="centerHE" x="40" y="260"/>
	<anchor name="holamHE" x="0" y="590"/>
	<anchor name="aboveLeftHE" x="90" y="590"/>
</glyph>
<glyph name="heZayin" format="2">
	<unicode hex="05D6"/>
	<advance width="312"/>
	<outline>
		<contour>
			<point x="4" y="516" type="line"/>
			<point x="268" y="516" type="line"/>
			<point x="268" y="546" type="line"/>
			<point x="4" y="546" type="line"/>
		</contour>
		<contour>
			<point x="172" y="0" type="curve"/>
			<point x="200" y="0" type="line"/>
			<point x="180" y="184"/>
			<point x="168" y="352"/>
			<point x="168" y="426" type="curve" smooth="yes"/>
			<point x="168" y="456"/>
			<point x="168" y="486"/>
			<point x="174" y="516" type="curve"/>
			<point x="152" y="516" type="line"/>
			<point x="144" y="488"/>
			<point x="140" y="462"/>
			<point x="140" y="426" type="curve" smooth="yes"/>
			<point x="140" y="340"/>
			<point x="156" y="176"/>
		</contour>
	</outline>
	<anchor name="aboveHE" x="140" y="580"/>
	<anchor name="belowPrimaryHE" x="150" y="-30"/>
	<anchor name="centerHE" x="30" y="260"/>
	<anchor name="aboveLeftHE" x="0" y="590"/>
</glyph>
<glyph name="heHet" format="2">
	<unicode hex="05D7"/>
	<advance width="588"/>
	<outline>
		<contour>
			<point x="458" y="0" type="line"/>
			<point x="488" y="0" type="line"/>
			<point x="488" y="340" type="line" smooth="yes"/>
			<point x="488" y="477"/>
			<point x="424" y="526"/>
			<point x="322" y="526" type="curve" smooth="yes"/>
			<point x="34" y="526" type="line"/>
			<point x="34" y="498" type="line"/>
			<point x="314" y="498" type="line" smooth="yes"/>
			<point x="402" y="498"/>
			<point x="458" y="460"/>
			<point x="458" y="336" type="curve" smooth="yes"/>
		</contour>
		<contour>
			<point x="114" y="0" type="line"/>
			<point x="144" y="0" type="line"/>
			<point x="144" y="498" type="line"/>
			<point x="120" y="498" type="line"/>
			<point x="114" y="472"/>
			<point x="114" y="444"/>
			<point x="114" y="408" type="curve" smooth="yes"/>
		</contour>
	</outline>
	<anchor name="aboveHE" x="310" y="590"/>
	<anchor name="belowPrimaryHE" x="320" y="-30"/>
	<anchor name="centerHE" x="320" y="260"/>
	<anchor name="aboveLeftHE" x="20" y="590"/>
</glyph>
<glyph name="heTet" format="2">
	<unicode hex="05D8"/>
	<advance width="560"/>
	<outline>
		<contour>
			<point x="270" y="-12" type="curve" smooth="yes"/>
			<point x="398" y="-12"/>
			<point x="496" y="94"/>
			<point x="496" y="380" type="curve" smooth="yes"/>
			<point x="496" y="496"/>
			<point x="452" y="534"/>
			<point x="366" y="534" type="curve" smooth="yes"/>
			<point x="329" y="534"/>
			<point x="293" y="530"/>
			<point x="256" y="524" type="curve"/>
			<point x="262" y="496" type="line"/>
			<point x="295" y="502"/>
			<point x="327" y="506"/>
			<point x="360" y="506" type="curve" smooth="yes"/>
			<point x="432" y="506"/>
			<point x="464" y="478"/>
			<point x="464" y="380" type="curve" smooth="yes"/>
			<point x="464" y="112"/>
			<point x="384" y="16"/>
			<point x="270" y="16" type="curve" smooth="yes"/>
			<point x="160" y="16"/>
			<point x="96" y="126"/>
			<point x="96" y="528" type="curve"/>
			<point x="64" y="526" type="line"/>
			<point x="70" y="101"/>
			<point x="136" y="-12"/>
		</contour>
	</outline>
	<anchor name="aboveHE" x="290" y="590"/>
	<anchor name="belowPrimaryHE" x="300" y="-30"/>
	<anchor name="centerHE" x="300" y="290"/>
	<anchor name="aboveLeftHE" x="20" y="590"/>
</glyph>
<glyph name="heYod" format="2">
	<unicode hex="05D9"/>
	<advance width="212"/>
	<outline>
		<contour>
			<point x="70" y="232" type="line"/>
			<point x="114" y="298"/>
			<point x="154" y="374"/>
			<point x="154" y="428" type="curve" smooth="yes"/>
			<point x="154" y="496"/>
			<point x="130" y="526"/>
			<point x="56" y="526" type="curve" smooth="yes"/>
			<point x="4" y="526" type="line"/>
			<point x="4" y="498" type="line"/>
			<point x="38" y="498" type="line" smooth="yes"/>
			<point x="108" y="498"/>
			<point x="122" y="476"/>
			<point x="122" y="430" type="curve" smooth="yes"/>
			<point x="122" y="382"/>
			<point x="90" y="310"/>
			<point x="44" y="248" type="curve"/>
		</contour>
	</outline>
	<anchor name="aboveHE" x="50" y="590"/>
	<anchor name="belowPrimaryHE" x="90" y="-30"/>
	<anchor name="centerHE" x="10" y="410"/>
	<anchor name="aboveLeftHE" x="-40" y="590"/>
</glyph>
<glyph name="heKafFin" format="2">
	<unicode hex="05DA"/>
	<advance width="452"/>
	<outline>
		<contour>
			<point x="302" y="-202" type="line"/>
			<point x="332" y="-202" type="line"/>
			<point x="332" y="340" type="line" smooth="yes"/>
			<point x="332" y="477"/>
			<point x="267" y="526"/>
			<point x="166" y="526" type="curve" smooth="yes"/>
			<point x="4" y="526" type="line"/>
			<point x="4" y="498" type="line"/>
			<point x="158" y="498" type="line" smooth="yes"/>
			<point x="246" y="498"/>
			<point x="302" y="459"/>
			<point x="302" y="336" type="curve" smooth="yes"/>
		</contour>
	</outline>
	<anchor name="aboveHE" x="170" y="590"/>
	<anchor name="centerSecondaryHE" x="150" y="390"/>
	<anchor name="aboveLeftHE" x="0" y="590"/>
	<anchor name="belowPrimaryHE" x="150" y="-30"/>
	<anchor name="centerHE" x="150" y="260"/>
</glyph>
<glyph name="heKaf" format="2">
	<unicode hex="05DB"/>
	<advance width="486"/>
	<outline>
		<contour>
			<point x="54" y="0" type="line"/>
			<point x="358" y="0" type="line"/>
			<point x="378" y="95"/>
			<point x="390" y="183"/>
			<point x="390" y="290" type="curve" smooth="yes"/>
			<point x="390" y="463"/>
			<point x="318" y="526"/>
			<point x="182" y="526" type="curve" smooth="yes"/>
			<point x="74" y="526" type="line"/>
			<point x="74" y="498" type="line"/>
			<point x="174" y="498" type="line" smooth="yes"/>
			<point x="298" y="498"/>
			<point x="360" y="448"/>
			<point x="360" y="286" type="curve" smooth="yes"/>
			<point x="360" y="189"/>
			<point x="352" y="113"/>
			<point x="334" y="28" type="curve"/>
			<point x="54" y="28" type="line"/>
		</contour>
	</outline>
	<anchor name="aboveHE" x="220" y="590"/>
	<anchor name="belowPrimaryHE" x="220" y="-30"/>
	<anchor name="centerHE" x="210" y="280"/>
	<anchor name="aboveLeftHE" x="30" y="590"/>
</glyph>
<glyph name="heLamed" format="2">
	<unicode hex="05DC"/>
	<advance width="456"/>
	<outline>
		<contour>
			<point x="102" y="-12" type="line"/>
			<point x="306" y="114"/>
			<point x="398" y="262"/>
			<point x="398" y="396" type="curve" smooth="yes"/>
			<point x="398" y="500"/>
			<point x="358" y="546"/>
			<point x="236" y="546" type="curve" smooth="yes"/>
			<point x="76" y="546" type="line"/>
			<point x="76" y="720" type="line"/>
			<point x="48" y="720" type="line"/>
			<point x="48" y="516" type="line"/>
			<point x="230" y="516" type="line" smooth="yes"/>
			<point x="330" y="516"/>
			<point x="370" y="490"/>
			<point x="370" y="398" type="curve" smooth="yes"/>
			<point x="370" y="270"/>
			<point x="290" y="140"/>
			<point x="86" y="14" type="curve"/>
		</contour>
	</outline>
	<anchor name="aboveHE" x="220" y="590"/>
	<anchor name="belowLeftHE" x="170" y="-30"/>
	<anchor name="centerHE" x="170" y="320"/>
	<anchor name="aboveLeftHE" x="-80" y="590"/>
</glyph>
<glyph name="heMemFin" format="2">
	<unicode hex="05DD"/>
	<advance width="588"/>
	<outline>
		<contour>
			<point x="132" y="0" type="line"/>
			<point x="488" y="0" type="line"/>
			<point x="488" y="340" type="line" smooth="yes"/>
			<point x="488" y="477"/>
			<point x="423" y="526"/>
			<point x="322" y="526" type="curve" smooth="yes"/>
			<point x="34" y="526" type="line"/>
			<point x="34" y="498" type="line"/>
			<point x="314" y="498" type="line" smooth="yes"/>
			<point x="402" y="498"/>
			<point x="458" y="459"/>
			<point x="458" y="336" type="curve" smooth="yes"/>
			<point x="458" y="28" type="line"/>
			<point x="132" y="28" type="line"/>
		</contour>
		<contour>
			<point x="114" y="0" type="line"/>
			<point x="144" y="0" type="line"/>
			<point x="144" y="498" type="line"/>
			<point x="120" y="498" type="line"/>
			<point x="114" y="472"/>
			<point x="114" y="444"/>
			<point x="114" y="408" type="curve" smooth="yes"/>
		</contour>
	</outline>
	<anchor name="aboveHE" x="320" y="590"/>
	<anchor name="belowPrimaryHE" x="330" y="-30"/>
	<anchor name="centerHE" x="330" y="280"/>
	<anchor name="aboveLeftHE" x="0" y="590"/>
</glyph>
<glyph name="heMem" format="2">
	<unicode hex="05DE"/>
	<advance width="622"/>
	<outline>
		<contour>
			<point x="100" y="0" type="curve"/>
			<point x="130" y="0" type="line"/>
			<point x="130" y="278"/>
			<point x="204" y="510"/>
			<point x="362" y="510" type="curve" smooth="yes"/>
			<point x="454" y="510"/>
			<point x="494" y="450"/>
			<point x="494" y="282" type="curve" smooth="yes"/>
			<point x="494" y="188"/>
			<point x="494" y="130"/>
			<point x="486" y="26" type="curve"/>
			<point x="260" y="28" type="line"/>
			<point x="260" y="0" type="line"/>
			<point x="516" y="0" type="line"/>
			<point x="526" y="122"/>
			<point x="526" y="195"/>
			<point x="526" y="282" type="curve" smooth="yes"/>
			<point x="526" y="472"/>
			<point x="469" y="538"/>
			<point x="364" y="538" type="curve" smooth="yes"/>
			<point x="280" y="538"/>
			<point x="214" y="494"/>
			<point x="160" y="364" type="curve"/>
			<point x="168" y="376"/>
			<point x="174" y="390"/>
			<point x="174" y="422" type="curve" smooth="yes"/>
			<point x="174" y="494"/>
			<point x="136" y="526"/>
			<point x="74" y="526" type="curve" smooth="yes"/>
			<point x="24" y="526" type="line"/>
			<point x="24" y="498" type="line"/>
			<point x="56" y="498" type="line" smooth="yes"/>
			<point x="120" y="498"/>
			<point x="144" y="472"/>
			<point x="144" y="414" type="curve" smooth="yes"/>
			<point x="144" y="388"/>
			<point x="144" y="356"/>
			<point x="136" y="314" type="curve" smooth="yes"/>
			<point x="122" y="240"/>
			<point x="100" y="130"/>
		</contour>
	</outline>
	<anchor name="aboveHE" x="340" y="580"/>
	<anchor name="belowPrimaryHE" x="340" y="-30"/>
	<anchor name="centerHE" x="360" y="280"/>
	<anchor name="aboveLeftHE" x="10" y="590"/>
</glyph>
<glyph name="heNunFin" format="2">
	<unicode hex="05DF"/>
	<advance width="254"/>
	<outline>
		<contour>
			<point x="124" y="-202" type="line"/>
			<point x="154" y="-202" type="line"/>
			<point x="154" y="380" type="line" smooth="yes"/>
			<point x="154" y="496"/>
			<point x="113" y="526"/>
			<point x="28" y="526" type="curve" smooth="yes"/>
			<point x="4" y="526" type="line"/>
			<point x="4" y="498" type="line"/>
			<point x="20" y="498" type="line" smooth="yes"/>
			<point x="91" y="498"/>
			<point x="124" y="479"/>
			<point x="124" y="376" type="curve" smooth="yes"/>
		</contour>
	</outline>
	<anchor name="aboveHE" x="110" y="590"/>
	<anchor name="belowRightHE" x="90" y="-30"/>
	<anchor name="aboveLeftHE" x="0" y="590"/>
</glyph>
<glyph name="heNun" format="2">
	<unicode hex="05E0"/>
	<advance width="392"/>
	<outline>
		<contour>
			<point x="54" y="0" type="line"/>
			<point x="290" y="0" type="line"/>
			<point x="290" y="390" type="line" smooth="yes"/>
			<point x="290" y="514"/>
			<point x="246" y="546"/>
			<point x="154" y="546" type="curve" smooth="yes"/>
			<point x="74" y="546" type="line"/>
			<point x="74" y="516" type="line"/>
			<point x="148" y="516" type="line" smooth="yes"/>
			<point x="226" y="516"/>
			<point x="262" y="495"/>
			<point x="262" y="384" type="curve" smooth="yes"/>
			<point x="262" y="28" type="line"/>
			<point x="54" y="28" type="line"/>
		</contour>
	</outline>
	<anchor name="aboveHE" x="175" y="590"/>
	<anchor name="belowPrimaryHE" x="160" y="-30"/>
	<anchor name="centerHE" x="130" y="285"/>
	<anchor name="aboveLeftHE" x="10" y="590"/>
	<anchor name="belowPrimaryHECXT" x="180" y="-30"/>
</glyph>
<glyph name="heSamekh" format="2">
	<unicode hex="05E1"/>
	<advance width="574"/>
	<outline>
		<contour>
			<point x="294" y="-12" type="curve" smooth="yes"/>
			<point x="410" y="-12"/>
			<point x="516" y="105"/>
			<point x="516" y="330" type="curve" smooth="yes"/>
			<point x="516" y="493"/>
			<point x="438" y="546"/>
			<point x="286" y="546" type="curve" smooth="yes"/>
			<point x="4" y="546" type="line"/>
			<point x="4" y="518" type="line"/>
			<point x="278" y="518" type="line" smooth="yes"/>
			<point x="421" y="518"/>
			<point x="486" y="477"/>
			<point x="486" y="330" type="curve" smooth="yes"/>
			<point x="486" y="123"/>
			<point x="392" y="16"/>
			<point x="294" y="16" type="curve" smooth="yes"/>
			<point x="196" y="16"/>
			<point x="114" y="110"/>
			<point x="114" y="320" type="curve" smooth="yes"/>
			<point x="114" y="381"/>
			<point x="122" y="450"/>
			<point x="142" y="530" type="curve"/>
			<point x="114" y="524" type="line"/>
			<point x="96" y="446"/>
			<point x="86" y="378"/>
			<point x="86" y="316" type="curve" smooth="yes"/>
			<point x="86" y="94"/>
			<point x="180" y="-12"/>
		</contour>
	</outline>
	<anchor name="aboveHE" x="290" y="590"/>
	<anchor name="belowPrimaryHE" x="290" y="-30"/>
	<anchor name="centerHE" x="290" y="290"/>
	<anchor name="aboveLeftHE" x="0" y="590"/>
</glyph>
<glyph name="heAyin" format="2">
	<unicode hex="05E2"/>
	<advance width="548"/>
	<outline>
		<contour>
			<point x="54" y="-22" type="line"/>
			<point x="383" y="-10"/>
			<point x="490" y="225"/>
			<point x="490" y="400" type="curve" smooth="yes"/>
			<point x="490" y="495"/>
			<point x="451" y="526"/>
			<point x="370" y="526" type="curve" smooth="yes"/>
			<point x="336" y="526" type="line"/>
			<point x="336" y="498" type="line"/>
			<point x="364" y="498" type="line" smooth="yes"/>
			<point x="430" y="498"/>
			<point x="458" y="475"/>
			<point x="458" y="400" type="curve" smooth="yes"/>
			<point x="458" y="236"/>
			<point x="375" y="18"/>
			<point x="54" y="6" type="curve"/>
		</contour>
		<contour>
			<point x="229" y="32" type="curve"/>
			<point x="256" y="34" type="line"/>
			<point x="215" y="213"/>
			<point x="163" y="396"/>
			<point x="108" y="528" type="curve"/>
			<point x="74" y="526" type="line"/>
			<point x="137" y="390"/>
			<point x="189" y="205"/>
		</contour>
	</outline>
	<anchor name="aboveHE" x="293" y="590"/>
	<anchor name="belowPrimaryHE" x="348" y="-30"/>
	<anchor name="aboveLeftHE" x="18" y="590"/>
</glyph>
<glyph name="hePeFin" format="2">
	<unicode hex="05E3"/>
	<advance width="520"/>
	<outline>
		<contour>
			<point x="390" y="-202" type="line"/>
			<point x="420" y="-202" type="line"/>
			<point x="420" y="300" type="line" smooth="yes"/>
			<point x="420" y="482"/>
			<point x="344" y="538"/>
			<point x="230" y="538" type="curve" smooth="yes"/>
			<point x="124" y="538"/>
			<point x="46" y="480"/>
			<point x="46" y="370" type="curve" smooth="yes"/>
			<point x="46" y="254"/>
			<point x="118" y="220"/>
			<point x="186" y="220" type="curve" smooth="yes"/>
			<point x="206" y="220" type="line"/>
			<point x="206" y="250" type="line"/>
			<point x="190" y="250" type="line" smooth="yes"/>
			<point x="137" y="250"/>
			<point x="76" y="276"/>
			<point x="76" y="370" type="curve" smooth="yes"/>
			<point x="76" y="466"/>
			<point x="140" y="510"/>
			<point x="228" y="510" type="curve" smooth="yes"/>
			<point x="324" y="510"/>
			<point x="390" y="470"/>
			<point x="390" y="294" type="curve" smooth="yes"/>
		</contour>
	</outline>
	<anchor name="aboveHE" x="230" y="590"/>
	<anchor name="belowRightHE" x="330" y="-30"/>
	<anchor name="centerHE" x="300" y="250"/>
	<anchor name="aboveLeftHE" x="30" y="590"/>
</glyph>
<glyph name="hePe" format="2">
	<unicode hex="05E4"/>
	<advance width="556"/>
	<outline>
		<contour>
			<point x="54" y="0" type="line"/>
			<point x="438" y="0" type="line"/>
			<point x="450" y="98"/>
			<point x="460" y="190"/>
			<point x="460" y="300" type="curve" smooth="yes"/>
			<point x="460" y="474"/>
			<point x="384" y="538"/>
			<point x="246" y="538" type="curve" smooth="yes"/>
			<point x="134" y="538"/>
			<point x="56" y="479"/>
			<point x="56" y="380" type="curve" smooth="yes"/>
			<point x="56" y="264"/>
			<point x="118" y="230"/>
			<point x="196" y="230" type="curve" smooth="yes"/>
			<point x="216" y="230" type="line"/>
			<point x="216" y="258" type="line"/>
			<point x="200" y="258" type="line" smooth="yes"/>
			<point x="137" y="258"/>
			<point x="86" y="285"/>
			<point x="86" y="380" type="curve" smooth="yes"/>
			<point x="86" y="464"/>
			<point x="148" y="510"/>
			<point x="244" y="510" type="curve" smooth="yes"/>
			<point x="365" y="510"/>
			<point x="430" y="460"/>
			<point x="430" y="294" type="curve" smooth="yes"/>
			<point x="430" y="196"/>
			<point x="424" y="114"/>
			<point x="412" y="28" type="curve"/>
			<point x="54" y="28" type="line"/>
		</contour>
	</outline>
	<anchor name="aboveHE" x="260" y="590"/>
	<anchor name="belowPrimaryHE" x="240" y="-30"/>
	<anchor name="centerHE" x="320" y="250"/>
	<anchor name="aboveLeftHE" x="40" y="590"/>
</glyph>
<glyph name="heTsadiFin" format="2">
	<unicode hex="05E5"/>
	<advance width="476"/>
	<outline>
		<contour>
			<point x="152" y="84" type="line"/>
			<point x="332" y="206"/>
			<point x="418" y="334"/>
			<point x="418" y="448" type="curve" smooth="yes"/>
			<point x="418" y="516"/>
			<point x="394" y="546"/>
			<point x="320" y="546" type="curve" smooth="yes"/>
			<point x="258" y="546" type="line"/>
			<point x="258" y="516" type="line"/>
			<point x="306" y="516" type="line" smooth="yes"/>
			<point x="377" y="516"/>
			<point x="390" y="495"/>
			<point x="390" y="450" type="curve" smooth="yes"/>
			<point x="390" y="342"/>
			<point x="310" y="226"/>
			<point x="152" y="118" type="curve"/>
		</contour>
		<contour>
			<point x="126" y="-202" type="line"/>
			<point x="154" y="-202" type="line"/>
			<point x="154" y="94" type="line" smooth="yes"/>
			<point x="154" y="274"/>
			<point x="112" y="442"/>
			<point x="38" y="550" type="curve"/>
			<point x="4" y="546" type="line"/>
			<point x="86" y="432"/>
			<point x="126" y="266"/>
			<point x="126" y="88" type="curve" smooth="yes"/>
		</contour>
	</outline>
	<anchor name="aboveHE" x="230" y="590"/>
	<anchor name="belowLeftHE" x="300" y="-30"/>
	<anchor name="aboveLeftHE" x="-5" y="590"/>
</glyph>
<glyph name="heTsadi" format="2">
	<unicode hex="05E6"/>
	<advance width="488"/>
	<outline>
		<contour>
			<point x="258" y="184" type="line"/>
			<point x="360" y="272"/>
			<point x="430" y="367"/>
			<point x="430" y="428" type="curve" smooth="yes"/>
			<point x="430" y="496"/>
			<point x="406" y="526"/>
			<point x="332" y="526" type="curve" smooth="yes"/>
			<point x="270" y="526" type="line"/>
			<point x="270" y="496" type="line"/>
			<point x="318" y="496" type="line" smooth="yes"/>
			<point x="389" y="496"/>
			<point x="402" y="475"/>
			<point x="402" y="430" type="curve" smooth="yes"/>
			<point x="402" y="374"/>
			<point x="344" y="290"/>
			<point x="238" y="204" type="curve"/>
		</contour>
		<contour>
			<point x="54" y="0" type="line"/>
			<point x="438" y="0" type="line"/>
			<point x="444" y="24" type="line"/>
			<point x="265" y="183"/>
			<point x="127" y="350"/>
			<point x="58" y="530" type="curve"/>
			<point x="24" y="526" type="line"/>
			<point x="100" y="344"/>
			<point x="231" y="175"/>
			<point x="420" y="10" type="curve"/>
			<point x="430" y="28" type="line"/>
			<point x="54" y="28" type="line"/>
		</contour>
	</outline>
	<anchor name="aboveHE" x="240" y="590"/>
	<anchor name="belowPrimaryHE" x="240" y="-30"/>
	<anchor name="centerHE" x="130" y="160"/>
	<anchor name="aboveLeftHE" x="0" y="590"/>
</glyph>
<glyph name="heQof" format="2">
	<unicode hex="05E7"/>
	<advance width="558"/>
	<outline>
		<contour>
			<point x="250" y="-12" type="line"/>
			<point x="431" y="103"/>
			<point x="500" y="256"/>
			<point x="500" y="386" type="curve" smooth="yes"/>
			<point x="500" y="483"/>
			<point x="462" y="526"/>
			<point x="348" y="526" type="curve" smooth="yes"/>
			<point x="94" y="526" type="line"/>
			<point x="94" y="498" type="line"/>
			<point x="340" y="498" type="line" smooth="yes"/>
			<point x="430" y="498"/>
			<point x="468" y="474"/>
			<point x="468" y="388" type="curve" smooth="yes"/>
			<point x="468" y="264"/>
			<point x="414" y="126"/>
			<point x="234" y="12" type="curve"/>
		</contour>
		<contour>
			<point x="114" y="-202" type="line"/>
			<point x="144" y="-202" type="line"/>
			<point x="144" y="336" type="line"/>
			<point x="120" y="336" type="line"/>
			<point x="114" y="310"/>
			<point x="114" y="282"/>
			<point x="114" y="246" type="curve" smooth="yes"/>
		</contour>
	</outline>
	<anchor name="aboveHE" x="280" y="590"/>
	<anchor name="belowLeftHE" x="225" y="-30"/>
	<anchor name="centerHE" x="290" y="320"/>
	<anchor name="aboveLeftHE" x="0" y="590"/>
	<anchor name="belowLeftHECXT" x="290" y="-30"/>
</glyph>
<glyph name="heResh" format="2">
	<unicode hex="05E8"/>
	<advance width="452"/>
	<outline>
		<contour>
			<point x="324" y="0" type="line"/>
			<point x="352" y="0" type="line"/>
			<point x="352" y="350" type="line" smooth="yes"/>
			<point x="352" y="494"/>
			<point x="283" y="546"/>
			<point x="176" y="546" type="curve" smooth="yes"/>
			<point x="4" y="546" type="line"/>
			<point x="4" y="516" type="line"/>
			<point x="170" y="516" type="line" smooth="yes"/>
			<point x="264" y="516"/>
			<point x="324" y="475"/>
			<point x="324" y="344" type="curve" smooth="yes"/>
		</contour>
	</outline>
	<anchor name="aboveHE" x="170" y="590"/>
	<anchor name="belowSecondaryHE" x="340" y="-30"/>
	<anchor name="centerHE" x="150" y="260"/>
	<anchor name="aboveLeftHE" x="0" y="590"/>
</glyph>
<glyph name="heShin" format="2">
	<unicode hex="05E9"/>
	<advance width="690"/>
	<outline>
		<contour>
			<point x="216" y="49" type="line"/>
			<point x="322" y="136"/>
			<point x="404" y="282"/>
			<point x="404" y="428" type="curve" smooth="yes"/>
			<point x="404" y="510"/>
			<point x="381" y="546"/>
			<point x="312" y="546" type="curve" smooth="yes"/>
			<point x="280" y="546" type="line"/>
			<point x="280" y="516" type="line"/>
			<point x="298" y="516" type="line" smooth="yes"/>
			<point x="364" y="516"/>
			<point x="378" y="489"/>
			<point x="378" y="426" type="curve" smooth="yes"/>
			<point x="378" y="292"/>
			<point x="300" y="150"/>
			<point x="202" y="70" type="curve"/>
		</contour>
		<contour>
			<point x="336" y="-12" type="curve" smooth="yes"/>
			<point x="500" y="-12"/>
			<point x="632" y="161"/>
			<point x="632" y="360" type="curve" smooth="yes"/>
			<point x="632" y="500"/>
			<point x="595" y="546"/>
			<point x="518" y="546" type="curve" smooth="yes"/>
			<point x="488" y="546" type="line"/>
			<point x="488" y="514" type="line"/>
			<point x="514" y="514" type="line" smooth="yes"/>
			<point x="576" y="514"/>
			<point x="606" y="480"/>
			<point x="606" y="360" type="curve" smooth="yes"/>
			<point x="606" y="178"/>
			<point x="479" y="20"/>
			<point x="336" y="20" type="curve" smooth="yes"/>
			<point x="214" y="20"/>
			<point x="134" y="112"/>
			<point x="134" y="306" type="curve" smooth="yes"/>
			<point x="134" y="546" type="line"/>
			<point x="106" y="546" type="line"/>
			<point x="106" y="306" type="line" smooth="yes"/>
			<point x="106" y="94"/>
			<point x="201" y="-12"/>
		</contour>
	</outline>
	<anchor name="aboveHE" x="325" y="590"/>
	<anchor name="belowPrimaryHE" x="360" y="-30"/>
	<anchor name="sinHE" x="50" y="560"/>
	<anchor name="centerHE" x="425" y="255"/>
	<anchor name="shinHE" x="520" y="560"/>
	<anchor name="aboveLeftHE" x="-50" y="590"/>
</glyph>
<glyph name="heTav" format="2">
	<unicode hex="05EA"/>
	<advance width="618"/>
	<outline>
		<contour>
			<point x="488" y="0" type="line"/>
			<point x="518" y="0" type="line"/>
			<point x="518" y="330" type="line" smooth="yes"/>
			<point x="518" y="474"/>
			<point x="449" y="526"/>
			<point x="342" y="526" type="curve" smooth="yes"/>
			<point x="74" y="526" type="line"/>
			<point x="74" y="498" type="line"/>
			<point x="334" y="498" type="line" smooth="yes"/>
			<point x="428" y="498"/>
			<point x="488" y="457"/>
			<point x="488" y="326" type="curve" smooth="yes"/>
		</contour>
		<contour>
			<point x="54" y="0" type="line"/>
			<point x="192" y="0" type="line"/>
			<point x="196" y="24" type="line"/>
			<point x="181" y="170"/>
			<point x="174" y="303"/>
			<point x="174" y="406" type="curve" smooth="yes"/>
			<point x="174" y="498" type="line"/>
			<point x="150" y="498" type="line"/>
			<point x="144" y="471"/>
			<point x="144" y="443"/>
			<point x="144" y="406" type="curve" smooth="yes"/>
			<point x="144" y="294"/>
			<point x="153" y="167"/>
			<point x="164" y="28" type="curve"/>
			<point x="54" y="28" type="line"/>
		</contour>
	</outline>
	<anchor name="aboveHE" x="330" y="590"/>
	<anchor name="belowPrimaryHE" x="350" y="-30"/>
	<anchor name="centerHE" x="350" y="260"/>
	<anchor name="aboveLeftHE" x="20" y="590"/>
	<guideline x="174" y="24" angle="0" identifier="8J5hh5zYyY"/>
</glyph>
<glyph name="heGeresh" format="2">
	<unicode hex="05F3"/>
	<advance width="208"/>
	<outline>
		<contour>
			<point x="72" y="382" type="line"/>
			<point x="104" y="450"/>
			<point x="122" y="518"/>
			<point x="122" y="598" type="curve" smooth="yes"/>
			<point x="122" y="609"/>
			<point x="121" y="626"/>
			<point x="120" y="632" type="curve"/>
			<point x="90" y="632" type="line"/>
			<point x="92" y="618"/>
			<point x="92" y="610"/>
			<point x="92" y="600" type="curve" smooth="yes"/>
			<point x="92" y="525"/>
			<point x="80" y="458"/>
			<point x="50" y="392" type="curve"/>
		</contour>
	</outline>
</glyph>
<glyph name="ZWNJ" format="2">
	<unicode hex="200C"/>
	<outline>
		<contour>
			<point x="-84" y="648" type="line"/>
			<point x="0" y="737" type="line"/>
			<point x="84" y="648" type="line"/>
			<point x="104" y="668" type="line"/>
			<point x="16" y="756" type="line"/>
			<point x="104" y="844" type="line"/>
			<point x="84" y="864" type="line"/>
			<point x="0" y="775" type="line"/>
			<point x="-84" y="864" type="line"/>
			<point x="-104" y="844" type="line"/>
			<point x="-16" y="756" type="line"/>
			<point x="-104" y="668" type="line"/>
		</contour>
	</outline>
</glyph>
<glyph name="ZWJ" format="2">
	<unicode hex="200D"/>
	<outline>
		<contour>
			<point x="-116" y="785" type="line"/>
			<point x="-116" y="858" type="line"/>
			<point x="117" y="858" type="line"/>
			<point x="117" y="785" type="line"/>
			<point x="151" y="785" type="line"/>
			<point x="151" y="894" type="line"/>
			<point x="-150" y="894" type="line"/>
			<point x="-150" y="785" type="line"/>
		</contour>
	</outline>
</glyph>
<glyph name="lefttorightmark" format="2">
	<unicode hex="200E"/>
	<outline>
		<contour>
			<point x="40" y="648" type="line"/>
			<point x="144" y="754" type="line"/>
			<point x="144" y="758" type="line"/>
			<point x="40" y="864" type="line"/>
			<point x="20" y="844" type="line"/>
			<point x="98" y="770" type="line"/>
			<point x="-114" y="770" type="line"/>
			<point x="-114" y="742" type="line"/>
			<point x="98" y="742" type="line"/>
			<point x="20" y="668" type="line"/>
		</contour>
	</outline>
</glyph>
<glyph name="righttoleftmark" format="2">
	<unicode hex="200F"/>
	<outline>
		<contour>
			<point x="-39" y="768" type="line"/>
			<point x="-14" y="792" type="line"/>
			<point x="-76" y="858" type="line"/>
			<point x="116" y="858" type="line"/>
			<point x="116" y="894" type="line"/>
			<point x="-77" y="894" type="line"/>
			<point x="-14" y="958" type="line"/>
			<point x="-39" y="984" type="line"/>
			<point x="-144" y="875" type="line"/>
		</contour>
	</outline>
</glyph>
<glyph name="lefttorightembed" format="2">
	<unicode hex="202A"/>
	<outline>
		<contour>
			<point x="-41" y="858" type="line"/>
			<point x="-41" y="894" type="line"/>
			<point x="-129" y="894" type="line"/>
			<point x="-129" y="858" type="line"/>
		</contour>
		<contour>
			<point x="39" y="767" type="line"/>
			<point x="144" y="875" type="line"/>
			<point x="39" y="984" type="line"/>
			<point x="14" y="957" type="line"/>
			<point x="77" y="894" type="line"/>
			<point x="1" y="894" type="line"/>
			<point x="1" y="858" type="line"/>
			<point x="77" y="858" type="line"/>
			<point x="14" y="792" type="line"/>
		</contour>
	</outline>
</glyph>
<glyph name="fraction.S" format="2">
	<unicode hex="2044"/>
	<advance width="78"/>
	<outline>
		<contour>
			<point x="-152" y="-12" type="line"/>
			<point x="-120" y="-12" type="line"/>
			<point x="230" y="558" type="line"/>
			<point x="198" y="558" type="line"/>
		</contour>
	</outline>
</glyph>
<glyph name="franc.S" format="2">
	<unicode hex="20A3"/>
	<advance width="472"/>
	<outline>
		<contour>
			<point x="138" y="0" type="line"/>
			<point x="166" y="0" type="line"/>
			<point x="166" y="276" type="line"/>
			<point x="389" y="276" type="line"/>
			<point x="389" y="304" type="line"/>
			<point x="166" y="304" type="line"/>
			<point x="166" y="518" type="line"/>
			<point x="444" y="518" type="line"/>
			<point x="444" y="546" type="line"/>
			<point x="138" y="546" type="line"/>
		</contour>
		<contour>
			<point x="56" y="126" type="line"/>
			<point x="324" y="126" type="line"/>
			<point x="324" y="154" type="line"/>
			<point x="140" y="154" type="line"/>
			<point x="56" y="152" type="line"/>
		</contour>
	</outline>
</glyph>
<glyph name="won.S" format="2">
	<unicode hex="20A9"/>
	<advance width="472"/>
	<outline>
		<contour>
			<point x="108" y="0" type="line"/>
			<point x="146" y="0" type="line"/>
			<point x="214" y="348" type="line"/>
			<point x="234" y="476" type="line"/>
			<point x="238" y="476" type="line"/>
			<point x="256" y="350" type="line"/>
			<point x="326" y="0" type="line"/>
			<point x="368" y="0" type="line"/>
			<point x="458" y="546" type="line"/>
			<point x="426" y="546" type="line"/>
			<point x="366" y="146" type="line"/>
			<point x="350" y="30" type="line"/>
			<point x="346" y="30" type="line"/>
			<point x="330" y="146" type="line"/>
			<point x="258" y="506" type="line"/>
			<point x="216" y="506" type="line"/>
			<point x="144" y="146" type="line"/>
			<point x="128" y="30" type="line"/>
			<point x="124" y="30" type="line"/>
			<point x="110" y="146" type="line"/>
			<point x="48" y="546" type="line"/>
			<point x="14" y="546" type="line"/>
		</contour>
		<contour>
			<point x="-12" y="260" type="line"/>
			<point x="480" y="260" type="line"/>
			<point x="480" y="288" type="line"/>
			<point x="66" y="288" type="line"/>
			<point x="-12" y="284" type="line"/>
		</contour>
	</outline>
</glyph>
<glyph name="newsheqel.S" format="2">
	<unicode hex="20AA"/>
	<advance width="472"/>
	<outline>
		<contour>
			<point x="42" y="0" type="line"/>
			<point x="72" y="0" type="line"/>
			<point x="72" y="518" type="line"/>
			<point x="178" y="518" type="line" smooth="yes"/>
			<point x="241" y="518"/>
			<point x="282" y="491"/>
			<point x="282" y="406" type="curve" smooth="yes"/>
			<point x="282" y="188" type="line"/>
			<point x="312" y="188" type="line"/>
			<point x="312" y="410" type="line" smooth="yes"/>
			<point x="312" y="510"/>
			<point x="263" y="546"/>
			<point x="186" y="546" type="curve" smooth="yes"/>
			<point x="42" y="546" type="line"/>
		</contour>
		<contour>
			<point x="160" y="0" type="line"/>
			<point x="294" y="0" type="line" smooth="yes"/>
			<point x="377" y="0"/>
			<point x="430" y="36"/>
			<point x="430" y="136" type="curve" smooth="yes"/>
			<point x="430" y="546" type="line"/>
			<point x="400" y="546" type="line"/>
			<point x="400" y="140" type="line" smooth="yes"/>
			<point x="400" y="55"/>
			<point x="356" y="28"/>
			<point x="286" y="28" type="curve" smooth="yes"/>
			<point x="190" y="28" type="line"/>
			<point x="190" y="358" type="line"/>
			<point x="160" y="358" type="line"/>
		</contour>
	</outline>
	<guideline x="236" y="272" angle="90" identifier="51LWLohGsJ"/>
</glyph>
<glyph name="dong.S" format="2">
	<unicode hex="20AB"/>
	<advance width="472"/>
	<outline>
		<contour>
			<point x="224" y="106" type="curve" smooth="yes"/>
			<point x="276" y="106"/>
			<point x="314" y="132"/>
			<point x="344" y="164" type="curve"/>
			<point x="348" y="164" type="line"/>
			<point x="352" y="116" type="line"/>
			<point x="374" y="116" type="line"/>
			<point x="374" y="652" type="line"/>
			<point x="346" y="652" type="line"/>
			<point x="346" y="516" type="line"/>
			<point x="350" y="408" type="line"/>
			<point x="314" y="440"/>
			<point x="284" y="460"/>
			<point x="232" y="460" type="curve" smooth="yes"/>
			<point x="147" y="460"/>
			<point x="72" y="393"/>
			<point x="72" y="288" type="curve" smooth="yes"/>
			<point x="72" y="170"/>
			<point x="131" y="106"/>
		</contour>
		<contour>
			<point x="226" y="138" type="curve" smooth="yes"/>
			<point x="145" y="138"/>
			<point x="100" y="198"/>
			<point x="100" y="290" type="curve" smooth="yes"/>
			<point x="100" y="365"/>
			<point x="157" y="428"/>
			<point x="230" y="428" type="curve" smooth="yes"/>
			<point x="276" y="428"/>
			<point x="305" y="415"/>
			<point x="346" y="378" type="curve"/>
			<point x="346" y="200" type="line"/>
			<point x="307" y="156"/>
			<point x="266" y="138"/>
		</contour>
		<contour>
			<point x="200" y="554" type="line"/>
			<point x="374" y="554" type="line"/>
			<point x="456" y="558" type="line"/>
			<point x="456" y="582" type="line"/>
			<point x="200" y="582" type="line"/>
		</contour>
		<contour>
			<point x="80" y="0" type="line"/>
			<point x="406" y="0" type="line"/>
			<point x="406" y="30" type="line"/>
			<point x="80" y="30" type="line"/>
		</contour>
	</outline>
</glyph>
<glyph name="rupeeindian.S" format="2">
	<unicode hex="20B9"/>
	<advance width="472"/>
	<outline>
		<contour>
			<point x="74" y="198" type="line"/>
			<point x="166" y="198" type="line" smooth="yes"/>
			<point x="292" y="198"/>
			<point x="376" y="260"/>
			<point x="376" y="384" type="curve" smooth="yes"/>
			<point x="376" y="446"/>
			<point x="340" y="496"/>
			<point x="290" y="518" type="curve"/>
			<point x="440" y="518" type="line"/>
			<point x="440" y="546" type="line"/>
			<point x="74" y="546" type="line"/>
			<point x="74" y="518" type="line"/>
			<point x="150" y="518" type="line" smooth="yes"/>
			<point x="272" y="518"/>
			<point x="344" y="480"/>
			<point x="344" y="382" type="curve" smooth="yes"/>
			<point x="344" y="274"/>
			<point x="272" y="226"/>
			<point x="150" y="226" type="curve" smooth="yes"/>
			<point x="74" y="226" type="line"/>
		</contour>
		<contour>
			<point x="74" y="382" type="line"/>
			<point x="440" y="382" type="line"/>
			<point x="440" y="410" type="line"/>
			<point x="140" y="410" type="line"/>
			<point x="74" y="406" type="line"/>
		</contour>
		<contour>
			<point x="362" y="0" type="line"/>
			<point x="400" y="0" type="line"/>
			<point x="202" y="216" type="line"/>
			<point x="176" y="200" type="line"/>
		</contour>
	</outline>
</glyph>
<glyph name="liraturkish.S" format="2">
	<unicode hex="20BA"/>
	<advance width="472"/>
	<outline>
		<contour>
			<point x="136" y="-12" type="line"/>
			<point x="288" y="-14"/>
			<point x="438" y="48"/>
			<point x="438" y="192" type="curve" smooth="yes"/>
			<point x="438" y="214"/>
			<point x="436" y="228"/>
			<point x="430" y="254" type="curve"/>
			<point x="404" y="244" type="line"/>
			<point x="410" y="222"/>
			<point x="410" y="206"/>
			<point x="410" y="190" type="curve" smooth="yes"/>
			<point x="410" y="72"/>
			<point x="267" y="18"/>
			<point x="164" y="18" type="curve"/>
			<point x="164" y="546" type="line"/>
			<point x="136" y="546" type="line"/>
		</contour>
		<contour>
			<point x="38" y="164" type="line"/>
			<point x="140" y="218" type="line"/>
			<point x="160" y="226" type="line"/>
			<point x="356" y="328" type="line"/>
			<point x="342" y="352" type="line"/>
			<point x="160" y="258" type="line"/>
			<point x="140" y="250" type="line"/>
			<point x="24" y="188" type="line"/>
		</contour>
		<contour>
			<point x="38" y="280" type="line"/>
			<point x="140" y="334" type="line"/>
			<point x="160" y="342" type="line"/>
			<point x="356" y="444" type="line"/>
			<point x="342" y="468" type="line"/>
			<point x="160" y="374" type="line"/>
			<point x="140" y="366" type="line"/>
			<point x="24" y="304" type="line"/>
		</contour>
	</outline>
</glyph>
<glyph name="ruble.S" format="2">
	<unicode hex="20BD"/>
	<advance width="472"/>
	<outline>
		<contour>
			<point x="138" y="0" type="line"/>
			<point x="166" y="0" type="line"/>
			<point x="166" y="228" type="line"/>
			<point x="218" y="228" type="line" smooth="yes"/>
			<point x="344" y="228"/>
			<point x="430" y="281"/>
			<point x="430" y="394" type="curve" smooth="yes"/>
			<point x="430" y="504"/>
			<point x="344" y="546"/>
			<point x="218" y="546" type="curve" smooth="yes"/>
			<point x="138" y="546" type="line"/>
		</contour>
		<contour>
			<point x="166" y="258" type="line"/>
			<point x="166" y="516" type="line"/>
			<point x="206" y="516" type="line" smooth="yes"/>
			<point x="330" y="516"/>
			<point x="398" y="486"/>
			<point x="398" y="394" type="curve" smooth="yes"/>
			<point x="398" y="301"/>
			<point x="330" y="258"/>
			<point x="206" y="258" type="curve" smooth="yes"/>
		</contour>
		<contour>
			<point x="56" y="122" type="line"/>
			<point x="376" y="122" type="line"/>
			<point x="376" y="150" type="line"/>
			<point x="138" y="150" type="line"/>
			<point x="56" y="146" type="line"/>
		</contour>
		<contour>
			<point x="56" y="228" type="line"/>
			<point x="156" y="228" type="line"/>
			<point x="156" y="258" type="line"/>
			<point x="138" y="258" type="line"/>
			<point x="56" y="254" type="line"/>
		</contour>
	</outline>
</glyph>
<glyph name="arrowup.S" format="2">
	<unicode hex="2191"/>
	<advance width="620"/>
	<outline>
		<contour>
			<point x="296" y="-4" type="line"/>
			<point x="324" y="-4" type="line"/>
			<point x="324" y="500" type="line"/>
			<point x="556" y="258" type="line"/>
			<point x="576" y="278" type="line"/>
			<point x="312" y="546" type="line"/>
			<point x="308" y="546" type="line"/>
			<point x="44" y="278" type="line"/>
			<point x="64" y="258" type="line"/>
			<point x="296" y="500" type="line"/>
		</contour>
	</outline>
</glyph>
<glyph name="arrowright.S" format="2">
	<unicode hex="2192"/>
	<advance width="620"/>
	<outline>
		<contour>
			<point x="320" y="6" type="line"/>
			<point x="588" y="270" type="line"/>
			<point x="588" y="274" type="line"/>
			<point x="320" y="538" type="line"/>
			<point x="300" y="518" type="line"/>
			<point x="542" y="286" type="line"/>
			<point x="38" y="286" type="line"/>
			<point x="38" y="258" type="line"/>
			<point x="542" y="258" type="line"/>
			<point x="300" y="26" type="line"/>
		</contour>
	</outline>
</glyph>
<glyph name="arrowdownright.S" format="2">
	<unicode hex="2198"/>
	<advance width="620"/>
	<outline>
		<contour>
			<point x="506" y="76" type="line"/>
			<point x="509" y="79" type="line"/>
			<point x="506" y="455" type="line"/>
			<point x="478" y="455" type="line"/>
			<point x="485" y="120" type="line"/>
			<point x="128" y="476" type="line"/>
			<point x="109" y="457" type="line"/>
			<point x="465" y="100" type="line"/>
			<point x="130" y="107" type="line"/>
			<point x="130" y="79" type="line"/>
		</contour>
	</outline>
</glyph>
<glyph name="arrowdbldown.S" format="2">
	<unicode hex="21D3"/>
	<advance width="620"/>
	<outline>
		<contour>
			<point x="308" y="-4" type="line"/>
			<point x="312" y="-4" type="line"/>
			<point x="576" y="264" type="line"/>
			<point x="556" y="284" type="line"/>
			<point x="312" y="30" type="line"/>
			<point x="308" y="30" type="line"/>
			<point x="64" y="284" type="line"/>
			<point x="44" y="264" type="line"/>
		</contour>
		<contour>
			<point x="196" y="112" type="line"/>
			<point x="224" y="112" type="line"/>
			<point x="224" y="546" type="line"/>
			<point x="196" y="546" type="line"/>
		</contour>
		<contour>
			<point x="396" y="112" type="line"/>
			<point x="424" y="112" type="line"/>
			<point x="424" y="546" type="line"/>
			<point x="396" y="546" type="line"/>
		</contour>
	</outline>
</glyph>
<glyph name="minus" format="2">
	<unicode hex="2212"/>
	<advance width="472"/>
	<outline>
		<contour>
			<point x="34" y="316" type="line"/>
			<point x="438" y="316" type="line"/>
			<point x="438" y="344" type="line"/>
			<point x="34" y="344" type="line"/>
		</contour>
	</outline>
</glyph>
<glyph name="bulletoperator" format="2">
	<unicode hex="2219"/>
	<advance width="472"/>
	<outline>
		<contour>
			<point x="236" y="284" type="curve" smooth="yes"/>
			<point x="254" y="284"/>
			<point x="272" y="298"/>
			<point x="272" y="322" type="curve" smooth="yes"/>
			<point x="272" y="348"/>
			<point x="254" y="362"/>
			<point x="236" y="362" type="curve" smooth="yes"/>
			<point x="218" y="362"/>
			<point x="200" y="348"/>
			<point x="200" y="322" type="curve" smooth="yes"/>
			<point x="200" y="298"/>
			<point x="218" y="284"/>
		</contour>
	</outline>
</glyph>
<glyph name="heVarikaJud" format="2">
	<unicode hex="FB1E"/>
	<outline>
		<contour>
			<point x="0" y="636" type="curve" smooth="yes"/>
			<point x="80" y="636"/>
			<point x="110" y="703"/>
			<point x="116" y="752" type="curve"/>
			<point x="90" y="756" type="line"/>
			<point x="84" y="712"/>
			<point x="56" y="662"/>
			<point x="0" y="662" type="curve" smooth="yes"/>
			<point x="-56" y="662"/>
			<point x="-84" y="712"/>
			<point x="-90" y="756" type="curve"/>
			<point x="-116" y="752" type="line"/>
			<point x="-110" y="703"/>
			<point x="-80" y="636"/>
		</contour>
	</outline>
	<anchor name="_aboveHE" x="0" y="590"/>
	<guideline x="0" y="629" angle="0" identifier="004QOttTDm"/>
</glyph>
<glyph name="heAlefWide" format="2">
	<unicode hex="FB21"/>
	<advance width="592"/>
	<outline>
		<contour>
			<point x="808" y="168" type="line"/>
			<point x="878" y="270"/>
			<point x="934" y="368"/>
			<point x="934" y="448" type="curve" smooth="yes"/>
			<point x="934" y="520"/>
			<point x="902" y="546"/>
			<point x="834" y="546" type="curve" smooth="yes"/>
			<point x="764" y="546" type="line"/>
			<point x="764" y="516" type="line"/>
			<point x="820" y="516" type="line" smooth="yes"/>
			<point x="880" y="516"/>
			<point x="906" y="501"/>
			<point x="906" y="450" type="curve" smooth="yes"/>
			<point x="906" y="382"/>
			<point x="862" y="282"/>
			<point x="788" y="184" type="curve"/>
		</contour>
		<contour>
			<point x="100" y="0" type="curve"/>
			<point x="132" y="0" type="line"/>
			<point x="130" y="22"/>
			<point x="128" y="43"/>
			<point x="128" y="62" type="curve" smooth="yes"/>
			<point x="128" y="214"/>
			<point x="156" y="304"/>
			<point x="202" y="398" type="curve"/>
			<point x="182" y="414" type="line"/>
			<point x="132" y="316"/>
			<point x="98" y="224"/>
			<point x="98" y="64" type="curve" smooth="yes"/>
			<point x="98" y="43"/>
			<point x="98" y="22"/>
		</contour>
		<contour>
			<point x="932" y="-4" type="curve"/>
			<point x="968" y="0" type="line"/>
			<point x="721" y="262"/>
			<point x="261" y="314"/>
			<point x="118" y="550" type="curve"/>
			<point x="82" y="546" type="line"/>
			<point x="250" y="292"/>
			<point x="710" y="235"/>
		</contour>
	</outline>
	<anchor name="aboveHE" x="265" y="590"/>
	<anchor name="belowPrimaryHE" x="300" y="-30"/>
	<anchor name="aboveLeftHE" x="-20" y="590"/>
	<anchor name="centerHE" x="245" y="115"/>
</glyph>
<glyph name="heDaletWide" format="2">
	<unicode hex="FB22"/>
	<advance width="1270"/>
	<outline>
		<contour>
			<point x="4" y="498" type="line"/>
			<point x="1196" y="498" type="line"/>
			<point x="1196" y="526" type="line"/>
			<point x="4" y="526" type="line"/>
		</contour>
		<contour>
			<point x="1072" y="0" type="line"/>
			<point x="1102" y="0" type="line"/>
			<point x="1102" y="498" type="line"/>
			<point x="1078" y="498" type="line"/>
			<point x="1072" y="472"/>
			<point x="1072" y="444"/>
			<point x="1072" y="408" type="curve" smooth="yes"/>
		</contour>
	</outline>
	<anchor name="aboveHE" x="610" y="590"/>
	<anchor name="belowSecondaryHE" x="1120" y="-30"/>
	<anchor name="centerHE" x="560" y="260"/>
	<anchor name="aboveLeftHE" x="0" y="590"/>
</glyph>
<glyph name="heHeWide" format="2">
	<unicode hex="FB23"/>
	<advance width="1420"/>
	<outline>
		<contour>
			<point x="1292" y="0" type="line"/>
			<point x="1320" y="0" type="line"/>
			<point x="1320" y="350" type="line" smooth="yes"/>
			<point x="1320" y="494"/>
			<point x="1251" y="546"/>
			<point x="1144" y="546" type="curve" smooth="yes"/>
			<point x="94" y="546" type="line"/>
			<point x="94" y="516" type="line"/>
			<point x="1138" y="516" type="line" smooth="yes"/>
			<point x="1232" y="516"/>
			<point x="1292" y="475"/>
			<point x="1292" y="344" type="curve" smooth="yes"/>
		</contour>
		<contour>
			<point x="114" y="0" type="line"/>
			<point x="142" y="0" type="line"/>
			<point x="142" y="336" type="line"/>
			<point x="120" y="336" type="line"/>
			<point x="114" y="310"/>
			<point x="114" y="282"/>
			<point x="114" y="246" type="curve" smooth="yes"/>
		</contour>
	</outline>
	<anchor name="aboveHE" x="700" y="590"/>
	<anchor name="belowPrimaryHE" x="710" y="-30"/>
	<anchor name="centerHE" x="710" y="260"/>
	<anchor name="aboveLeftHE" x="20" y="590"/>
</glyph>
<glyph name="heKafWide" format="2">
	<unicode hex="FB24"/>
	<advance width="1286"/>
	<outline>
		<contour>
			<point x="54" y="0" type="line"/>
			<point x="1158" y="0" type="line"/>
			<point x="1178" y="95"/>
			<point x="1190" y="183"/>
			<point x="1190" y="290" type="curve" smooth="yes"/>
			<point x="1190" y="463"/>
			<point x="1118" y="526"/>
			<point x="982" y="526" type="curve" smooth="yes"/>
			<point x="74" y="526" type="line"/>
			<point x="74" y="498" type="line"/>
			<point x="974" y="498" type="line" smooth="yes"/>
			<point x="1098" y="498"/>
			<point x="1160" y="448"/>
			<point x="1160" y="286" type="curve" smooth="yes"/>
			<point x="1160" y="189"/>
			<point x="1152" y="113"/>
			<point x="1134" y="28" type="curve"/>
			<point x="54" y="28" type="line"/>
		</contour>
	</outline>
	<anchor name="aboveHE" x="620" y="590"/>
	<anchor name="belowPrimaryHE" x="620" y="-30"/>
	<anchor name="centerHE" x="610" y="280"/>
	<anchor name="aboveLeftHE" x="30" y="590"/>
</glyph>
<glyph name="heMemFinWide" format="2">
	<unicode hex="FB26"/>
	<advance width="1428"/>
	<outline>
		<contour>
			<point x="132" y="0" type="line"/>
			<point x="1328" y="0" type="line"/>
			<point x="1328" y="350" type="line" smooth="yes"/>
			<point x="1328" y="494"/>
			<point x="1259" y="546"/>
			<point x="1152" y="546" type="curve" smooth="yes"/>
			<point x="34" y="546" type="line"/>
			<point x="34" y="516" type="line"/>
			<point x="1146" y="516" type="line" smooth="yes"/>
			<point x="1240" y="516"/>
			<point x="1300" y="475"/>
			<point x="1300" y="344" type="curve" smooth="yes"/>
			<point x="1300" y="28" type="line"/>
			<point x="132" y="28" type="line"/>
		</contour>
		<contour>
			<point x="114" y="0" type="line"/>
			<point x="142" y="0" type="line"/>
			<point x="142" y="516" type="line"/>
			<point x="120" y="516" type="line"/>
			<point x="114" y="490"/>
			<point x="114" y="462"/>
			<point x="114" y="426" type="curve" smooth="yes"/>
		</contour>
	</outline>
	<anchor name="aboveHE" x="720" y="590"/>
	<anchor name="belowPrimaryHE" x="730" y="-30"/>
	<anchor name="centerHE" x="730" y="280"/>
	<anchor name="aboveLeftHE" x="0" y="590"/>
</glyph>
<glyph name="heReshWide" format="2">
	<unicode hex="FB27"/>
	<advance width="1222"/>
	<outline>
		<contour>
			<point x="1092" y="0" type="line"/>
			<point x="1122" y="0" type="line"/>
			<point x="1122" y="340" type="line" smooth="yes"/>
			<point x="1122" y="477"/>
			<point x="1057" y="526"/>
			<point x="956" y="526" type="curve" smooth="yes"/>
			<point x="4" y="526" type="line"/>
			<point x="4" y="498" type="line"/>
			<point x="948" y="498" type="line" smooth="yes"/>
			<point x="1036" y="498"/>
			<point x="1092" y="459"/>
			<point x="1092" y="336" type="curve" smooth="yes"/>
		</contour>
	</outline>
	<anchor name="aboveHE" x="570" y="590"/>
	<anchor name="belowSecondaryHE" x="1140" y="-30"/>
	<anchor name="centerHE" x="550" y="260"/>
	<anchor name="aboveLeftHE" x="0" y="590"/>
</glyph>
<glyph name="heTavWide" format="2">
	<unicode hex="FB28"/>
	<advance width="1418"/>
	<outline>
		<contour>
			<point x="1288" y="0" type="line"/>
			<point x="1318" y="0" type="line"/>
			<point x="1318" y="330" type="line" smooth="yes"/>
			<point x="1318" y="474"/>
			<point x="1249" y="526"/>
			<point x="1142" y="526" type="curve" smooth="yes"/>
			<point x="74" y="526" type="line"/>
			<point x="74" y="498" type="line"/>
			<point x="1134" y="498" type="line" smooth="yes"/>
			<point x="1228" y="498"/>
			<point x="1288" y="457"/>
			<point x="1288" y="326" type="curve" smooth="yes"/>
		</contour>
		<contour>
			<point x="54" y="0" type="line"/>
			<point x="192" y="0" type="line"/>
			<point x="196" y="24" type="line"/>
			<point x="181" y="170"/>
			<point x="174" y="303"/>
			<point x="174" y="406" type="curve" smooth="yes"/>
			<point x="174" y="498" type="line"/>
			<point x="150" y="498" type="line"/>
			<point x="144" y="471"/>
			<point x="144" y="443"/>
			<point x="144" y="406" type="curve" smooth="yes"/>
			<point x="144" y="294"/>
			<point x="153" y="167"/>
			<point x="164" y="28" type="curve"/>
			<point x="54" y="28" type="line"/>
		</contour>
	</outline>
	<anchor name="aboveHE" x="730" y="590"/>
	<anchor name="belowPrimaryHE" x="750" y="-30"/>
	<anchor name="centerHE" x="750" y="260"/>
	<anchor name="aboveLeftHE" x="20" y="590"/>
	<guideline x="174" y="24" angle="0" identifier="8J5hh5zYyY"/>
</glyph>
<glyph name="ugAlpa" format="2">
	<unicode hex="10380"/>
	<advance width="658"/>
	<outline>
		<contour>
			<point x="26" y="238" type="line"/>
			<point x="74" y="260"/>
			<point x="226" y="264"/>
			<point x="452" y="264" type="curve"/>
			<point x="452" y="284" type="line"/>
			<point x="226" y="284"/>
			<point x="74" y="288"/>
			<point x="26" y="310" type="curve"/>
		</contour>
		<contour>
			<point x="302" y="238" type="line"/>
			<point x="340" y="258"/>
			<point x="458" y="264"/>
			<point x="632" y="264" type="curve"/>
			<point x="632" y="284" type="line"/>
			<point x="458" y="284"/>
			<point x="340" y="290"/>
			<point x="302" y="310" type="curve"/>
		</contour>
	</outline>
</glyph>
<glyph name="ugBeta" format="2">
	<unicode hex="10381"/>
	<advance width="548"/>
	<outline>
		<contour>
			<point x="141" y="223" type="curve"/>
			<point x="160" y="223" type="line"/>
			<point x="160" y="411"/>
			<point x="166" y="539"/>
			<point x="187" y="578" type="curve"/>
			<point x="115" y="578" type="line"/>
			<point x="135" y="539"/>
			<point x="141" y="411"/>
		</contour>
		<contour>
			<point x="417" y="223" type="curve"/>
			<point x="436" y="223" type="line"/>
			<point x="436" y="411"/>
			<point x="442" y="539"/>
			<point x="463" y="578" type="curve"/>
			<point x="391" y="578" type="line"/>
			<point x="411" y="539"/>
			<point x="417" y="411"/>
		</contour>
		<contour>
			<point x="26" y="192" type="line"/>
			<point x="73" y="213"/>
			<point x="226" y="230"/>
			<point x="453" y="218" type="curve"/>
			<point x="453" y="237" type="line"/>
			<point x="226" y="237"/>
			<point x="73" y="242"/>
			<point x="26" y="264" type="curve"/>
		</contour>
		<contour>
			<point x="302" y="192" type="line"/>
			<point x="339" y="212"/>
			<point x="458" y="218"/>
			<point x="633" y="218" type="curve"/>
			<point x="633" y="237" type="line"/>
			<point x="458" y="237"/>
			<point x="339" y="243"/>
			<point x="302" y="264" type="curve"/>
		</contour>
	</outline>
</glyph>
<glyph name="ugGamla" format="2">
	<unicode hex="10382"/>
	<advance width="268"/>
	<outline>
		<contour>
			<point x="122" y="-55" type="curve"/>
			<point x="146" y="-55" type="line"/>
			<point x="146" y="293"/>
			<point x="146" y="532"/>
			<point x="172" y="601" type="curve"/>
			<point x="96" y="601" type="line"/>
			<point x="122" y="532"/>
			<point x="122" y="293"/>
		</contour>
	</outline>
</glyph>
<glyph name="ugKha" format="2">
	<unicode hex="10383"/>
	<advance width="268"/>
	<outline>
		<contour>
			<point x="122" y="-55" type="curve"/>
			<point x="146" y="-55" type="line"/>
			<point x="146" y="76"/>
			<point x="155" y="165"/>
			<point x="173" y="193" type="curve"/>
			<point x="96" y="193" type="line"/>
			<point x="114" y="165"/>
			<point x="122" y="76"/>
		</contour>
		<contour>
			<point x="122" y="365" type="curve"/>
			<point x="146" y="365" type="line"/>
			<point x="146" y="490"/>
			<point x="155" y="574"/>
			<point x="173" y="601" type="curve"/>
			<point x="96" y="601" type="line"/>
			<point x="114" y="574"/>
			<point x="122" y="490"/>
		</contour>
		<contour>
			<point x="122" y="161" type="curve"/>
			<point x="146" y="161" type="line"/>
			<point x="146" y="286"/>
			<point x="155" y="370"/>
			<point x="173" y="397" type="curve"/>
			<point x="96" y="397" type="line"/>
			<point x="114" y="370"/>
			<point x="122" y="286"/>
		</contour>
	</outline>
</glyph>
<glyph name="ugDelta" format="2">
	<unicode hex="10384"/>
	<advance width="548"/>
	<outline>
		<contour>
			<point x="117" y="223" type="curve"/>
			<point x="136" y="223" type="line"/>
			<point x="136" y="411"/>
			<point x="142" y="539"/>
			<point x="163" y="578" type="curve"/>
			<point x="91" y="578" type="line"/>
			<point x="111" y="539"/>
			<point x="117" y="411"/>
		</contour>
		<contour>
			<point x="297" y="223" type="curve"/>
			<point x="316" y="223" type="line"/>
			<point x="316" y="411"/>
			<point x="322" y="539"/>
			<point x="343" y="578" type="curve"/>
			<point x="271" y="578" type="line"/>
			<point x="291" y="539"/>
			<point x="297" y="411"/>
		</contour>
		<contour>
			<point x="477" y="223" type="curve"/>
			<point x="496" y="223" type="line"/>
			<point x="496" y="411"/>
			<point x="502" y="539"/>
			<point x="523" y="578" type="curve"/>
			<point x="451" y="578" type="line"/>
			<point x="471" y="539"/>
			<point x="477" y="411"/>
		</contour>
		<contour>
			<point x="386" y="192" type="line"/>
			<point x="450" y="211"/>
			<point x="538" y="218"/>
			<point x="633" y="218" type="curve"/>
			<point x="633" y="237" type="line"/>
			<point x="538" y="237"/>
			<point x="450" y="245"/>
			<point x="386" y="264" type="curve"/>
		</contour>
		<contour>
			<point x="26" y="192" type="line"/>
			<point x="88" y="211"/>
			<point x="172" y="218"/>
			<point x="261" y="218" type="curve"/>
			<point x="261" y="237" type="line"/>
			<point x="172" y="237"/>
			<point x="88" y="245"/>
			<point x="26" y="264" type="curve"/>
		</contour>
		<contour>
			<point x="206" y="192" type="line"/>
			<point x="268" y="211"/>
			<point x="352" y="218"/>
			<point x="441" y="218" type="curve"/>
			<point x="441" y="237" type="line"/>
			<point x="352" y="237"/>
			<point x="268" y="245"/>
			<point x="206" y="264" type="curve"/>
		</contour>
	</outline>
</glyph>
<glyph name="ugHo" format="2">
	<unicode hex="10385"/>
	<advance width="548"/>
	<outline>
		<contour>
			<point x="26" y="238" type="line"/>
			<point x="93" y="264"/>
			<point x="312" y="264"/>
			<point x="633" y="264" type="curve"/>
			<point x="633" y="284" type="line"/>
			<point x="312" y="284"/>
			<point x="93" y="284"/>
			<point x="26" y="310" type="curve"/>
		</contour>
		<contour>
			<point x="26" y="502" type="line"/>
			<point x="93" y="528"/>
			<point x="312" y="528"/>
			<point x="633" y="528" type="curve"/>
			<point x="633" y="548" type="line"/>
			<point x="312" y="548"/>
			<point x="93" y="548"/>
			<point x="26" y="574" type="curve"/>
		</contour>
		<contour>
			<point x="26" y="-26" type="line"/>
			<point x="93" y="0"/>
			<point x="312" y="0"/>
			<point x="633" y="0" type="curve"/>
			<point x="633" y="20" type="line"/>
			<point x="312" y="20"/>
			<point x="93" y="20"/>
			<point x="26" y="46" type="curve"/>
		</contour>
	</outline>
</glyph>
<glyph name="ugWo" format="2">
	<unicode hex="10386"/>
	<advance width="728"/>
	<outline>
		<contour>
			<point x="26" y="334" type="line"/>
			<point x="54" y="350"/>
			<point x="138" y="356"/>
			<point x="262" y="356" type="curve"/>
			<point x="262" y="372" type="line"/>
			<point x="138" y="372"/>
			<point x="54" y="378"/>
			<point x="26" y="394" type="curve"/>
		</contour>
		<contour>
			<point x="276" y="244" type="line"/>
			<point x="306" y="261"/>
			<point x="398" y="266"/>
			<point x="532" y="266" type="curve"/>
			<point x="532" y="282" type="line"/>
			<point x="398" y="282"/>
			<point x="306" y="287"/>
			<point x="276" y="304" type="curve"/>
		</contour>
		<contour>
			<point x="26" y="154" type="line"/>
			<point x="54" y="170"/>
			<point x="138" y="176"/>
			<point x="262" y="176" type="curve"/>
			<point x="262" y="192" type="line"/>
			<point x="138" y="192"/>
			<point x="54" y="198"/>
			<point x="26" y="214" type="curve"/>
		</contour>
		<contour>
			<point x="456" y="244" type="line"/>
			<point x="486" y="261"/>
			<point x="578" y="266"/>
			<point x="712" y="266" type="curve"/>
			<point x="712" y="282" type="line"/>
			<point x="578" y="282"/>
			<point x="486" y="287"/>
			<point x="456" y="304" type="curve"/>
		</contour>
	</outline>
</glyph>
<glyph name="ugZeta" format="2">
	<unicode hex="10387"/>
	<advance width="268"/>
	<outline>
		<contour>
			<point x="122" y="196" type="curve"/>
			<point x="146" y="196" type="line"/>
			<point x="146" y="410"/>
			<point x="151" y="555"/>
			<point x="173" y="600" type="curve"/>
			<point x="96" y="600" type="line"/>
			<point x="118" y="555"/>
			<point x="122" y="410"/>
		</contour>
		<contour>
			<point x="122" y="-56" type="curve"/>
			<point x="146" y="-56" type="line"/>
			<point x="146" y="158"/>
			<point x="151" y="303"/>
			<point x="173" y="348" type="curve"/>
			<point x="96" y="348" type="line"/>
			<point x="118" y="303"/>
			<point x="122" y="158"/>
		</contour>
	</outline>
</glyph>
<glyph name="ugHota" format="2">
	<unicode hex="10388"/>
	<advance width="634"/>
	<outline>
		<contour>
			<point x="304" y="272" type="curve"/>
			<point x="328" y="272" type="line"/>
			<point x="328" y="446"/>
			<point x="334" y="562"/>
			<point x="355" y="600" type="curve"/>
			<point x="278" y="600" type="line"/>
			<point x="298" y="562"/>
			<point x="304" y="446"/>
		</contour>
		<contour>
			<point x="278" y="-58" type="curve"/>
			<point x="355" y="-58" type="line"/>
			<point x="334" y="-20"/>
			<point x="328" y="97"/>
			<point x="328" y="272" type="curve"/>
			<point x="304" y="272" type="line"/>
			<point x="304" y="97"/>
			<point x="298" y="-20"/>
		</contour>
		<contour>
			<point x="26" y="236" type="line"/>
			<point x="60" y="255"/>
			<point x="163" y="263"/>
			<point x="316" y="263" type="curve"/>
			<point x="316" y="282" type="line"/>
			<point x="163" y="282"/>
			<point x="60" y="289"/>
			<point x="26" y="308" type="curve"/>
		</contour>
		<contour>
			<point x="608" y="236" type="curve"/>
			<point x="608" y="308" type="line"/>
			<point x="575" y="289"/>
			<point x="471" y="282"/>
			<point x="316" y="282" type="curve"/>
			<point x="316" y="263" type="line"/>
			<point x="471" y="263"/>
			<point x="575" y="255"/>
		</contour>
	</outline>
</glyph>
<glyph name="ugTet" format="2">
	<unicode hex="10389"/>
	<advance width="528"/>
	<outline>
		<contour>
			<point x="304" y="176" type="curve"/>
			<point x="328" y="176" type="line"/>
			<point x="328" y="390"/>
			<point x="333" y="535"/>
			<point x="355" y="580" type="curve"/>
			<point x="278" y="580" type="line"/>
			<point x="300" y="535"/>
			<point x="304" y="390"/>
		</contour>
		<contour>
			<point x="26" y="217" type="line"/>
			<point x="60" y="236"/>
			<point x="163" y="244"/>
			<point x="316" y="244" type="curve"/>
			<point x="316" y="263" type="line"/>
			<point x="163" y="263"/>
			<point x="60" y="270"/>
			<point x="26" y="289" type="curve"/>
		</contour>
		<contour>
			<point x="609" y="217" type="curve"/>
			<point x="609" y="289" type="line"/>
			<point x="576" y="270"/>
			<point x="472" y="263"/>
			<point x="316" y="263" type="curve"/>
			<point x="316" y="244" type="line"/>
			<point x="472" y="244"/>
			<point x="576" y="236"/>
		</contour>
	</outline>
</glyph>
<glyph name="ugKaf" format="2">
	<unicode hex="1038B"/>
	<advance width="658"/>
	<outline>
		<contour>
			<point x="26" y="130" type="line"/>
			<point x="60" y="149"/>
			<point x="160" y="156"/>
			<point x="308" y="156" type="curve"/>
			<point x="308" y="176" type="line"/>
			<point x="160" y="176"/>
			<point x="60" y="183"/>
			<point x="26" y="202" type="curve"/>
		</contour>
		<contour>
			<point x="26" y="346" type="line"/>
			<point x="60" y="365"/>
			<point x="160" y="372"/>
			<point x="308" y="372" type="curve"/>
			<point x="308" y="392" type="line"/>
			<point x="160" y="392"/>
			<point x="60" y="399"/>
			<point x="26" y="418" type="curve"/>
		</contour>
		<contour>
			<point x="326" y="238" type="line"/>
			<point x="362" y="258"/>
			<point x="472" y="264"/>
			<point x="632" y="264" type="curve"/>
			<point x="632" y="284" type="line"/>
			<point x="472" y="284"/>
			<point x="362" y="290"/>
			<point x="326" y="310" type="curve"/>
		</contour>
	</outline>
</glyph>
<glyph name="ugShin" format="2">
	<unicode hex="1038C"/>
	<advance width="644"/>
	<outline>
		<contour>
			<point x="378" y="-55" type="curve"/>
			<point x="402" y="-55" type="line"/>
			<point x="576" y="245"/>
			<point x="694" y="457"/>
			<point x="753" y="502" type="curve"/>
			<point x="686" y="538" type="line"/>
			<point x="681" y="471"/>
			<point x="564" y="269"/>
			<point x="402" y="-4" type="curve"/>
			<point x="402" y="315"/>
			<point x="400" y="538"/>
			<point x="427" y="601" type="curve"/>
			<point x="352" y="601" type="line"/>
			<point x="379" y="538"/>
			<point x="378" y="315"/>
			<point x="378" y="-4" type="curve"/>
			<point x="216" y="269"/>
			<point x="98" y="471"/>
			<point x="93" y="538" type="curve"/>
			<point x="26" y="502" type="line"/>
			<point x="85" y="457"/>
			<point x="204" y="245"/>
		</contour>
	</outline>
</glyph>
<glyph name="ugLamda" format="2">
	<unicode hex="1038D"/>
	<advance width="564"/>
	<outline>
		<contour>
			<point x="122" y="-55" type="curve"/>
			<point x="146" y="-55" type="line"/>
			<point x="146" y="293"/>
			<point x="144" y="531"/>
			<point x="173" y="601" type="curve"/>
			<point x="96" y="601" type="line"/>
			<point x="125" y="531"/>
			<point x="122" y="293"/>
		</contour>
		<contour>
			<point x="314" y="-55" type="curve"/>
			<point x="338" y="-55" type="line"/>
			<point x="338" y="293"/>
			<point x="336" y="531"/>
			<point x="365" y="601" type="curve"/>
			<point x="288" y="601" type="line"/>
			<point x="317" y="531"/>
			<point x="314" y="293"/>
		</contour>
		<contour>
			<point x="506" y="-55" type="curve"/>
			<point x="530" y="-55" type="line"/>
			<point x="530" y="293"/>
			<point x="528" y="531"/>
			<point x="557" y="601" type="curve"/>
			<point x="480" y="601" type="line"/>
			<point x="509" y="531"/>
			<point x="506" y="293"/>
		</contour>
	</outline>
</glyph>
<glyph name="ugMem" format="2">
	<unicode hex="1038E"/>
	<advance width="494"/>
	<outline>
		<contour>
			<point x="26" y="254" type="line"/>
			<point x="63" y="262"/>
			<point x="193" y="266"/>
			<point x="382" y="266" type="curve"/>
			<point x="382" y="282" type="line"/>
			<point x="193" y="282"/>
			<point x="63" y="286"/>
			<point x="26" y="294" type="curve"/>
		</contour>
		<component base="ugGamla" xOffset="250"/>
	</outline>
</glyph>
<glyph name="ugDhal" format="2">
	<unicode hex="1038F"/>
	<advance width="604"/>
	<outline>
		<contour>
			<point x="352" y="-49" type="curve"/>
			<point x="376" y="-49" type="line"/>
			<point x="535" y="248"/>
			<point x="646" y="464"/>
			<point x="691" y="512" type="curve"/>
			<point x="646" y="538" type="line"/>
			<point x="626" y="474"/>
			<point x="517" y="266"/>
			<point x="364" y="-20" type="curve"/>
			<point x="215" y="258"/>
			<point x="101" y="473"/>
			<point x="82" y="538" type="curve"/>
			<point x="36" y="512" type="line"/>
			<point x="82" y="464"/>
			<point x="192" y="248"/>
		</contour>
	</outline>
</glyph>
<glyph name="ugNun" format="2">
	<unicode hex="10390"/>
	<advance width="548"/>
	<outline>
		<contour>
			<point x="326" y="254" type="line"/>
			<point x="348" y="259"/>
			<point x="423" y="266"/>
			<point x="532" y="266" type="curve"/>
			<point x="532" y="282" type="line"/>
			<point x="423" y="282"/>
			<point x="348" y="289"/>
			<point x="326" y="294" type="curve"/>
		</contour>
		<contour>
			<point x="26" y="254" type="line"/>
			<point x="47" y="259"/>
			<point x="118" y="266"/>
			<point x="222" y="266" type="curve"/>
			<point x="222" y="282" type="line"/>
			<point x="118" y="282"/>
			<point x="47" y="289"/>
			<point x="26" y="294" type="curve"/>
		</contour>
		<contour>
			<point x="176" y="254" type="line"/>
			<point x="197" y="259"/>
			<point x="268" y="266"/>
			<point x="372" y="266" type="curve"/>
			<point x="372" y="282" type="line"/>
			<point x="268" y="282"/>
			<point x="197" y="289"/>
			<point x="176" y="294" type="curve"/>
		</contour>
	</outline>
</glyph>
<glyph name="ugZu" format="2">
	<unicode hex="10391"/>
	<advance width="406"/>
	<outline>
		<contour>
			<point x="26" y="346" type="line"/>
			<point x="74" y="368"/>
			<point x="218" y="373"/>
			<point x="429" y="373" type="curve"/>
			<point x="429" y="392" type="line"/>
			<point x="218" y="392"/>
			<point x="74" y="397"/>
			<point x="26" y="418" type="curve"/>
		</contour>
		<contour>
			<point x="26" y="130" type="line"/>
			<point x="74" y="152"/>
			<point x="218" y="157"/>
			<point x="429" y="157" type="curve"/>
			<point x="429" y="176" type="line"/>
			<point x="218" y="176"/>
			<point x="74" y="181"/>
			<point x="26" y="202" type="curve"/>
		</contour>
		<contour>
			<point x="470" y="92" type="line"/>
			<point x="475" y="94" type="line"/>
			<point x="391" y="214"/>
			<point x="391" y="330"/>
			<point x="475" y="450" type="curve"/>
			<point x="470" y="452" type="line"/>
			<point x="278" y="272" type="line"/>
		</contour>
	</outline>
</glyph>
<glyph name="ugSamka" format="2">
	<unicode hex="10392"/>
	<advance width="404"/>
	<outline>
		<contour>
			<point x="118" y="290" type="curve"/>
			<point x="138" y="290" type="line"/>
			<point x="138" y="426"/>
			<point x="144" y="519"/>
			<point x="150" y="546" type="curve"/>
			<point x="106" y="546" type="line"/>
			<point x="112" y="519"/>
			<point x="118" y="426"/>
		</contour>
		<contour>
			<point x="198" y="0" type="curve"/>
			<point x="218" y="0" type="line"/>
			<point x="218" y="146"/>
			<point x="223" y="247"/>
			<point x="230" y="276" type="curve"/>
			<point x="186" y="276" type="line"/>
			<point x="193" y="247"/>
			<point x="198" y="146"/>
		</contour>
		<contour>
			<point x="278" y="290" type="curve"/>
			<point x="298" y="290" type="line"/>
			<point x="298" y="426"/>
			<point x="304" y="519"/>
			<point x="310" y="546" type="curve"/>
			<point x="266" y="546" type="line"/>
			<point x="272" y="519"/>
			<point x="278" y="426"/>
		</contour>
	</outline>
	<guideline x="208" y="272" angle="90" identifier="n037E1FBxO"/>
</glyph>
<glyph name="ugAin" format="2">
	<unicode hex="10393"/>
	<advance width="308"/>
	<outline>
		<contour>
			<point x="8" y="200" type="line"/>
			<point x="10" y="196" type="line"/>
			<point x="110" y="268"/>
			<point x="206" y="268"/>
			<point x="306" y="196" type="curve"/>
			<point x="308" y="200" type="line"/>
			<point x="158" y="368" type="line"/>
		</contour>
	</outline>
</glyph>
<glyph name="ugQopa" format="2">
	<unicode hex="10396"/>
	<advance width="428"/>
	<outline>
		<contour>
			<point x="26" y="254" type="line"/>
			<point x="48" y="259"/>
			<point x="126" y="266"/>
			<point x="218" y="266" type="curve"/>
			<point x="218" y="282" type="line"/>
			<point x="126" y="282"/>
			<point x="48" y="289"/>
			<point x="26" y="294" type="curve"/>
		</contour>
		<contour>
			<point x="412" y="254" type="curve"/>
			<point x="412" y="294" type="line"/>
			<point x="390" y="289"/>
			<point x="310" y="282"/>
			<point x="218" y="282" type="curve"/>
			<point x="218" y="266" type="line"/>
			<point x="310" y="266"/>
			<point x="390" y="259"/>
		</contour>
	</outline>
	<guideline x="218" y="273" angle="90" identifier="VFyrfB9JO7"/>
</glyph>
<glyph name="ugRasha" format="2">
	<unicode hex="10397"/>
	<advance width="728"/>
	<outline>
		<contour>
			<point x="26" y="344" type="line"/>
			<point x="49" y="350"/>
			<point x="124" y="356"/>
			<point x="232" y="356" type="curve"/>
			<point x="232" y="372" type="line"/>
			<point x="124" y="372"/>
			<point x="49" y="378"/>
			<point x="26" y="384" type="curve"/>
		</contour>
		<contour>
			<point x="206" y="344" type="line"/>
			<point x="231" y="350"/>
			<point x="313" y="356"/>
			<point x="432" y="356" type="curve"/>
			<point x="432" y="372" type="line"/>
			<point x="313" y="372"/>
			<point x="231" y="378"/>
			<point x="206" y="384" type="curve"/>
		</contour>
		<contour>
			<point x="26" y="164" type="line"/>
			<point x="49" y="170"/>
			<point x="124" y="176"/>
			<point x="232" y="176" type="curve"/>
			<point x="232" y="192" type="line"/>
			<point x="124" y="192"/>
			<point x="49" y="198"/>
			<point x="26" y="204" type="curve"/>
		</contour>
		<contour>
			<point x="436" y="254" type="line"/>
			<point x="466" y="262"/>
			<point x="568" y="266"/>
			<point x="712" y="266" type="curve"/>
			<point x="712" y="282" type="line"/>
			<point x="568" y="282"/>
			<point x="466" y="286"/>
			<point x="436" y="294" type="curve"/>
		</contour>
		<contour>
			<point x="206" y="164" type="line"/>
			<point x="231" y="170"/>
			<point x="313" y="176"/>
			<point x="432" y="176" type="curve"/>
			<point x="432" y="192" type="line"/>
			<point x="313" y="192"/>
			<point x="231" y="198"/>
			<point x="206" y="204" type="curve"/>
		</contour>
	</outline>
</glyph>
<glyph name="ugThanna" format="2">
	<unicode hex="10398"/>
	<advance width="244"/>
	<outline>
		<contour>
			<point x="122" y="65" type="curve"/>
			<point x="146" y="65" type="line"/>
			<point x="146" y="229"/>
			<point x="151" y="339"/>
			<point x="173" y="373" type="curve"/>
			<point x="96" y="373" type="line"/>
			<point x="118" y="339"/>
			<point x="122" y="229"/>
		</contour>
		<contour>
			<point x="96" y="173" type="curve"/>
			<point x="173" y="173" type="line"/>
			<point x="151" y="207"/>
			<point x="146" y="317"/>
			<point x="146" y="481" type="curve"/>
			<point x="122" y="481" type="line"/>
			<point x="122" y="317"/>
			<point x="118" y="207"/>
		</contour>
	</outline>
</glyph>
<glyph name="ugGhain" format="2">
	<unicode hex="10399"/>
	<advance width="548"/>
	<outline>
		<contour>
			<point x="26" y="238" type="line"/>
			<point x="93" y="264"/>
			<point x="312" y="264"/>
			<point x="633" y="264" type="curve"/>
			<point x="633" y="284" type="line"/>
			<point x="312" y="284"/>
			<point x="93" y="284"/>
			<point x="26" y="310" type="curve"/>
		</contour>
		<contour>
			<point x="213" y="-1" type="line"/>
			<point x="224" y="70"/>
			<point x="333" y="260"/>
			<point x="494" y="538" type="curve"/>
			<point x="477" y="548" type="line"/>
			<point x="316" y="269"/>
			<point x="207" y="80"/>
			<point x="151" y="35" type="curve"/>
		</contour>
	</outline>
</glyph>
<glyph name="ugTo" format="2">
	<unicode hex="1039A"/>
	<advance width="658"/>
	<outline>
		<contour>
			<point x="26" y="238" type="line"/>
			<point x="93" y="264"/>
			<point x="312" y="264"/>
			<point x="633" y="264" type="curve"/>
			<point x="633" y="284" type="line"/>
			<point x="312" y="284"/>
			<point x="93" y="284"/>
			<point x="26" y="310" type="curve"/>
		</contour>
	</outline>
</glyph>
<glyph name="ugI" format="2">
	<unicode hex="1039B"/>
	<advance width="548"/>
	<outline>
		<contour>
			<point x="120" y="-202" type="curve"/>
			<point x="136" y="-202" type="line"/>
			<point x="136" y="-96"/>
			<point x="144" y="-24"/>
			<point x="160" y="0" type="curve"/>
			<point x="96" y="0" type="line"/>
			<point x="112" y="-24"/>
			<point x="120" y="-96"/>
		</contour>
		<component base="ugHo"/>
	</outline>
</glyph>
<glyph name="ugU" format="2">
	<unicode hex="1039C"/>
	<advance width="548"/>
	<outline>
		<contour>
			<point x="117" y="223" type="curve"/>
			<point x="136" y="223" type="line"/>
			<point x="136" y="411"/>
			<point x="142" y="539"/>
			<point x="163" y="578" type="curve"/>
			<point x="91" y="578" type="line"/>
			<point x="111" y="539"/>
			<point x="117" y="411"/>
		</contour>
		<contour>
			<point x="297" y="223" type="curve"/>
			<point x="316" y="223" type="line"/>
			<point x="316" y="411"/>
			<point x="322" y="539"/>
			<point x="343" y="578" type="curve"/>
			<point x="271" y="578" type="line"/>
			<point x="291" y="539"/>
			<point x="297" y="411"/>
		</contour>
		<contour>
			<point x="477" y="223" type="curve"/>
			<point x="496" y="223" type="line"/>
			<point x="496" y="411"/>
			<point x="502" y="539"/>
			<point x="523" y="578" type="curve"/>
			<point x="451" y="578" type="line"/>
			<point x="471" y="539"/>
			<point x="477" y="411"/>
		</contour>
		<contour>
			<point x="26" y="192" type="line"/>
			<point x="93" y="218"/>
			<point x="312" y="218"/>
			<point x="633" y="218" type="curve"/>
			<point x="633" y="237" type="line"/>
			<point x="312" y="237"/>
			<point x="93" y="237"/>
			<point x="26" y="264" type="curve"/>
		</contour>
	</outline>
</glyph>
<glyph name="ugSsu" format="2">
	<unicode hex="1039D"/>
	<advance width="524"/>
	<outline>
		<contour>
			<point x="106" y="420" type="line"/>
			<point x="109" y="434"/>
			<point x="118" y="479"/>
			<point x="118" y="546" type="curve"/>
			<point x="138" y="546" type="line"/>
			<point x="138" y="479"/>
			<point x="147" y="434"/>
			<point x="150" y="420" type="curve"/>
		</contour>
		<contour>
			<point x="106" y="0" type="line"/>
			<point x="109" y="13"/>
			<point x="118" y="55"/>
			<point x="118" y="116" type="curve"/>
			<point x="138" y="116" type="line"/>
			<point x="138" y="55"/>
			<point x="147" y="13"/>
			<point x="150" y="0" type="curve"/>
		</contour>
		<contour>
			<point x="106" y="210" type="line"/>
			<point x="109" y="223"/>
			<point x="118" y="265"/>
			<point x="118" y="326" type="curve"/>
			<point x="138" y="326" type="line"/>
			<point x="138" y="265"/>
			<point x="147" y="223"/>
			<point x="150" y="210" type="curve"/>
		</contour>
		<contour>
			<point x="386" y="420" type="curve"/>
			<point x="430" y="420" type="line"/>
			<point x="427" y="434"/>
			<point x="418" y="479"/>
			<point x="418" y="546" type="curve"/>
			<point x="398" y="546" type="line"/>
			<point x="398" y="479"/>
			<point x="389" y="434"/>
		</contour>
		<contour>
			<point x="386" y="0" type="curve"/>
			<point x="430" y="0" type="line"/>
			<point x="427" y="13"/>
			<point x="418" y="55"/>
			<point x="418" y="116" type="curve"/>
			<point x="398" y="116" type="line"/>
			<point x="398" y="55"/>
			<point x="389" y="13"/>
		</contour>
		<contour>
			<point x="386" y="210" type="curve"/>
			<point x="430" y="210" type="line"/>
			<point x="427" y="223"/>
			<point x="418" y="265"/>
			<point x="418" y="326" type="curve"/>
			<point x="398" y="326" type="line"/>
			<point x="398" y="265"/>
			<point x="389" y="223"/>
		</contour>
		<component base="ugGamla" xOffset="140"/>
	</outline>
</glyph>
<glyph name="aiAleph" format="2">
	<unicode hex="10840"/>
	<advance width="592"/>
	<outline>
		<contour>
			<point x="532" y="-4" type="curve"/>
			<point x="568" y="0" type="line"/>
			<point x="402" y="176"/>
			<point x="228" y="368"/>
			<point x="118" y="550" type="curve"/>
			<point x="82" y="546" type="line"/>
			<point x="208" y="356"/>
			<point x="382" y="158"/>
		</contour>
		<contour>
			<point x="54" y="0" type="line"/>
			<point x="122" y="0" type="line" smooth="yes"/>
			<point x="356" y="0"/>
			<point x="492" y="228"/>
			<point x="492" y="482" type="curve" smooth="yes"/>
			<point x="492" y="503"/>
			<point x="492" y="524"/>
			<point x="490" y="546" type="curve"/>
			<point x="458" y="546" type="line"/>
			<point x="460" y="524"/>
			<point x="462" y="503"/>
			<point x="462" y="478" type="curve" smooth="yes"/>
			<point x="462" y="236"/>
			<point x="340" y="28"/>
			<point x="118" y="28" type="curve" smooth="yes"/>
			<point x="54" y="28" type="line"/>
		</contour>
	</outline>
</glyph>
<glyph name="aiGimel" format="2">
	<unicode hex="10842"/>
	<advance width="524"/>
	<outline>
		<contour>
			<point x="162" y="300"/>
			<point x="78" y="130"/>
			<point x="0" y="0" type="curve"/>
			<point x="36" y="0" type="line"/>
			<point x="100" y="112"/>
			<point x="190" y="293"/>
			<point x="250" y="456" type="curve"/>
			<point x="230" y="484" type="line"/>
		</contour>
		<contour>
			<point x="452" y="-4" type="curve"/>
			<point x="486" y="0" type="line"/>
			<point x="434" y="336"/>
			<point x="282" y="497"/>
			<point x="112" y="558" type="curve"/>
			<point x="90" y="536" type="line"/>
			<point x="270" y="468"/>
			<point x="410" y="306"/>
		</contour>
	</outline>
</glyph>
<glyph name="aiZayin" format="2">
	<unicode hex="10846"/>
	<advance width="244"/>
	<outline>
		<contour>
			<point x="114" y="0" type="line"/>
			<point x="142" y="0" type="line"/>
			<point x="142" y="516" type="line"/>
			<point x="114" y="516" type="line"/>
		</contour>
	</outline>
</glyph>
<glyph name="aiTeth" format="2">
	<unicode hex="10848"/>
	<advance width="580"/>
	<outline>
		<contour>
			<point x="292" y="-12" type="curve" smooth="yes"/>
			<point x="418" y="-12"/>
			<point x="522" y="122"/>
			<point x="522" y="310" type="curve" smooth="yes"/>
			<point x="522" y="422"/>
			<point x="478" y="458"/>
			<point x="392" y="458" type="curve" smooth="yes"/>
			<point x="312" y="458"/>
			<point x="194" y="434"/>
			<point x="92" y="416" type="curve"/>
			<point x="92" y="386" type="line"/>
			<point x="192" y="406"/>
			<point x="318" y="428"/>
			<point x="388" y="428" type="curve" smooth="yes"/>
			<point x="462" y="428"/>
			<point x="496" y="402"/>
			<point x="496" y="310" type="curve" smooth="yes"/>
			<point x="496" y="140"/>
			<point x="400" y="20"/>
			<point x="292" y="20" type="curve" smooth="yes"/>
			<point x="213" y="20"/>
			<point x="102" y="116"/>
			<point x="102" y="356" type="curve" smooth="yes"/>
			<point x="102" y="459"/>
			<point x="108" y="586"/>
			<point x="134" y="736" type="curve"/>
			<point x="102" y="732" type="line"/>
			<point x="80" y="588"/>
			<point x="74" y="465"/>
			<point x="74" y="362" type="curve" smooth="yes"/>
			<point x="74" y="88"/>
			<point x="196" y="-12"/>
		</contour>
	</outline>
</glyph>
<glyph name="aiYodh" format="2">
	<unicode hex="10849"/>
	<advance width="552"/>
	<outline>
		<contour>
			<point x="64" y="210" type="curve"/>
			<point x="98" y="214" type="line"/>
			<point x="98" y="445"/>
			<point x="161" y="526"/>
			<point x="276" y="526" type="curve" smooth="yes"/>
			<point x="392" y="526"/>
			<point x="454" y="443"/>
			<point x="454" y="210" type="curve"/>
			<point x="488" y="214" type="line"/>
			<point x="485" y="471"/>
			<point x="410" y="558"/>
			<point x="276" y="558" type="curve" smooth="yes"/>
			<point x="142" y="558"/>
			<point x="67" y="470"/>
		</contour>
		<contour>
			<point x="92" y="228" type="line"/>
			<point x="92" y="392"/>
			<point x="138" y="602"/>
			<point x="174" y="736" type="curve"/>
			<point x="142" y="732" type="line"/>
			<point x="110" y="605"/>
			<point x="64" y="393"/>
			<point x="64" y="230" type="curve"/>
		</contour>
	</outline>
</glyph>
<glyph name="aiKaph" format="2">
	<unicode hex="1084A"/>
	<advance width="448"/>
	<outline>
		<contour>
			<point x="8" y="-212" type="line"/>
			<point x="234" y="-22"/>
			<point x="348" y="180"/>
			<point x="348" y="546" type="curve"/>
			<point x="322" y="546" type="line"/>
			<point x="319" y="405"/>
			<point x="264" y="336"/>
			<point x="202" y="336" type="curve" smooth="yes"/>
			<point x="132" y="336"/>
			<point x="94" y="398"/>
			<point x="94" y="550" type="curve"/>
			<point x="64" y="546" type="line"/>
			<point x="65" y="370"/>
			<point x="117" y="302"/>
			<point x="202" y="302" type="curve" smooth="yes"/>
			<point x="261" y="302"/>
			<point x="310" y="352"/>
			<point x="330" y="420" type="curve"/>
			<point x="318" y="422" type="line"/>
			<point x="305" y="186"/>
			<point x="190" y="-28"/>
			<point x="-10" y="-188" type="curve"/>
		</contour>
	</outline>
</glyph>
<glyph name="aiLamedh" format="2">
	<unicode hex="1084B"/>
	<advance width="482"/>
	<outline>
		<contour>
			<point x="276" y="-12" type="curve" smooth="yes"/>
			<point x="330" y="-12"/>
			<point x="385" y="-8"/>
			<point x="438" y="0" type="curve"/>
			<point x="438" y="30" type="line"/>
			<point x="387" y="22"/>
			<point x="334" y="18"/>
			<point x="282" y="18" type="curve" smooth="yes"/>
			<point x="153" y="18"/>
			<point x="102" y="80"/>
			<point x="102" y="228" type="curve" smooth="yes"/>
			<point x="102" y="392"/>
			<point x="148" y="602"/>
			<point x="184" y="736" type="curve"/>
			<point x="152" y="732" type="line"/>
			<point x="120" y="605"/>
			<point x="74" y="393"/>
			<point x="74" y="230" type="curve" smooth="yes"/>
			<point x="74" y="74"/>
			<point x="124" y="-12"/>
		</contour>
	</outline>
</glyph>
<glyph name="aiNun" format="2">
	<unicode hex="1084D"/>
	<advance width="266"/>
	<outline>
		<contour>
			<point x="-56" y="-212" type="line"/>
			<point x="117" y="-45"/>
			<point x="206" y="148"/>
			<point x="208" y="276" type="curve" smooth="yes"/>
			<point x="212" y="509"/>
			<point x="66" y="474"/>
			<point x="66" y="592" type="curve" smooth="yes"/>
			<point x="66" y="640"/>
			<point x="76" y="686"/>
			<point x="90" y="736" type="curve"/>
			<point x="60" y="732" type="line"/>
			<point x="44" y="676"/>
			<point x="36" y="632"/>
			<point x="36" y="584" type="curve" smooth="yes"/>
			<point x="36" y="458"/>
			<point x="180" y="507"/>
			<point x="180" y="274" type="curve" smooth="yes"/>
			<point x="180" y="162"/>
			<point x="100" y="-21"/>
			<point x="-74" y="-188" type="curve"/>
		</contour>
	</outline>
</glyph>
<glyph name="aiAyin" format="2">
	<unicode hex="1084F"/>
	<advance width="546"/>
	<outline>
		<contour>
			<point x="276" y="202" type="curve" smooth="yes"/>
			<point x="410" y="202"/>
			<point x="485" y="289"/>
			<point x="488" y="546" type="curve"/>
			<point x="460" y="546" type="line"/>
			<point x="460" y="315"/>
			<point x="395" y="234"/>
			<point x="276" y="234" type="curve" smooth="yes"/>
			<point x="157" y="234"/>
			<point x="94" y="317"/>
			<point x="94" y="550" type="curve"/>
			<point x="64" y="546" type="line"/>
			<point x="67" y="289"/>
			<point x="142" y="202"/>
		</contour>
	</outline>
</glyph>
<glyph name="aiSadhe" format="2">
	<unicode hex="10851"/>
	<advance width="508"/>
	<outline>
		<contour>
			<point x="220" y="88" type="line"/>
			<point x="370" y="188"/>
			<point x="450" y="295"/>
			<point x="450" y="396" type="curve" smooth="yes"/>
			<point x="450" y="500"/>
			<point x="410" y="546"/>
			<point x="288" y="546" type="curve" smooth="yes"/>
			<point x="138" y="546" type="line"/>
			<point x="124" y="516" type="line"/>
			<point x="282" y="516" type="line" smooth="yes"/>
			<point x="382" y="516"/>
			<point x="422" y="490"/>
			<point x="422" y="398" type="curve" smooth="yes"/>
			<point x="422" y="302"/>
			<point x="351" y="211"/>
			<point x="204" y="112" type="curve"/>
		</contour>
		<contour>
			<point x="114" y="-202" type="line"/>
			<point x="142" y="-202" type="line"/>
			<point x="142" y="736" type="line"/>
			<point x="114" y="736" type="line"/>
		</contour>
	</outline>
</glyph>
<glyph name="aiQoph" format="2">
	<unicode hex="10852"/>
	<advance width="548"/>
	<outline>
		<contour>
			<point x="260" y="88" type="line"/>
			<point x="410" y="188"/>
			<point x="490" y="295"/>
			<point x="490" y="396" type="curve" smooth="yes"/>
			<point x="490" y="500"/>
			<point x="450" y="546"/>
			<point x="328" y="546" type="curve" smooth="yes"/>
			<point x="118" y="546" type="line" smooth="yes"/>
			<point x="76" y="546"/>
			<point x="66" y="560"/>
			<point x="66" y="592" type="curve" smooth="yes"/>
			<point x="66" y="640"/>
			<point x="76" y="686"/>
			<point x="90" y="736" type="curve"/>
			<point x="60" y="732" type="line"/>
			<point x="44" y="676"/>
			<point x="36" y="632"/>
			<point x="36" y="584" type="curve" smooth="yes"/>
			<point x="36" y="536"/>
			<point x="62" y="516"/>
			<point x="104" y="516" type="curve" smooth="yes"/>
			<point x="322" y="516" type="line" smooth="yes"/>
			<point x="422" y="516"/>
			<point x="462" y="490"/>
			<point x="462" y="398" type="curve" smooth="yes"/>
			<point x="462" y="302"/>
			<point x="391" y="211"/>
			<point x="244" y="112" type="curve"/>
		</contour>
		<contour>
			<point x="154" y="-200" type="line"/>
			<point x="182" y="-200" type="line"/>
			<point x="182" y="546" type="line"/>
			<point x="160" y="546" type="line"/>
			<point x="154" y="520"/>
			<point x="154" y="492"/>
			<point x="154" y="456" type="curve" smooth="yes"/>
		</contour>
	</outline>
</glyph>
<glyph name="aiTaw" format="2">
	<unicode hex="10855"/>
	<advance width="630"/>
	<outline>
		<contour>
			<point x="500" y="0" type="line"/>
			<point x="528" y="0" type="line"/>
			<point x="528" y="350" type="line" smooth="yes"/>
			<point x="528" y="494"/>
			<point x="459" y="546"/>
			<point x="352" y="546" type="curve" smooth="yes"/>
			<point x="124" y="546" type="line"/>
			<point x="124" y="516" type="line"/>
			<point x="346" y="516" type="line" smooth="yes"/>
			<point x="440" y="516"/>
			<point x="500" y="475"/>
			<point x="500" y="344" type="curve" smooth="yes"/>
		</contour>
		<contour>
			<point x="114" y="-202" type="line"/>
			<point x="142" y="-202" type="line"/>
			<point x="142" y="736" type="line"/>
			<point x="114" y="736" type="line"/>
		</contour>
	</outline>
</glyph>
<glyph name="pmAleph" format="2">
	<unicode hex="10860"/>
	<advance width="592"/>
	<outline>
		<contour>
			<point x="198" y="0" type="curve" smooth="yes"/>
			<point x="268" y="0" type="line"/>
			<point x="268" y="30" type="line"/>
			<point x="212" y="30" type="line" smooth="yes"/>
			<point x="152" y="30"/>
			<point x="126" y="45"/>
			<point x="126" y="96" type="curve" smooth="yes"/>
			<point x="126" y="164"/>
			<point x="170" y="264"/>
			<point x="244" y="362" type="curve"/>
			<point x="224" y="378" type="line"/>
			<point x="154" y="276"/>
			<point x="98" y="178"/>
			<point x="98" y="98" type="curve" smooth="yes"/>
			<point x="98" y="26"/>
			<point x="130" y="0"/>
		</contour>
		<contour>
			<point x="450" y="132" type="line"/>
			<point x="500" y="230"/>
			<point x="534" y="322"/>
			<point x="534" y="482" type="curve" smooth="yes"/>
			<point x="534" y="503"/>
			<point x="534" y="524"/>
			<point x="532" y="546" type="curve"/>
			<point x="500" y="546" type="line"/>
			<point x="502" y="524"/>
			<point x="504" y="503"/>
			<point x="504" y="484" type="curve" smooth="yes"/>
			<point x="504" y="332"/>
			<point x="476" y="242"/>
			<point x="430" y="148" type="curve"/>
		</contour>
		<contour>
			<point x="532" y="-4" type="curve"/>
			<point x="568" y="0" type="line"/>
			<point x="402" y="176"/>
			<point x="228" y="368"/>
			<point x="118" y="550" type="curve"/>
			<point x="82" y="546" type="line"/>
			<point x="208" y="356"/>
			<point x="382" y="158"/>
		</contour>
	</outline>
</glyph>
<glyph name="pmHeth" format="2">
	<unicode hex="10867"/>
	<advance width="630"/>
	<outline>
		<contour>
			<point x="500" y="0" type="line"/>
			<point x="528" y="0" type="line"/>
			<point x="528" y="350" type="line" smooth="yes"/>
			<point x="528" y="494"/>
			<point x="459" y="546"/>
			<point x="352" y="546" type="curve" smooth="yes"/>
			<point x="124" y="546" type="line"/>
			<point x="124" y="516" type="line"/>
			<point x="346" y="516" type="line" smooth="yes"/>
			<point x="440" y="516"/>
			<point x="500" y="475"/>
			<point x="500" y="344" type="curve" smooth="yes"/>
		</contour>
		<contour>
			<point x="114" y="0" type="line"/>
			<point x="142" y="0" type="line"/>
			<point x="142" y="720" type="line"/>
			<point x="114" y="720" type="line"/>
		</contour>
	</outline>
</glyph>
<glyph name="pmTeth" format="2">
	<unicode hex="10868"/>
	<advance width="584"/>
	<outline>
		<contour>
			<point x="296" y="-12" type="curve" smooth="yes"/>
			<point x="422" y="-12"/>
			<point x="526" y="128"/>
			<point x="526" y="390" type="curve" smooth="yes"/>
			<point x="526" y="508"/>
			<point x="482" y="546"/>
			<point x="396" y="546" type="curve" smooth="yes"/>
			<point x="286" y="546" type="line"/>
			<point x="286" y="516" type="line"/>
			<point x="392" y="516" type="line" smooth="yes"/>
			<point x="466" y="516"/>
			<point x="500" y="488"/>
			<point x="500" y="390" type="curve" smooth="yes"/>
			<point x="500" y="146"/>
			<point x="404" y="20"/>
			<point x="296" y="20" type="curve" smooth="yes"/>
			<point x="168" y="20"/>
			<point x="98" y="158"/>
			<point x="98" y="550" type="curve"/>
			<point x="64" y="546" type="line"/>
			<point x="70" y="128"/>
			<point x="150" y="-12"/>
		</contour>
	</outline>
</glyph>
<glyph name="pmKaph" format="2">
	<unicode hex="1086A"/>
	<advance width="516"/>
	<outline>
		<contour>
			<point x="54" y="0" type="line"/>
			<point x="398" y="0" type="line"/>
			<point x="410" y="98"/>
			<point x="420" y="190"/>
			<point x="420" y="300" type="curve" smooth="yes"/>
			<point x="420" y="480"/>
			<point x="348" y="546"/>
			<point x="212" y="546" type="curve" smooth="yes"/>
			<point x="74" y="546" type="line"/>
			<point x="74" y="516" type="line"/>
			<point x="206" y="516" type="line" smooth="yes"/>
			<point x="330" y="516"/>
			<point x="392" y="464"/>
			<point x="392" y="294" type="curve" smooth="yes"/>
			<point x="392" y="195"/>
			<point x="384" y="115"/>
			<point x="373" y="28" type="curve"/>
			<point x="54" y="28" type="line"/>
		</contour>
	</outline>
</glyph>
<glyph name="pmAyin" format="2">
	<unicode hex="10870"/>
	<advance width="552"/>
	<outline>
		<contour>
			<point x="276" y="202" type="curve" smooth="yes"/>
			<point x="410" y="202"/>
			<point x="485" y="290"/>
			<point x="488" y="550" type="curve"/>
			<point x="454" y="546" type="line"/>
			<point x="454" y="315"/>
			<point x="391" y="234"/>
			<point x="276" y="234" type="curve" smooth="yes"/>
			<point x="160" y="234"/>
			<point x="98" y="317"/>
			<point x="98" y="550" type="curve"/>
			<point x="64" y="546" type="line"/>
			<point x="67" y="289"/>
			<point x="142" y="202"/>
		</contour>
	</outline>
</glyph>
<glyph name="hrBeth" format="2">
	<unicode hex="108E1"/>
	<advance width="522"/>
	<outline>
		<contour>
			<point x="54" y="0" type="line"/>
			<point x="478" y="0" type="line"/>
			<point x="478" y="28" type="line"/>
			<point x="54" y="28" type="line"/>
		</contour>
		<contour>
			<point x="412" y="0" type="line"/>
			<point x="416" y="108"/>
			<point x="422" y="190"/>
			<point x="422" y="300" type="curve" smooth="yes"/>
			<point x="422" y="480"/>
			<point x="351" y="546"/>
			<point x="214" y="546" type="curve" smooth="yes"/>
			<point x="74" y="546" type="line"/>
			<point x="74" y="516" type="line"/>
			<point x="208" y="516" type="line" smooth="yes"/>
			<point x="332" y="516"/>
			<point x="394" y="464"/>
			<point x="394" y="294" type="curve" smooth="yes"/>
			<point x="394" y="195"/>
			<point x="391" y="124"/>
			<point x="386" y="28" type="curve"/>
		</contour>
	</outline>
</glyph>
<glyph name="hrGimel" format="2">
	<unicode hex="108E2"/>
	<advance width="502"/>
	<outline>
		<contour>
			<point x="54" y="0" type="line"/>
			<point x="452" y="0" type="line"/>
			<point x="458" y="24" type="line"/>
			<point x="274" y="190"/>
			<point x="132" y="364"/>
			<point x="58" y="550" type="curve"/>
			<point x="24" y="546" type="line"/>
			<point x="102" y="358"/>
			<point x="238" y="182"/>
			<point x="432" y="10" type="curve"/>
			<point x="444" y="28" type="line"/>
			<point x="54" y="28" type="line"/>
		</contour>
	</outline>
	<anchor name="aboveHE" x="240" y="590"/>
	<anchor name="belowPrimaryHE" x="240" y="-30"/>
	<anchor name="centerHE" x="130" y="160"/>
	<anchor name="aboveLeftHE" x="0" y="590"/>
</glyph>
<glyph name="hrDalethResh" format="2">
	<unicode hex="108E3"/>
	<advance width="470"/>
	<outline>
		<contour>
			<point x="4" y="516" type="line"/>
			<point x="426" y="516" type="line"/>
			<point x="426" y="546" type="line"/>
			<point x="4" y="546" type="line"/>
		</contour>
		<contour>
			<point x="304" y="0" type="line"/>
			<point x="332" y="0" type="line"/>
			<point x="332" y="516" type="line"/>
			<point x="310" y="516" type="line"/>
			<point x="304" y="490"/>
			<point x="304" y="462"/>
			<point x="304" y="426" type="curve" smooth="yes"/>
		</contour>
	</outline>
</glyph>
<glyph name="hrWaw" format="2">
	<unicode hex="108E5"/>
	<advance width="584"/>
	<outline>
		<contour>
			<point x="296" y="-12" type="line"/>
			<point x="422" y="-12"/>
			<point x="526" y="128"/>
			<point x="526" y="390" type="curve" smooth="yes"/>
			<point x="526" y="508"/>
			<point x="482" y="546"/>
			<point x="396" y="546" type="curve" smooth="yes"/>
			<point x="286" y="546" type="line"/>
			<point x="286" y="516" type="line"/>
			<point x="392" y="516" type="line" smooth="yes"/>
			<point x="466" y="516"/>
			<point x="500" y="488"/>
			<point x="500" y="390" type="curve" smooth="yes"/>
			<point x="500" y="146"/>
			<point x="404" y="20"/>
			<point x="296" y="20" type="curve"/>
		</contour>
	</outline>
	<anchor name="aboveHE" x="315" y="590"/>
	<anchor name="belowPrimaryHE" x="325" y="-30"/>
	<anchor name="centerHE" x="315" y="300"/>
	<anchor name="aboveLeftHE" x="0" y="590"/>
</glyph>
<glyph name="hrZayn" format="2">
	<unicode hex="108E6"/>
	<advance width="272"/>
	<outline>
		<contour>
			<point x="4" y="516" type="line"/>
			<point x="228" y="516" type="line"/>
			<point x="228" y="546" type="line"/>
			<point x="4" y="546" type="line"/>
		</contour>
		<contour>
			<point x="134" y="0" type="curve"/>
			<point x="162" y="0" type="line"/>
			<point x="142" y="184"/>
			<point x="128" y="344"/>
			<point x="128" y="426" type="curve" smooth="yes"/>
			<point x="128" y="456"/>
			<point x="128" y="486"/>
			<point x="134" y="516" type="curve"/>
			<point x="112" y="516" type="line"/>
			<point x="104" y="488"/>
			<point x="100" y="462"/>
			<point x="100" y="426" type="curve" smooth="yes"/>
			<point x="100" y="340"/>
			<point x="116" y="176"/>
		</contour>
	</outline>
</glyph>
<glyph name="hrTeth" format="2">
	<unicode hex="108E8"/>
	<advance width="556"/>
	<outline>
		<contour>
			<point x="310" y="-12" type="curve" smooth="yes"/>
			<point x="419" y="-12"/>
			<point x="500" y="54"/>
			<point x="500" y="166" type="curve" smooth="yes"/>
			<point x="500" y="274"/>
			<point x="438" y="306"/>
			<point x="360" y="306" type="curve" smooth="yes"/>
			<point x="330" y="306" type="line"/>
			<point x="330" y="274" type="line"/>
			<point x="356" y="274" type="line" smooth="yes"/>
			<point x="420" y="274"/>
			<point x="472" y="250"/>
			<point x="472" y="166" type="curve" smooth="yes"/>
			<point x="472" y="70"/>
			<point x="406" y="18"/>
			<point x="312" y="18" type="curve" smooth="yes"/>
			<point x="190" y="18"/>
			<point x="124" y="68"/>
			<point x="124" y="232" type="curve" smooth="yes"/>
			<point x="124" y="378"/>
			<point x="190" y="518"/>
			<point x="502" y="518" type="curve"/>
			<point x="502" y="546" type="line"/>
			<point x="166" y="546"/>
			<point x="96" y="394"/>
			<point x="96" y="226" type="curve" smooth="yes"/>
			<point x="96" y="50"/>
			<point x="172" y="-12"/>
		</contour>
	</outline>
</glyph>
<glyph name="pnAlf" format="2">
	<unicode hex="10900"/>
	<advance width="546"/>
	<outline>
		<contour>
			<point x="84" y="320" type="line"/>
			<point x="466" y="320" type="line"/>
			<point x="466" y="348" type="line"/>
			<point x="84" y="348" type="line"/>
		</contour>
		<contour>
			<point x="278" y="-12" type="curve" smooth="yes"/>
			<point x="412" y="-12"/>
			<point x="485" y="152"/>
			<point x="488" y="510" type="curve"/>
			<point x="460" y="510" type="line"/>
			<point x="460" y="181"/>
			<point x="399" y="22"/>
			<point x="278" y="22" type="curve" smooth="yes"/>
			<point x="156" y="22"/>
			<point x="94" y="180"/>
			<point x="94" y="514" type="curve"/>
			<point x="64" y="510" type="line"/>
			<point x="67" y="149"/>
			<point x="146" y="-12"/>
		</contour>
	</outline>
	<anchor name="aboveHE" x="270" y="590"/>
	<anchor name="belowPrimaryHE" x="280" y="-30"/>
	<anchor name="centerHE" x="280" y="200"/>
	<anchor name="aboveLeftHE" x="20" y="590"/>
</glyph>
<glyph name="pnGaml" format="2">
	<unicode hex="10902"/>
	<advance width="410"/>
	<outline>
		<contour>
			<point x="282" y="0" type="line"/>
			<point x="310" y="0" type="line"/>
			<point x="310" y="546" type="line"/>
			<point x="20" y="546" type="line"/>
			<point x="20" y="516" type="line"/>
			<point x="282" y="516" type="line"/>
		</contour>
	</outline>
</glyph>
<glyph name="pnDelt" format="2">
	<unicode hex="10903"/>
	<advance width="534"/>
	<outline>
		<contour>
			<point x="338" y="-12" type="curve" smooth="yes"/>
			<point x="434" y="-12" type="line"/>
			<point x="434" y="546" type="line"/>
			<point x="338" y="546" type="line" smooth="yes"/>
			<point x="145" y="546"/>
			<point x="56" y="437"/>
			<point x="56" y="270" type="curve" smooth="yes"/>
			<point x="56" y="102"/>
			<point x="145" y="-12"/>
		</contour>
		<contour>
			<point x="342" y="18" type="line" smooth="yes"/>
			<point x="162" y="18"/>
			<point x="86" y="114"/>
			<point x="86" y="270" type="curve" smooth="yes"/>
			<point x="86" y="413"/>
			<point x="162" y="516"/>
			<point x="342" y="516" type="curve" smooth="yes"/>
			<point x="406" y="516" type="line"/>
			<point x="406" y="18" type="line"/>
		</contour>
		<contour>
			<point x="406" y="-202" type="line"/>
			<point x="434" y="-202" type="line"/>
			<point x="434" y="18" type="line"/>
			<point x="406" y="18" type="line"/>
		</contour>
	</outline>
</glyph>
<glyph name="pnWau" format="2">
	<unicode hex="10905"/>
	<advance width="546"/>
	<outline>
		<contour>
			<point x="266" y="-202" type="line"/>
			<point x="294" y="-202" type="line"/>
			<point x="294" y="206" type="line"/>
			<point x="266" y="206" type="line"/>
		</contour>
		<contour>
			<point x="278" y="202" type="curve" smooth="yes"/>
			<point x="412" y="202"/>
			<point x="486" y="310"/>
			<point x="488" y="546" type="curve"/>
			<point x="460" y="546" type="line"/>
			<point x="460" y="336"/>
			<point x="399" y="234"/>
			<point x="278" y="234" type="curve" smooth="yes"/>
			<point x="156" y="234"/>
			<point x="94" y="336"/>
			<point x="94" y="550" type="curve"/>
			<point x="64" y="546" type="line"/>
			<point x="66" y="308"/>
			<point x="146" y="202"/>
		</contour>
	</outline>
</glyph>
<glyph name="pnZai" format="2">
	<unicode hex="10906"/>
	<advance width="472"/>
	<outline>
		<contour>
			<point x="52" y="0" type="line"/>
			<point x="420" y="0" type="line"/>
			<point x="420" y="30" type="line"/>
			<point x="94" y="30" type="line"/>
			<point x="416" y="528" type="line"/>
			<point x="416" y="546" type="line"/>
			<point x="80" y="546" type="line"/>
			<point x="80" y="516" type="line"/>
			<point x="374" y="516" type="line"/>
			<point x="52" y="18" type="line"/>
		</contour>
	</outline>
</glyph>
<glyph name="pnHet" format="2">
	<unicode hex="10907"/>
	<advance width="592"/>
	<outline>
		<contour>
			<point x="464" y="-202" type="line"/>
			<point x="492" y="-202" type="line"/>
			<point x="492" y="546" type="line"/>
			<point x="128" y="546" type="line"/>
			<point x="128" y="736" type="line"/>
			<point x="100" y="736" type="line"/>
			<point x="100" y="0" type="line"/>
			<point x="464" y="0" type="line"/>
		</contour>
		<contour>
			<point x="128" y="306" type="line"/>
			<point x="128" y="516" type="line"/>
			<point x="464" y="516" type="line"/>
			<point x="464" y="306" type="line"/>
		</contour>
		<contour>
			<point x="128" y="30" type="line"/>
			<point x="128" y="276" type="line"/>
			<point x="464" y="276" type="line"/>
			<point x="464" y="30" type="line"/>
		</contour>
	</outline>
</glyph>
<glyph name="pnTet" format="2">
	<unicode hex="10908"/>
	<advance width="568"/>
	<outline>
		<contour>
			<point x="270" y="88" type="line"/>
			<point x="298" y="88" type="line"/>
			<point x="298" y="264" type="line"/>
			<point x="446" y="264" type="line"/>
			<point x="446" y="296" type="line"/>
			<point x="298" y="296" type="line"/>
			<point x="298" y="450" type="line"/>
			<point x="270" y="450" type="line"/>
			<point x="270" y="296" type="line"/>
			<point x="122" y="296" type="line"/>
			<point x="122" y="264" type="line"/>
			<point x="270" y="264" type="line"/>
		</contour>
		<contour>
			<point x="284" y="-12" type="curve" smooth="yes"/>
			<point x="416" y="-12"/>
			<point x="512" y="100"/>
			<point x="512" y="274" type="curve" smooth="yes"/>
			<point x="512" y="448"/>
			<point x="416" y="558"/>
			<point x="284" y="558" type="curve" smooth="yes"/>
			<point x="151" y="558"/>
			<point x="56" y="448"/>
			<point x="56" y="274" type="curve" smooth="yes"/>
			<point x="56" y="100"/>
			<point x="151" y="-12"/>
		</contour>
		<contour>
			<point x="284" y="22" type="curve" smooth="yes"/>
			<point x="165" y="22"/>
			<point x="86" y="119"/>
			<point x="86" y="274" type="curve" smooth="yes"/>
			<point x="86" y="429"/>
			<point x="165" y="524"/>
			<point x="284" y="524" type="curve" smooth="yes"/>
			<point x="402" y="524"/>
			<point x="482" y="429"/>
			<point x="482" y="274" type="curve" smooth="yes"/>
			<point x="482" y="119"/>
			<point x="402" y="22"/>
		</contour>
	</outline>
</glyph>
<glyph name="pnYod" format="2">
	<unicode hex="10909"/>
	<advance width="472"/>
	<outline>
		<contour>
			<point x="94" y="274" type="line"/>
			<point x="266" y="274" type="line"/>
			<point x="266" y="306" type="line"/>
			<point x="94" y="306" type="line"/>
		</contour>
		<contour>
			<point x="92" y="0" type="line"/>
			<point x="420" y="0" type="line"/>
			<point x="420" y="30" type="line"/>
			<point x="132" y="30" type="line"/>
			<point x="416" y="528" type="line"/>
			<point x="416" y="546" type="line"/>
			<point x="80" y="546" type="line"/>
			<point x="80" y="516" type="line"/>
			<point x="376" y="516" type="line"/>
			<point x="92" y="18" type="line"/>
		</contour>
	</outline>
	<guideline x="81" y="390" angle="90" identifier="OeErDl4cQZ"/>
</glyph>
<glyph name="pnKaf" format="2">
	<unicode hex="1090A"/>
	<advance width="556"/>
	<outline>
		<contour>
			<point x="394" y="-120" type="line"/>
			<point x="394" y="546" type="line"/>
			<point x="366" y="546" type="line"/>
			<point x="366" y="-120" type="line"/>
		</contour>
		<contour>
			<point x="62" y="172" type="line"/>
			<point x="362" y="360" type="line"/>
			<point x="62" y="550" type="line"/>
			<point x="62" y="518" type="line"/>
			<point x="316" y="362" type="line"/>
			<point x="316" y="358" type="line"/>
			<point x="62" y="204" type="line"/>
		</contour>
	</outline>
</glyph>
<glyph name="pnMem" format="2">
	<unicode hex="1090C"/>
	<advance width="818"/>
	<outline>
		<contour>
			<point x="688" y="-202" type="line"/>
			<point x="718" y="-202" type="line"/>
			<point x="718" y="546" type="line"/>
			<point x="692" y="546" type="line"/>
			<point x="688" y="347"/>
			<point x="623" y="236"/>
			<point x="532" y="236" type="curve" smooth="yes"/>
			<point x="453" y="236"/>
			<point x="406" y="337"/>
			<point x="406" y="550" type="curve"/>
			<point x="378" y="546" type="line"/>
			<point x="374" y="347"/>
			<point x="309" y="236"/>
			<point x="218" y="236" type="curve" smooth="yes"/>
			<point x="137" y="236"/>
			<point x="94" y="327"/>
			<point x="94" y="550" type="curve"/>
			<point x="64" y="546" type="line"/>
			<point x="66" y="298"/>
			<point x="123" y="202"/>
			<point x="218" y="202" type="curve" smooth="yes"/>
			<point x="298" y="202"/>
			<point x="372" y="275"/>
			<point x="394" y="432" type="curve"/>
			<point x="386" y="432" type="line"/>
			<point x="400" y="276"/>
			<point x="458" y="202"/>
			<point x="532" y="202" type="curve" smooth="yes"/>
			<point x="614" y="202"/>
			<point x="672" y="278"/>
			<point x="698" y="378" type="curve"/>
			<point x="694" y="380" type="line"/>
			<point x="690" y="302"/>
			<point x="688" y="256"/>
			<point x="688" y="208" type="curve" smooth="yes"/>
		</contour>
	</outline>
</glyph>
<glyph name="pnNun" format="2">
	<unicode hex="1090D"/>
	<advance width="548"/>
	<outline>
		<contour>
			<point x="418" y="-202" type="line"/>
			<point x="448" y="-202" type="line"/>
			<point x="448" y="546" type="line"/>
			<point x="410" y="552" type="line"/>
			<point x="192" y="288" type="line"/>
			<point x="130" y="208" type="line"/>
			<point x="126" y="208" type="line"/>
			<point x="128" y="257"/>
			<point x="130" y="305"/>
			<point x="130" y="354" type="curve" smooth="yes"/>
			<point x="130" y="546" type="line"/>
			<point x="100" y="546" type="line"/>
			<point x="100" y="182" type="line"/>
			<point x="138" y="176" type="line"/>
			<point x="356" y="438" type="line"/>
			<point x="418" y="520" type="line"/>
			<point x="422" y="520" type="line"/>
			<point x="420" y="471"/>
			<point x="418" y="426"/>
			<point x="418" y="378" type="curve" smooth="yes"/>
		</contour>
	</outline>
</glyph>
<glyph name="pnSemk" format="2">
	<unicode hex="1090E"/>
	<advance width="468"/>
	<outline>
		<contour>
			<point x="220" y="-120" type="line"/>
			<point x="248" y="-120" type="line"/>
			<point x="248" y="176" type="line"/>
			<point x="438" y="176" type="line"/>
			<point x="438" y="206" type="line"/>
			<point x="248" y="206" type="line"/>
			<point x="248" y="350" type="line"/>
			<point x="406" y="350" type="line"/>
			<point x="406" y="380" type="line"/>
			<point x="248" y="380" type="line"/>
			<point x="248" y="516" type="line"/>
			<point x="438" y="516" type="line"/>
			<point x="438" y="546" type="line"/>
			<point x="30" y="546" type="line"/>
			<point x="30" y="516" type="line"/>
			<point x="220" y="516" type="line"/>
			<point x="220" y="380" type="line"/>
			<point x="62" y="380" type="line"/>
			<point x="62" y="350" type="line"/>
			<point x="220" y="350" type="line"/>
			<point x="220" y="206" type="line"/>
			<point x="30" y="206" type="line"/>
			<point x="30" y="176" type="line"/>
			<point x="220" y="176" type="line"/>
		</contour>
	</outline>
</glyph>
<glyph name="pnAin" format="2">
	<unicode hex="1090F"/>
	<advance width="568"/>
	<outline>
		<contour>
			<point x="284" y="100" type="curve" smooth="yes"/>
			<point x="416" y="100"/>
			<point x="512" y="190"/>
			<point x="512" y="330" type="curve" smooth="yes"/>
			<point x="512" y="470"/>
			<point x="416" y="558"/>
			<point x="284" y="558" type="curve" smooth="yes"/>
			<point x="151" y="558"/>
			<point x="56" y="470"/>
			<point x="56" y="330" type="curve" smooth="yes"/>
			<point x="56" y="190"/>
			<point x="151" y="100"/>
		</contour>
		<contour>
			<point x="284" y="134" type="curve" smooth="yes"/>
			<point x="165" y="134"/>
			<point x="86" y="210"/>
			<point x="86" y="330" type="curve" smooth="yes"/>
			<point x="86" y="450"/>
			<point x="165" y="524"/>
			<point x="284" y="524" type="curve" smooth="yes"/>
			<point x="402" y="524"/>
			<point x="482" y="450"/>
			<point x="482" y="330" type="curve" smooth="yes"/>
			<point x="482" y="210"/>
			<point x="402" y="134"/>
		</contour>
	</outline>
</glyph>
<glyph name="pnPe" format="2">
	<unicode hex="10910"/>
	<advance width="534"/>
	<outline>
		<contour>
			<point x="408" y="-202" type="line"/>
			<point x="436" y="-202" type="line"/>
			<point x="436" y="354" type="line" smooth="yes"/>
			<point x="436" y="514"/>
			<point x="343" y="558"/>
			<point x="252" y="558" type="curve" smooth="yes"/>
			<point x="146" y="558"/>
			<point x="68" y="474"/>
			<point x="64" y="314" type="curve"/>
			<point x="92" y="314" type="line"/>
			<point x="95" y="449"/>
			<point x="161" y="524"/>
			<point x="252" y="524" type="curve" smooth="yes"/>
			<point x="334" y="524"/>
			<point x="408" y="485"/>
			<point x="408" y="348" type="curve" smooth="yes"/>
		</contour>
	</outline>
</glyph>
<glyph name="pnSade" format="2">
	<unicode hex="10911"/>
	<advance width="818"/>
	<outline>
		<contour>
			<point x="100" y="-202" type="line"/>
			<point x="130" y="-202" type="line"/>
			<point x="130" y="208" type="line" smooth="yes"/>
			<point x="130" y="248"/>
			<point x="130" y="284"/>
			<point x="125" y="352" type="curve"/>
			<point x="120" y="351" type="line"/>
			<point x="144" y="254"/>
			<point x="186" y="202"/>
			<point x="258" y="202" type="curve" smooth="yes"/>
			<point x="338" y="202"/>
			<point x="412" y="275"/>
			<point x="434" y="432" type="curve"/>
			<point x="426" y="432" type="line"/>
			<point x="440" y="276"/>
			<point x="498" y="202"/>
			<point x="572" y="202" type="curve" smooth="yes"/>
			<point x="678" y="202"/>
			<point x="754" y="320"/>
			<point x="760" y="546" type="curve"/>
			<point x="732" y="546" type="line"/>
			<point x="728" y="347"/>
			<point x="663" y="236"/>
			<point x="572" y="236" type="curve" smooth="yes"/>
			<point x="493" y="236"/>
			<point x="446" y="337"/>
			<point x="446" y="550" type="curve"/>
			<point x="418" y="546" type="line"/>
			<point x="414" y="347"/>
			<point x="349" y="236"/>
			<point x="258" y="236" type="curve" smooth="yes"/>
			<point x="173" y="236"/>
			<point x="128" y="327"/>
			<point x="128" y="550" type="curve"/>
			<point x="100" y="546" type="line"/>
		</contour>
	</outline>
</glyph>
<glyph name="pnQof" format="2">
	<unicode hex="10912"/>
	<advance width="584"/>
	<outline>
		<contour>
			<point x="278" y="-202" type="line"/>
			<point x="306" y="-202" type="line"/>
			<point x="306" y="538" type="line"/>
			<point x="278" y="538" type="line"/>
		</contour>
		<contour>
			<point x="292" y="100" type="curve" smooth="yes"/>
			<point x="429" y="100"/>
			<point x="528" y="190"/>
			<point x="528" y="330" type="curve" smooth="yes"/>
			<point x="528" y="469"/>
			<point x="429" y="558"/>
			<point x="292" y="558" type="curve" smooth="yes"/>
			<point x="154" y="558"/>
			<point x="56" y="469"/>
			<point x="56" y="330" type="curve" smooth="yes"/>
			<point x="56" y="190"/>
			<point x="154" y="100"/>
		</contour>
		<contour>
			<point x="292" y="134" type="curve" smooth="yes"/>
			<point x="168" y="134"/>
			<point x="86" y="210"/>
			<point x="86" y="330" type="curve" smooth="yes"/>
			<point x="86" y="450"/>
			<point x="168" y="524"/>
			<point x="292" y="524" type="curve" smooth="yes"/>
			<point x="415" y="524"/>
			<point x="498" y="450"/>
			<point x="498" y="330" type="curve" smooth="yes"/>
			<point x="498" y="210"/>
			<point x="415" y="134"/>
		</contour>
	</outline>
</glyph>
<glyph name="pnRosh" format="2">
	<unicode hex="10913"/>
	<advance width="512"/>
	<outline>
		<contour>
			<point x="384" y="-202" type="line"/>
			<point x="412" y="-202" type="line"/>
			<point x="412" y="546" type="line"/>
			<point x="300" y="546" type="line" smooth="yes"/>
			<point x="152" y="546"/>
			<point x="56" y="473"/>
			<point x="56" y="328" type="curve" smooth="yes"/>
			<point x="56" y="172"/>
			<point x="164" y="112"/>
			<point x="304" y="112" type="curve" smooth="yes"/>
			<point x="384" y="112" type="line"/>
		</contour>
		<contour>
			<point x="314" y="142" type="line" smooth="yes"/>
			<point x="172" y="142"/>
			<point x="84" y="196"/>
			<point x="84" y="330" type="curve" smooth="yes"/>
			<point x="84" y="457"/>
			<point x="170" y="516"/>
			<point x="310" y="516" type="curve" smooth="yes"/>
			<point x="384" y="516" type="line"/>
			<point x="384" y="142" type="line"/>
		</contour>
	</outline>
	<guideline x="257" y="328" angle="0" identifier="THAaYjCj1f"/>
</glyph>
<glyph name="pnShin" format="2">
	<unicode hex="10914"/>
	<advance width="644"/>
	<outline>
		<contour>
			<point x="308" y="116" type="line"/>
			<point x="336" y="116" type="line"/>
			<point x="336" y="546" type="line"/>
			<point x="308" y="546" type="line"/>
		</contour>
		<contour>
			<point x="320" y="104" type="curve" smooth="yes"/>
			<point x="324" y="104" type="line" smooth="yes"/>
			<point x="434" y="104"/>
			<point x="546" y="161"/>
			<point x="546" y="368" type="curve" smooth="yes"/>
			<point x="546" y="546" type="line"/>
			<point x="520" y="546" type="line"/>
			<point x="520" y="374" type="line" smooth="yes"/>
			<point x="520" y="187"/>
			<point x="427" y="134"/>
			<point x="324" y="134" type="curve" smooth="yes"/>
			<point x="320" y="134" type="line" smooth="yes"/>
			<point x="217" y="134"/>
			<point x="126" y="187"/>
			<point x="126" y="374" type="curve" smooth="yes"/>
			<point x="126" y="546" type="line"/>
			<point x="98" y="546" type="line"/>
			<point x="98" y="368" type="line" smooth="yes"/>
			<point x="98" y="161"/>
			<point x="209" y="104"/>
		</contour>
	</outline>
</glyph>
<glyph name="pnTau" format="2">
	<unicode hex="10915"/>
	<advance width="496"/>
	<outline>
		<contour>
			<point x="234" y="0" type="line"/>
			<point x="262" y="0" type="line"/>
			<point x="262" y="264" type="line"/>
			<point x="476" y="264" type="line"/>
			<point x="476" y="294" type="line"/>
			<point x="262" y="294" type="line"/>
			<point x="262" y="546" type="line"/>
			<point x="234" y="546" type="line"/>
			<point x="234" y="294" type="line"/>
			<point x="20" y="294" type="line"/>
			<point x="20" y="264" type="line"/>
			<point x="234" y="264" type="line"/>
		</contour>
	</outline>
</glyph>
<glyph name="pnhyphen" format="2">
	<unicode hex="1091F"/>
	<advance width="208"/>
	<outline>
		<contour>
			<point x="104" y="244" type="curve" smooth="yes"/>
			<point x="122" y="244"/>
			<point x="140" y="258"/>
			<point x="140" y="282" type="curve" smooth="yes"/>
			<point x="140" y="308"/>
			<point x="122" y="322"/>
			<point x="104" y="322" type="curve" smooth="yes"/>
			<point x="86" y="322"/>
			<point x="68" y="308"/>
			<point x="68" y="282" type="curve" smooth="yes"/>
			<point x="68" y="258"/>
			<point x="86" y="244"/>
		</contour>
	</outline>
</glyph>
<glyph name="u13076" format="2">
	<unicode hex="13076"/>
	<advance width="690"/>
	<outline>
		<contour>
			<point x="129" y="-4" type="line"/>
			<point x="75" y="9" type="line"/>
			<point x="104" y="126" type="line"/>
			<point x="89" y="173" type="line"/>
			<point x="102" y="188" type="line"/>
			<point x="91" y="194" type="line"/>
			<point x="99" y="234" type="line"/>
			<point x="59" y="234" type="line"/>
			<point x="49" y="253" type="line"/>
			<point x="108" y="428" type="line"/>
			<point x="104" y="437" type="line"/>
			<point x="120" y="517"/>
			<point x="155" y="562"/>
			<point name="inserted" x="201" y="586" type="curve" smooth="yes"/>
			<point x="247" y="609"/>
			<point x="298" y="615"/>
			<point x="350" y="615" type="curve"/>
			<point x="496" y="615"/>
			<point x="577" y="561"/>
			<point name="inserted" x="615" y="467" type="curve" smooth="yes"/>
			<point name="inserted" x="632" y="420"/>
			<point x="642" y="367"/>
			<point x="642" y="305" type="curve"/>
			<point x="642" y="68" type="line"/>
			<point x="539" y="68" type="line"/>
			<point x="539" y="0" type="line"/>
			<point x="280" y="0" type="line"/>
			<point x="267" y="82" type="line"/>
			<point x="190" y="85" type="line"/>
		</contour>
		<contour>
			<point x="521" y="85" type="curve"/>
			<point x="622" y="85" type="line"/>
			<point x="622" y="305" type="line"/>
			<point x="622" y="384"/>
			<point x="608" y="455"/>
			<point name="inserted" x="568" y="510" type="curve" smooth="yes"/>
			<point x="528" y="564"/>
			<point x="461" y="597"/>
			<point x="352" y="597" type="curve"/>
			<point x="258" y="597"/>
			<point x="202" y="580"/>
			<point name="inserted" x="167" y="536" type="curve" smooth="yes"/>
			<point name="inserted" x="148" y="513"/>
			<point x="136" y="484"/>
			<point x="125" y="445" type="curve"/>
			<point x="272" y="445" type="line"/>
			<point x="331" y="445"/>
			<point x="351" y="430"/>
			<point x="351" y="375" type="curve"/>
			<point x="351" y="337" type="line"/>
			<point x="373" y="337" type="line"/>
			<point x="373" y="359" type="line"/>
			<point x="373" y="398"/>
			<point x="388" y="418"/>
			<point x="435" y="418" type="curve"/>
			<point x="483" y="418"/>
			<point x="495" y="383"/>
			<point x="495" y="348" type="curve"/>
			<point x="495" y="293"/>
			<point x="469" y="262"/>
			<point x="425" y="215" type="curve"/>
			<point x="446" y="125"/>
			<point x="496" y="85"/>
		</contour>
		<contour>
			<point x="122" y="17" type="line"/>
			<point x="181" y="104" type="line"/>
			<point x="283" y="99" type="line"/>
			<point x="296" y="17" type="line"/>
			<point x="520" y="17" type="line"/>
			<point x="520" y="68" type="line"/>
			<point x="484" y="68"/>
			<point x="436" y="113"/>
			<point x="409" y="205" type="curve"/>
			<point name="inserted" x="405" y="201"/>
			<point x="399" y="199"/>
			<point x="391" y="199" type="curve"/>
			<point x="370" y="199"/>
			<point x="349" y="206"/>
			<point x="349" y="244" type="curve"/>
			<point x="349" y="273" type="line"/>
			<point x="368" y="273" type="line"/>
			<point x="368" y="236" type="line"/>
			<point x="368" y="223"/>
			<point x="378" y="217"/>
			<point x="391" y="217" type="curve"/>
			<point x="403" y="217"/>
			<point x="423" y="236"/>
			<point name="inserted" x="442" y="261" type="curve" smooth="yes"/>
			<point x="461" y="286"/>
			<point x="475" y="315"/>
			<point x="475" y="338" type="curve"/>
			<point x="475" y="351"/>
			<point x="474" y="374"/>
			<point name="inserted" x="463" y="389" type="curve" smooth="yes"/>
			<point name="inserted" x="456" y="397"/>
			<point x="448" y="400"/>
			<point x="435" y="400" type="curve"/>
			<point x="396" y="400"/>
			<point x="393" y="384"/>
			<point x="393" y="359" type="curve"/>
			<point x="393" y="320" type="line"/>
			<point x="331" y="320" type="line"/>
			<point x="331" y="378" type="line"/>
			<point x="331" y="424"/>
			<point x="310" y="428"/>
			<point x="272" y="428" type="curve"/>
			<point x="127" y="428" type="line"/>
			<point x="65" y="251" type="line"/>
			<point x="134" y="251" type="line"/>
			<point x="134" y="273" type="line"/>
			<point x="153" y="277" type="line"/>
			<point x="153" y="246" type="line"/>
			<point x="142" y="234" type="line"/>
			<point x="119" y="234" type="line"/>
			<point x="110" y="193" type="line"/>
			<point x="172" y="193" type="line"/>
			<point x="167" y="176" type="line"/>
			<point x="109" y="176" type="line"/>
			<point x="122" y="126" type="line"/>
			<point x="98" y="22" type="line"/>
		</contour>
		<contour>
			<point x="187" y="328" type="curve"/>
			<point x="164" y="328"/>
			<point x="146" y="336"/>
			<point x="138" y="336" type="curve"/>
			<point name="inserted" x="134" y="336"/>
			<point x="128" y="334"/>
			<point x="120" y="330" type="curve"/>
			<point x="113" y="339" type="line"/>
			<point x="125" y="351" type="line"/>
			<point x="150" y="378"/>
			<point x="161" y="390"/>
			<point x="177" y="390" type="curve"/>
			<point name="inserted" x="186" y="390"/>
			<point x="197" y="387"/>
			<point x="210" y="380" type="curve"/>
			<point x="266" y="356" type="line"/>
			<point x="287" y="359" type="line"/>
			<point x="291" y="347" type="line"/>
			<point x="265" y="341" type="line"/>
			<point x="252" y="343" type="line"/>
			<point x="223" y="334"/>
			<point x="198" y="328"/>
		</contour>
		<contour>
			<point x="182" y="343" type="curve"/>
			<point x="191" y="343"/>
			<point x="198" y="351"/>
			<point x="198" y="359" type="curve"/>
			<point name="inserted" x="198" y="363"/>
			<point x="198" y="366"/>
			<point x="195" y="369" type="curve"/>
			<point name="inserted" x="190" y="373"/>
			<point x="184" y="375"/>
			<point x="180" y="375" type="curve"/>
			<point x="169" y="375"/>
			<point x="164" y="366"/>
			<point x="164" y="359" type="curve"/>
			<point name="inserted" x="164" y="348"/>
			<point x="170" y="343"/>
		</contour>
		<contour>
			<point x="209" y="345" type="curve"/>
			<point name="inserted" x="220" y="348"/>
			<point x="230" y="350"/>
			<point x="238" y="354" type="curve"/>
			<point x="212" y="363" type="line"/>
			<point name="inserted" x="213" y="362"/>
			<point x="213" y="361"/>
			<point x="213" y="358" type="curve"/>
			<point x="213" y="353"/>
			<point x="210" y="349"/>
		</contour>
		<contour>
			<point x="151" y="347" type="line"/>
			<point x="150" y="352"/>
			<point x="149" y="356"/>
			<point x="149" y="359" type="curve"/>
			<point x="139" y="350" type="line"/>
		</contour>
	</outline>
</glyph>
<glyph name="u131D1" format="2">
	<unicode hex="131D1"/>
	<advance width="668"/>
	<outline>
		<contour>
			<point x="334" y="0" type="curve"/>
			<point x="306" y="0"/>
			<point x="300" y="17"/>
			<point x="300" y="57" type="curve"/>
			<point x="300" y="180" type="line"/>
			<point x="300" y="199"/>
			<point x="296" y="233"/>
			<point name="inserted" x="281" y="265" type="curve" smooth="yes"/>
			<point x="266" y="296"/>
			<point x="237" y="320"/>
			<point x="189" y="320" type="curve"/>
			<point x="157" y="320"/>
			<point x="124" y="292"/>
			<point x="105" y="268" type="curve"/>
			<point x="90" y="248"/>
			<point x="81" y="237"/>
			<point x="69" y="237" type="curve"/>
			<point x="54" y="237"/>
			<point x="49" y="249"/>
			<point x="49" y="260" type="curve"/>
			<point name="inserted" x="49" y="269"/>
			<point x="54" y="281"/>
			<point x="63" y="294" type="curve"/>
			<point x="68" y="305"/>
			<point x="90" y="333"/>
			<point name="inserted" x="126" y="354" type="curve" smooth="yes"/>
			<point name="inserted" x="143" y="365"/>
			<point x="164" y="370"/>
			<point x="188" y="370" type="curve"/>
			<point x="254" y="370"/>
			<point x="292" y="342"/>
			<point x="311" y="318" type="curve"/>
			<point x="311" y="871" type="line"/>
			<point x="311" y="894"/>
			<point x="309" y="922"/>
			<point name="inserted" x="294" y="941" type="curve" smooth="yes"/>
			<point name="inserted" x="286" y="950"/>
			<point x="273" y="955"/>
			<point x="256" y="955" type="curve"/>
			<point x="223" y="955"/>
			<point x="206" y="930"/>
			<point name="inserted" x="199" y="905" type="curve" smooth="yes"/>
			<point name="inserted" x="196" y="893"/>
			<point x="194" y="883"/>
			<point x="193" y="876" type="curve"/>
			<point x="193" y="861"/>
			<point x="188" y="841"/>
			<point x="168" y="841" type="curve"/>
			<point x="151" y="841"/>
			<point x="147" y="856"/>
			<point x="147" y="873" type="curve"/>
			<point x="147" y="884"/>
			<point x="151" y="914"/>
			<point name="inserted" x="166" y="946" type="curve" smooth="yes"/>
			<point x="181" y="977"/>
			<point x="208" y="1002"/>
			<point x="256" y="1002" type="curve"/>
			<point name="inserted" x="324" y="1002"/>
			<point x="357" y="960"/>
			<point x="357" y="876" type="curve"/>
			<point x="357" y="318" type="line"/>
			<point x="376" y="342"/>
			<point x="416" y="370"/>
			<point x="480" y="370" type="curve"/>
			<point x="528" y="370"/>
			<point x="563" y="344"/>
			<point name="inserted" x="586" y="320" type="curve" smooth="yes"/>
			<point name="inserted" x="597" y="308"/>
			<point x="603" y="299"/>
			<point x="606" y="294" type="curve"/>
			<point name="inserted" x="615" y="281"/>
			<point x="620" y="269"/>
			<point x="620" y="260" type="curve"/>
			<point x="620" y="249"/>
			<point x="611" y="237"/>
			<point x="599" y="237" type="curve"/>
			<point x="587" y="237"/>
			<point x="578" y="248"/>
			<point x="563" y="268" type="curve"/>
			<point x="548" y="288"/>
			<point x="522" y="320"/>
			<point x="479" y="320" type="curve"/>
			<point x="431" y="320"/>
			<point x="403" y="296"/>
			<point name="inserted" x="388" y="265" type="curve" smooth="yes"/>
			<point x="373" y="233"/>
			<point x="369" y="199"/>
			<point x="369" y="180" type="curve"/>
			<point x="369" y="57" type="line"/>
			<point x="369" y="17"/>
			<point x="363" y="0"/>
		</contour>
		<contour>
			<point x="334" y="18" type="curve"/>
			<point x="347" y="18"/>
			<point x="351" y="30"/>
			<point x="351" y="57" type="curve"/>
			<point x="351" y="180" type="line"/>
			<point x="351" y="201"/>
			<point x="356" y="239"/>
			<point name="inserted" x="373" y="275" type="curve" smooth="yes"/>
			<point x="390" y="311"/>
			<point x="423" y="339"/>
			<point x="479" y="339" type="curve"/>
			<point x="515" y="339"/>
			<point x="540" y="322"/>
			<point name="inserted" x="557" y="303" type="curve" smooth="yes"/>
			<point name="inserted" x="566" y="292"/>
			<point x="573" y="285"/>
			<point x="578" y="277" type="curve"/>
			<point x="583" y="270"/>
			<point x="592" y="256"/>
			<point x="599" y="256" type="curve"/>
			<point name="inserted" x="602" y="256"/>
			<point x="602" y="257"/>
			<point x="602" y="260" type="curve"/>
			<point name="inserted" x="602" y="265"/>
			<point x="599" y="274"/>
			<point x="591" y="285" type="curve"/>
			<point x="584" y="294"/>
			<point x="565" y="319"/>
			<point name="inserted" x="534" y="338" type="curve" smooth="yes"/>
			<point name="inserted" x="518" y="347"/>
			<point x="500" y="352"/>
			<point x="480" y="352" type="curve"/>
			<point x="424" y="352"/>
			<point x="390" y="328"/>
			<point name="inserted" x="373" y="304" type="curve" smooth="yes"/>
			<point name="inserted" x="365" y="291"/>
			<point x="359" y="283"/>
			<point x="356" y="276" type="curve"/>
			<point x="340" y="280" type="line"/>
			<point x="340" y="876" type="line"/>
			<point name="inserted" x="340" y="948"/>
			<point x="312" y="984"/>
			<point x="256" y="984" type="curve"/>
			<point x="216" y="984"/>
			<point x="194" y="962"/>
			<point name="inserted" x="182" y="935" type="curve" smooth="yes"/>
			<point x="169" y="908"/>
			<point x="166" y="881"/>
			<point x="166" y="873" type="curve"/>
			<point name="inserted" x="166" y="864"/>
			<point x="167" y="859"/>
			<point x="168" y="859" type="curve"/>
			<point x="173" y="859"/>
			<point x="173" y="874"/>
			<point x="174" y="879" type="curve"/>
			<point x="175" y="887"/>
			<point x="178" y="909"/>
			<point name="inserted" x="190" y="932" type="curve" smooth="yes"/>
			<point x="201" y="955"/>
			<point x="221" y="973"/>
			<point x="256" y="973" type="curve"/>
			<point x="302" y="973"/>
			<point x="320" y="947"/>
			<point name="inserted" x="325" y="916" type="curve" smooth="yes"/>
			<point name="inserted" x="328" y="900"/>
			<point x="329" y="886"/>
			<point x="329" y="871" type="curve"/>
			<point x="329" y="280" type="line"/>
			<point x="313" y="276" type="line"/>
			<point x="306" y="288"/>
			<point x="291" y="317"/>
			<point name="inserted" x="256" y="337" type="curve" smooth="yes"/>
			<point name="inserted" x="239" y="348"/>
			<point x="216" y="352"/>
			<point x="188" y="352" type="curve"/>
			<point x="148" y="352"/>
			<point x="116" y="329"/>
			<point name="inserted" x="97" y="308" type="curve" smooth="yes"/>
			<point name="inserted" x="86" y="297"/>
			<point x="81" y="290"/>
			<point x="78" y="285" type="curve"/>
			<point name="inserted" x="71" y="276"/>
			<point x="67" y="267"/>
			<point x="67" y="260" type="curve"/>
			<point name="inserted" x="67" y="257"/>
			<point x="68" y="256"/>
			<point x="69" y="256" type="curve"/>
			<point name="inserted" x="72" y="256"/>
			<point x="79" y="264"/>
			<point x="91" y="279" type="curve"/>
			<point x="100" y="291"/>
			<point x="117" y="313"/>
			<point name="inserted" x="144" y="328" type="curve" smooth="yes"/>
			<point name="inserted" x="156" y="336"/>
			<point x="172" y="339"/>
			<point x="189" y="339" type="curve"/>
			<point x="245" y="339"/>
			<point x="278" y="311"/>
			<point name="inserted" x="295" y="275" type="curve" smooth="yes"/>
			<point x="312" y="239"/>
			<point x="317" y="201"/>
			<point x="317" y="180" type="curve"/>
			<point x="317" y="57" type="line"/>
			<point x="317" y="30"/>
			<point x="321" y="18"/>
		</contour>
	</outline>
</glyph>
<glyph name="u131F4" format="2">
	<unicode hex="131F4"/>
	<advance width="1173"/>
	<outline>
		<contour>
			<point x="667" y="24" type="curve"/>
			<point x="561" y="24"/>
			<point x="466" y="71"/>
			<point x="402" y="145" type="curve"/>
			<point x="390" y="122"/>
			<point x="366" y="80"/>
			<point name="inserted" x="327" y="52" type="curve" smooth="yes"/>
			<point name="inserted" x="308" y="39"/>
			<point x="284" y="31"/>
			<point x="256" y="31" type="curve"/>
			<point x="197" y="31"/>
			<point x="160" y="52"/>
			<point name="inserted" x="139" y="81" type="curve" smooth="yes"/>
			<point x="118" y="109"/>
			<point x="110" y="143"/>
			<point x="110" y="170" type="curve"/>
			<point x="110" y="214"/>
			<point x="120" y="251"/>
			<point x="120" y="295" type="curve"/>
			<point x="120" y="311"/>
			<point x="114" y="352"/>
			<point name="inserted" x="107" y="396" type="curve" smooth="yes"/>
			<point x="100" y="440"/>
			<point x="94" y="480"/>
			<point x="94" y="496" type="curve"/>
			<point x="94" y="521"/>
			<point x="103" y="552"/>
			<point x="130" y="577" type="curve"/>
			<point x="119" y="576"/>
			<point x="108" y="574"/>
			<point x="104" y="574" type="curve"/>
			<point x="92" y="574"/>
			<point x="72" y="574"/>
			<point name="inserted" x="59" y="582" type="curve" smooth="yes"/>
			<point name="inserted" x="52" y="586"/>
			<point x="49" y="593"/>
			<point x="49" y="604" type="curve"/>
			<point x="49" y="624"/>
			<point x="70" y="650"/>
			<point name="inserted" x="101" y="667" type="curve" smooth="yes"/>
			<point name="inserted" x="117" y="676"/>
			<point x="133" y="680"/>
			<point x="149" y="680" type="curve"/>
			<point x="191" y="680"/>
			<point x="232" y="657"/>
			<point name="inserted" x="264" y="623" type="curve" smooth="yes"/>
			<point x="296" y="590"/>
			<point x="316" y="550"/>
			<point x="316" y="521" type="curve"/>
			<point x="316" y="474"/>
			<point x="288" y="407"/>
			<point x="265" y="356" type="curve"/>
			<point x="238" y="297"/>
			<point x="209" y="233"/>
			<point x="209" y="175" type="curve"/>
			<point x="209" y="133"/>
			<point x="233" y="102"/>
			<point x="266" y="102" type="curve"/>
			<point x="294" y="102"/>
			<point x="316" y="124"/>
			<point name="inserted" x="332" y="151" type="curve" smooth="yes"/>
			<point x="348" y="176"/>
			<point x="358" y="201"/>
			<point x="359" y="205" type="curve"/>
			<point x="331" y="255"/>
			<point x="315" y="314"/>
			<point x="315" y="376" type="curve"/>
			<point x="315" y="474"/>
			<point x="353" y="559"/>
			<point name="inserted" x="419" y="625" type="curve" smooth="yes"/>
			<point x="483" y="689"/>
			<point x="569" y="728"/>
			<point x="667" y="728" type="curve"/>
			<point x="765" y="728"/>
			<point x="850" y="689"/>
			<point name="inserted" x="916" y="625" type="curve" smooth="yes"/>
			<point x="980" y="559"/>
			<point x="1019" y="474"/>
			<point x="1019" y="376" type="curve"/>
			<point name="inserted" x="1019" y="360"/>
			<point x="1019" y="345"/>
			<point x="1016" y="330" type="curve"/>
			<point x="1016" y="310"/>
			<point x="1024" y="264"/>
			<point name="inserted" x="1036" y="220" type="curve" smooth="yes"/>
			<point name="inserted" x="1041" y="197"/>
			<point x="1047" y="180"/>
			<point x="1054" y="165" type="curve"/>
			<point x="1065" y="144"/>
			<point x="1081" y="118"/>
			<point name="inserted" x="1094" y="101" type="curve" smooth="yes"/>
			<point name="inserted" x="1099" y="92"/>
			<point x="1104" y="87"/>
			<point x="1105" y="84" type="curve"/>
			<point x="1114" y="73"/>
			<point x="1124" y="56"/>
			<point x="1124" y="45" type="curve"/>
			<point name="inserted" x="1124" y="37"/>
			<point x="1120" y="33"/>
			<point x="1109" y="33" type="curve"/>
			<point x="1086" y="33"/>
			<point x="1060" y="51"/>
			<point x="1041" y="72" type="curve"/>
			<point x="1020" y="95"/>
			<point x="990" y="144"/>
			<point x="975" y="206" type="curve"/>
			<point x="935" y="134"/>
			<point x="871" y="78"/>
			<point name="inserted" x="792" y="47" type="curve" smooth="yes"/>
			<point name="inserted" x="753" y="32"/>
			<point x="711" y="24"/>
		</contour>
		<contour>
			<point x="667" y="43" type="curve"/>
			<point x="759" y="43"/>
			<point x="841" y="79"/>
			<point name="inserted" x="903" y="141" type="curve" smooth="yes"/>
			<point x="963" y="201"/>
			<point x="1000" y="284"/>
			<point x="1000" y="376" type="curve"/>
			<point x="1000" y="468"/>
			<point x="963" y="549"/>
			<point name="inserted" x="903" y="611" type="curve" smooth="yes"/>
			<point x="841" y="673"/>
			<point x="759" y="708"/>
			<point x="667" y="708" type="curve"/>
			<point x="575" y="708"/>
			<point x="492" y="673"/>
			<point name="inserted" x="432" y="611" type="curve" smooth="yes"/>
			<point x="370" y="549"/>
			<point x="334" y="468"/>
			<point x="334" y="376" type="curve"/>
			<point x="334" y="284"/>
			<point x="370" y="201"/>
			<point name="inserted" x="432" y="141" type="curve" smooth="yes"/>
			<point x="492" y="79"/>
			<point x="575" y="43"/>
		</contour>
		<contour>
			<point x="256" y="50" type="curve"/>
			<point x="295" y="50"/>
			<point x="325" y="71"/>
			<point name="inserted" x="346" y="96" type="curve" smooth="yes"/>
			<point x="367" y="121"/>
			<point x="381" y="148"/>
			<point x="388" y="161" type="curve"/>
			<point x="383" y="169"/>
			<point x="376" y="177"/>
			<point x="371" y="185" type="curve"/>
			<point x="362" y="161"/>
			<point x="342" y="125"/>
			<point name="inserted" x="315" y="101" type="curve" smooth="yes"/>
			<point name="inserted" x="300" y="89"/>
			<point x="285" y="83"/>
			<point x="266" y="83" type="curve"/>
			<point x="223" y="83"/>
			<point x="190" y="123"/>
			<point x="190" y="175" type="curve"/>
			<point x="190" y="238"/>
			<point x="219" y="302"/>
			<point x="247" y="364" type="curve"/>
			<point x="272" y="418"/>
			<point x="297" y="471"/>
			<point x="297" y="521" type="curve"/>
			<point x="297" y="546"/>
			<point x="278" y="581"/>
			<point name="inserted" x="250" y="610" type="curve" smooth="yes"/>
			<point x="221" y="639"/>
			<point x="185" y="660"/>
			<point x="149" y="660" type="curve"/>
			<point x="122" y="660"/>
			<point x="96" y="645"/>
			<point name="inserted" x="80" y="628" type="curve" smooth="yes"/>
			<point name="inserted" x="72" y="620"/>
			<point x="68" y="612"/>
			<point x="68" y="604" type="curve"/>
			<point x="68" y="593"/>
			<point x="92" y="593"/>
			<point x="104" y="593" type="curve"/>
			<point x="132" y="593"/>
			<point x="161" y="605"/>
			<point x="192" y="605" type="curve"/>
			<point x="203" y="605"/>
			<point x="216" y="603"/>
			<point x="228" y="598" type="curve"/>
			<point x="218" y="581" type="line"/>
			<point x="211" y="585"/>
			<point x="201" y="586"/>
			<point x="192" y="586" type="curve"/>
			<point x="148" y="586"/>
			<point x="113" y="542"/>
			<point x="113" y="496" type="curve"/>
			<point x="113" y="460"/>
			<point x="124" y="409"/>
			<point name="inserted" x="133" y="361" type="curve" smooth="yes"/>
			<point name="inserted" x="138" y="336"/>
			<point x="140" y="315"/>
			<point x="140" y="295" type="curve"/>
			<point x="140" y="252"/>
			<point x="130" y="216"/>
			<point x="130" y="170" type="curve"/>
			<point x="130" y="138"/>
			<point x="140" y="97"/>
			<point name="inserted" x="178" y="70" type="curve" smooth="yes"/>
			<point name="inserted" x="195" y="57"/>
			<point x="223" y="50"/>
		</contour>
		<contour>
			<point x="667" y="302" type="curve"/>
			<point x="625" y="302"/>
			<point x="593" y="334"/>
			<point x="593" y="376" type="curve"/>
			<point x="593" y="418"/>
			<point x="625" y="450"/>
			<point x="667" y="450" type="curve"/>
			<point x="709" y="450"/>
			<point x="741" y="418"/>
			<point x="741" y="376" type="curve"/>
			<point x="741" y="334"/>
			<point x="709" y="302"/>
		</contour>
		<contour>
			<point x="667" y="322" type="curve"/>
			<point x="698" y="322"/>
			<point x="721" y="347"/>
			<point x="721" y="376" type="curve"/>
			<point x="721" y="405"/>
			<point x="698" y="430"/>
			<point x="667" y="430" type="curve"/>
			<point x="636" y="430"/>
			<point x="613" y="405"/>
			<point x="613" y="376" type="curve"/>
			<point x="613" y="347"/>
			<point x="636" y="322"/>
		</contour>
		<contour>
			<point x="1103" y="53" type="curve"/>
			<point x="1106" y="53"/>
			<point x="1097" y="65"/>
			<point name="inserted" x="1088" y="78" type="curve" smooth="yes"/>
			<point name="inserted" x="1083" y="85"/>
			<point x="1079" y="90"/>
			<point x="1076" y="94" type="curve"/>
			<point x="1065" y="107"/>
			<point x="1045" y="135"/>
			<point x="1037" y="156" type="curve"/>
			<point x="1024" y="184"/>
			<point x="1012" y="232"/>
			<point x="1004" y="274" type="curve"/>
			<point x="1000" y="261"/>
			<point x="995" y="248"/>
			<point x="990" y="235" type="curve"/>
			<point x="1001" y="167"/>
			<point x="1026" y="111"/>
			<point x="1055" y="83" type="curve"/>
			<point x="1063" y="75"/>
			<point x="1074" y="65"/>
			<point x="1083" y="60" type="curve"/>
			<point name="inserted" x="1092" y="56"/>
			<point x="1099" y="53"/>
		</contour>
	</outline>
</glyph>
<glyph name="u132FF" format="2">
	<unicode hex="132FF"/>
	<advance width="368"/>
	<outline>
		<contour>
			<point x="251" y="-44" type="line"/>
			<point x="251" y="852" type="line"/>
			<point x="251" y="876"/>
			<point x="245" y="903"/>
			<point name="inserted" x="226" y="920" type="curve" smooth="yes"/>
			<point name="inserted" x="217" y="928"/>
			<point x="204" y="932"/>
			<point x="185" y="932" type="curve"/>
			<point name="inserted" x="139" y="932"/>
			<point x="116" y="913"/>
			<point x="116" y="874" type="curve"/>
			<point x="116" y="772" type="line"/>
			<point x="116" y="739"/>
			<point x="91" y="738"/>
			<point x="83" y="738" type="curve"/>
			<point x="74" y="738"/>
			<point x="49" y="739"/>
			<point x="49" y="772" type="curve"/>
			<point x="49" y="879" type="line"/>
			<point x="49" y="931"/>
			<point x="71" y="963"/>
			<point name="inserted" x="100" y="980" type="curve" smooth="yes"/>
			<point x="128" y="996"/>
			<point x="161" y="1001"/>
			<point x="185" y="1001" type="curve"/>
			<point x="255" y="1001"/>
			<point x="291" y="969"/>
			<point name="inserted" x="307" y="929" type="curve" smooth="yes"/>
			<point name="inserted" x="315" y="909"/>
			<point x="319" y="890"/>
			<point x="319" y="871" type="curve"/>
			<point x="319" y="-44" type="line"/>
		</contour>
		<contour>
			<point x="271" y="-24" type="line"/>
			<point x="299" y="-24" type="line"/>
			<point x="299" y="871" type="line"/>
			<point x="299" y="902"/>
			<point x="285" y="940"/>
			<point name="inserted" x="253" y="964" type="curve" smooth="yes"/>
			<point name="inserted" x="236" y="975"/>
			<point x="214" y="981"/>
			<point x="185" y="981" type="curve"/>
			<point x="165" y="981"/>
			<point x="136" y="978"/>
			<point name="inserted" x="112" y="963" type="curve" smooth="yes"/>
			<point x="87" y="948"/>
			<point x="68" y="923"/>
			<point x="68" y="879" type="curve"/>
			<point x="68" y="772" type="line"/>
			<point x="68" y="759"/>
			<point x="79" y="757"/>
			<point x="83" y="757" type="curve"/>
			<point x="86" y="757"/>
			<point x="97" y="759"/>
			<point x="97" y="772" type="curve"/>
			<point x="97" y="874" type="line"/>
			<point x="97" y="933"/>
			<point x="134" y="952"/>
			<point x="185" y="952" type="curve"/>
			<point x="232" y="952"/>
			<point x="255" y="928"/>
			<point name="inserted" x="264" y="897" type="curve" smooth="yes"/>
			<point name="inserted" x="269" y="882"/>
			<point x="271" y="867"/>
			<point x="271" y="852" type="curve"/>
		</contour>
	</outline>
</glyph>
<glyph name="u1337F" format="2">
	<unicode hex="1337F"/>
	<advance width="920"/>
	<outline>
		<contour>
			<point x="113" y="169" type="curve"/>
			<point x="74" y="169"/>
			<point x="49" y="189"/>
			<point x="49" y="224" type="curve"/>
			<point x="49" y="259"/>
			<point x="75" y="279"/>
			<point x="113" y="279" type="curve"/>
			<point x="144" y="279"/>
			<point x="175" y="261"/>
			<point x="182" y="234" type="curve"/>
			<point x="729" y="234" type="line"/>
			<point x="803" y="234"/>
			<point x="834" y="245"/>
			<point name="inserted" x="845" y="261" type="curve" smooth="yes"/>
			<point name="inserted" x="849" y="269"/>
			<point x="852" y="278"/>
			<point x="852" y="287" type="curve"/>
			<point x="852" y="306"/>
			<point x="846" y="322"/>
			<point name="inserted" x="811" y="333" type="curve" smooth="yes"/>
			<point name="inserted" x="792" y="337"/>
			<point x="767" y="340"/>
			<point x="729" y="340" type="curve"/>
			<point x="182" y="340" type="line"/>
			<point x="175" y="313"/>
			<point x="144" y="295"/>
			<point x="113" y="295" type="curve"/>
			<point x="74" y="295"/>
			<point x="49" y="315"/>
			<point x="49" y="350" type="curve"/>
			<point x="49" y="385"/>
			<point x="75" y="405"/>
			<point x="113" y="405" type="curve"/>
			<point x="144" y="405"/>
			<point x="175" y="387"/>
			<point x="182" y="360" type="curve"/>
			<point x="729" y="360" type="line"/>
			<point x="815" y="360"/>
			<point x="850" y="346"/>
			<point name="inserted" x="862" y="325" type="curve" smooth="yes"/>
			<point name="inserted" x="869" y="313"/>
			<point x="871" y="302"/>
			<point x="871" y="287" type="curve"/>
			<point x="871" y="259"/>
			<point x="863" y="236"/>
			<point name="inserted" x="823" y="224" type="curve" smooth="yes"/>
			<point name="inserted" x="803" y="217"/>
			<point x="772" y="214"/>
			<point x="729" y="214" type="curve"/>
			<point x="182" y="214" type="line"/>
			<point x="175" y="187"/>
			<point x="144" y="169"/>
		</contour>
		<contour>
			<point x="113" y="315" type="curve"/>
			<point x="137" y="315"/>
			<point x="162" y="331"/>
			<point x="162" y="350" type="curve"/>
			<point x="162" y="369"/>
			<point x="137" y="386"/>
			<point x="113" y="386" type="curve"/>
			<point x="89" y="386"/>
			<point x="70" y="374"/>
			<point x="70" y="350" type="curve"/>
			<point x="70" y="327"/>
			<point x="89" y="315"/>
		</contour>
		<contour>
			<point x="113" y="189" type="curve"/>
			<point x="137" y="189"/>
			<point x="162" y="205"/>
			<point x="162" y="224" type="curve"/>
			<point x="162" y="243"/>
			<point x="137" y="260"/>
			<point x="113" y="260" type="curve"/>
			<point x="89" y="260"/>
			<point x="68" y="248"/>
			<point x="68" y="224" type="curve"/>
			<point x="68" y="201"/>
			<point x="89" y="189"/>
		</contour>
	</outline>
</glyph>
<glyph name="Euro.S" format="2">
	<advance width="472"/>
	<outline>
		<contour>
			<point x="306" y="-12" type="curve" smooth="yes"/>
			<point x="378" y="-12"/>
			<point x="428" y="22"/>
			<point x="464" y="82" type="curve"/>
			<point x="444" y="94" type="line"/>
			<point x="410" y="40"/>
			<point x="366" y="16"/>
			<point x="308" y="16" type="curve" smooth="yes"/>
			<point x="187" y="16"/>
			<point x="120" y="120"/>
			<point x="120" y="276" type="curve" smooth="yes"/>
			<point x="120" y="431"/>
			<point x="188" y="530"/>
			<point x="310" y="530" type="curve" smooth="yes"/>
			<point x="366" y="530"/>
			<point x="408" y="510"/>
			<point x="438" y="466" type="curve"/>
			<point x="458" y="480" type="line"/>
			<point x="432" y="527"/>
			<point x="376" y="558"/>
			<point x="310" y="558" type="curve" smooth="yes"/>
			<point x="172" y="558"/>
			<point x="86" y="448"/>
			<point x="86" y="276" type="curve" smooth="yes"/>
			<point x="86" y="102"/>
			<point x="170" y="-12"/>
		</contour>
		<contour>
			<point x="24" y="204" type="line"/>
			<point x="370" y="204" type="line"/>
			<point x="370" y="232" type="line"/>
			<point x="88" y="232" type="line"/>
			<point x="24" y="228" type="line"/>
		</contour>
		<contour>
			<point x="24" y="312" type="line"/>
			<point x="410" y="312" type="line"/>
			<point x="410" y="340" type="line"/>
			<point x="90" y="340" type="line"/>
			<point x="24" y="336" type="line"/>
		</contour>
	</outline>
</glyph>
<glyph name="aiDaleth" format="2">
	<advance width="470"/>
	<outline>
		<contour>
			<point x="4" y="516" type="line"/>
			<point x="426" y="516" type="line"/>
			<point x="426" y="546" type="line"/>
			<point x="4" y="546" type="line"/>
		</contour>
		<contour>
			<point x="304" y="0" type="line"/>
			<point x="332" y="0" type="line"/>
			<point x="332" y="516" type="line"/>
			<point x="310" y="516" type="line"/>
			<point x="304" y="490"/>
			<point x="304" y="462"/>
			<point x="304" y="426" type="curve" smooth="yes"/>
		</contour>
	</outline>
	<anchor name="aboveHE" x="235" y="590"/>
	<anchor name="belowSecondaryHE" x="340" y="-30"/>
	<anchor name="centerHE" x="175" y="255"/>
	<anchor name="aboveLeftHE" x="0" y="590"/>
</glyph>
<glyph name="aiHe" format="2">
	<advance width="622"/>
	<outline>
		<contour>
			<point x="492" y="0" type="line"/>
			<point x="520" y="0" type="line"/>
			<point x="520" y="350" type="line" smooth="yes"/>
			<point x="520" y="494"/>
			<point x="451" y="546"/>
			<point x="344" y="546" type="curve" smooth="yes"/>
			<point x="94" y="546" type="line"/>
			<point x="94" y="516" type="line"/>
			<point x="338" y="516" type="line" smooth="yes"/>
			<point x="432" y="516"/>
			<point x="492" y="475"/>
			<point x="492" y="344" type="curve" smooth="yes"/>
		</contour>
		<contour>
			<point x="114" y="0" type="line"/>
			<point x="142" y="0" type="line"/>
			<point x="142" y="336" type="line"/>
			<point x="120" y="336" type="line"/>
			<point x="114" y="310"/>
			<point x="114" y="282"/>
			<point x="114" y="246" type="curve" smooth="yes"/>
		</contour>
	</outline>
	<anchor name="aboveHE" x="295" y="590"/>
	<anchor name="belowPrimaryHE" x="305" y="-30"/>
	<anchor name="centerHE" x="305" y="255"/>
	<anchor name="aboveLeftHE" x="0" y="590"/>
</glyph>
<glyph name="aiHeth" format="2">
	<advance width="630"/>
	<outline>
		<contour>
			<point x="500" y="0" type="line"/>
			<point x="528" y="0" type="line"/>
			<point x="528" y="350" type="line" smooth="yes"/>
			<point x="528" y="494"/>
			<point x="459" y="546"/>
			<point x="352" y="546" type="curve" smooth="yes"/>
			<point x="34" y="546" type="line"/>
			<point x="34" y="516" type="line"/>
			<point x="346" y="516" type="line" smooth="yes"/>
			<point x="440" y="516"/>
			<point x="500" y="475"/>
			<point x="500" y="344" type="curve" smooth="yes"/>
		</contour>
		<contour>
			<point x="114" y="0" type="line"/>
			<point x="142" y="0" type="line"/>
			<point x="142" y="516" type="line"/>
			<point x="120" y="516" type="line"/>
			<point x="114" y="490"/>
			<point x="114" y="462"/>
			<point x="114" y="426" type="curve" smooth="yes"/>
		</contour>
	</outline>
</glyph>
<glyph name="aiPe" format="2">
	<advance width="556"/>
	<outline>
		<contour>
			<point x="54" y="0" type="line"/>
			<point x="438" y="0" type="line"/>
			<point x="451" y="104"/>
			<point x="460" y="203"/>
			<point x="460" y="320" type="curve" smooth="yes"/>
			<point x="460" y="496"/>
			<point x="384" y="558"/>
			<point x="246" y="558" type="curve" smooth="yes"/>
			<point x="137" y="558"/>
			<point x="56" y="492"/>
			<point x="56" y="380" type="curve" smooth="yes"/>
			<point x="56" y="272"/>
			<point x="118" y="240"/>
			<point x="196" y="240" type="curve" smooth="yes"/>
			<point x="226" y="240" type="line"/>
			<point x="226" y="272" type="line"/>
			<point x="200" y="272" type="line" smooth="yes"/>
			<point x="136" y="272"/>
			<point x="84" y="296"/>
			<point x="84" y="380" type="curve" smooth="yes"/>
			<point x="84" y="476"/>
			<point x="150" y="528"/>
			<point x="244" y="528" type="curve" smooth="yes"/>
			<point x="366" y="528"/>
			<point x="432" y="478"/>
			<point x="432" y="314" type="curve" smooth="yes"/>
			<point x="432" y="208"/>
			<point x="425" y="121"/>
			<point x="413" y="28" type="curve"/>
			<point x="54" y="28" type="line"/>
		</contour>
	</outline>
	<anchor name="aboveHE" x="295" y="590"/>
	<anchor name="belowPrimaryHE" x="275" y="-30"/>
	<anchor name="centerHE" x="315" y="245"/>
	<anchor name="aboveLeftHE" x="10" y="590"/>
</glyph>
<glyph name="aiWaw" format="2">
	<advance width="276"/>
	<outline>
		<contour>
			<point x="146" y="0" type="line"/>
			<point x="174" y="0" type="line"/>
			<point x="174" y="390" type="line" smooth="yes"/>
			<point x="174" y="514"/>
			<point x="130" y="546"/>
			<point x="38" y="546" type="curve" smooth="yes"/>
			<point x="4" y="546" type="line"/>
			<point x="4" y="516" type="line"/>
			<point x="32" y="516" type="line" smooth="yes"/>
			<point x="110" y="516"/>
			<point x="146" y="495"/>
			<point x="146" y="384" type="curve" smooth="yes"/>
		</contour>
	</outline>
	<anchor name="aboveHE" x="110" y="590"/>
	<anchor name="belowSecondaryHE" x="170" y="-30"/>
	<anchor name="centerHE" x="55" y="255"/>
	<anchor name="holamHE" x="0" y="590"/>
	<anchor name="aboveLeftHE" x="110" y="560"/>
</glyph>
<glyph name="arrowleft.S" format="2">
	<advance width="620"/>
	<outline>
		<contour>
			<point x="298" y="6" type="line"/>
			<point x="318" y="26" type="line"/>
			<point x="76" y="258" type="line"/>
			<point x="580" y="258" type="line"/>
			<point x="580" y="286" type="line"/>
			<point x="76" y="286" type="line"/>
			<point x="318" y="518" type="line"/>
			<point x="298" y="538" type="line"/>
			<point x="30" y="274" type="line"/>
			<point x="30" y="270" type="line"/>
		</contour>
	</outline>
</glyph>
<glyph name="arrowupright.S" format="2">
	<advance width="620"/>
	<outline>
		<contour>
			<point x="125" y="67" type="line"/>
			<point x="482" y="423" type="line"/>
			<point x="475" y="88" type="line"/>
			<point x="503" y="88" type="line"/>
			<point x="506" y="464" type="line"/>
			<point x="503" y="467" type="line"/>
			<point x="127" y="464" type="line"/>
			<point x="127" y="436" type="line"/>
			<point x="462" y="443" type="line"/>
			<point x="106" y="86" type="line"/>
		</contour>
	</outline>
</glyph>
<glyph name="bracketleft.lat" format="2">
	<advance width="270"/>
	<outline>
		<contour>
			<point x="100" y="-152" type="line"/>
			<point x="252" y="-152" type="line"/>
			<point x="252" y="-130" type="line"/>
			<point x="124" y="-130" type="line"/>
			<point x="124" y="686" type="line"/>
			<point x="252" y="686" type="line"/>
			<point x="252" y="708" type="line"/>
			<point x="100" y="708" type="line"/>
		</contour>
	</outline>
</glyph>
<glyph name="bracketright.lat" format="2">
	<advance width="270"/>
	<outline>
		<contour>
			<point x="18" y="-152" type="line"/>
			<point x="170" y="-152" type="line"/>
			<point x="170" y="708" type="line"/>
			<point x="18" y="708" type="line"/>
			<point x="18" y="686" type="line"/>
			<point x="146" y="686" type="line"/>
			<point x="146" y="-130" type="line"/>
			<point x="18" y="-130" type="line"/>
		</contour>
	</outline>
</glyph>
